{
date = "2013-07-18 14:13:54 +0000";
designer = "Ryan Troy ford";
designerURL = "http://www.ryantroyford.com";
familyName = "Central Union Mission Neon";
fontMaster = (
{
ascender = 800;
capHeight = 700;
descender = "-200";
id = "28EF9373-0834-4819-8430-40544DAC9A78";
weight = Light;
xHeight = 500;
}
);
glyphs = (
{
glyphname = "A";
lastChange = "2013-07-19 15:21:39 -0500";
layers = (
{
layerId = "28EF9373-0834-4819-8430-40544DAC9A78";
name = "Light";
paths = (
{
closed = 1;
nodes = (
"414 804 OFFCURVE",
"470 783 OFFCURVE",
"519 742 CURVE SMOOTH",
"572 697 OFFCURVE",
"604 639 OFFCURVE",
"612 570 CURVE SMOOTH",
"614 556 OFFCURVE",
"615 540 OFFCURVE",
"615 523 CURVE SMOOTH",
"615 372 OFFCURVE",
"615 222 OFFCURVE",
"615 42 CURVE SMOOTH",
"615 38 OFFCURVE",
"615 35 OFFCURVE",
"614 31 CURVE",
"613 31 OFFCURVE",
"611 31 OFFCURVE",
"609 31 CURVE SMOOTH",
"594 31 OFFCURVE",
"579 31 OFFCURVE",
"565 31 CURVE SMOOTH",
"550 31 OFFCURVE",
"535 31 OFFCURVE",
"519 31 CURVE SMOOTH",
"518 31 OFFCURVE",
"516 31 OFFCURVE",
"514 31 CURVE",
"513 34 OFFCURVE",
"513 38 OFFCURVE",
"513 41 CURVE SMOOTH",
"513 86 OFFCURVE",
"513 132 OFFCURVE",
"513 177 CURVE SMOOTH",
"513 209 OFFCURVE",
"513 242 OFFCURVE",
"513 275 CURVE SMOOTH",
"513 324 OFFCURVE",
"491 346 OFFCURVE",
"442 346 CURVE SMOOTH",
"416 346 OFFCURVE",
"390 346 OFFCURVE",
"364 346 CURVE SMOOTH",
"311 346 LINE",
"257 346 LINE SMOOTH",
"256 346 OFFCURVE",
"255 346 OFFCURVE",
"253 346 CURVE SMOOTH",
"209 346 OFFCURVE",
"186 322 OFFCURVE",
"186 278 CURVE SMOOTH",
"186 240 OFFCURVE",
"186 202 OFFCURVE",
"186 164 CURVE SMOOTH",
"186 124 OFFCURVE",
"186 82 OFFCURVE",
"186 42 CURVE SMOOTH",
"186 38 OFFCURVE",
"186 34 OFFCURVE",
"185 31 CURVE",
"184 31 OFFCURVE",
"182 31 OFFCURVE",
"181 31 CURVE SMOOTH",
"166 31 OFFCURVE",
"151 31 OFFCURVE",
"137 31 CURVE SMOOTH",
"109 31 LINE",
"90 31 LINE SMOOTH",
"90 31 OFFCURVE",
"88 31 OFFCURVE",
"88 31 CURVE SMOOTH",
"87 31 OFFCURVE",
"86 31 OFFCURVE",
"86 31 CURVE",
"86 32 OFFCURVE",
"86 32 OFFCURVE",
"86 33 CURVE SMOOTH",
"85 35 OFFCURVE",
"85 37 OFFCURVE",
"85 40 CURVE SMOOTH",
"86 43 LINE",
"85 115 OFFCURVE",
"85 188 OFFCURVE",
"85 260 CURVE SMOOTH",
"85 296 LINE",
"85 377 LINE",
"85 540 LINE SMOOTH",
"85 608 OFFCURVE",
"108 666 OFFCURVE",
"154 717 CURVE SMOOTH",
"197 766 OFFCURVE",
"252 794 OFFCURVE",
"316 802 CURVE SMOOTH",
"329 803 OFFCURVE",
"341 804 OFFCURVE",
"352 804 CURVE",
"352 804 LINE"
);
},
{
closed = 1;
nodes = (
"344 420 LINE",
"350 420 LINE",
"373 420 LINE",
"397 420 LINE SMOOTH",
"412 420 OFFCURVE",
"429 420 OFFCURVE",
"445 420 CURVE SMOOTH",
"452 420 OFFCURVE",
"458 421 OFFCURVE",
"466 423 CURVE SMOOTH",
"490 427 OFFCURVE",
"507 444 OFFCURVE",
"512 467 CURVE SMOOTH",
"512 474 OFFCURVE",
"513 481 OFFCURVE",
"513 488 CURVE SMOOTH",
"513 503 OFFCURVE",
"513 518 OFFCURVE",
"513 536 CURVE SMOOTH",
"513 558 OFFCURVE",
"510 577 OFFCURVE",
"503 596 CURVE SMOOTH",
"479 660 OFFCURVE",
"418 703 OFFCURVE",
"351 703 CURVE SMOOTH",
"347 703 OFFCURVE",
"343 703 OFFCURVE",
"338 702 CURVE SMOOTH",
"261 696 OFFCURVE",
"201 641 OFFCURVE",
"189 567 CURVE SMOOTH",
"185 539 OFFCURVE",
"186 510 OFFCURVE",
"187 483 CURVE SMOOTH",
"187 479 LINE SMOOTH",
"188 437 OFFCURVE",
"217 424 OFFCURVE",
"242 421 CURVE SMOOTH",
"247 420 OFFCURVE",
"251 420 OFFCURVE",
"255 420 CURVE SMOOTH",
"256 420 LINE SMOOTH",
"272 420 OFFCURVE",
"289 420 OFFCURVE",
"304 420 CURVE SMOOTH"
);
},
{
closed = 1;
nodes = (
"340 834 OFFCURVE",
"326 833 OFFCURVE",
"313 833 CURVE SMOOTH",
"241 824 OFFCURVE",
"180 791 OFFCURVE",
"131 737 CURVE SMOOTH",
"81 681 OFFCURVE",
"55 616 OFFCURVE",
"55 540 CURVE SMOOTH",
"55 458 OFFCURVE",
"55 377 OFFCURVE",
"55 296 CURVE SMOOTH",
"55 211 OFFCURVE",
"55 127 OFFCURVE",
"55 43 CURVE SMOOTH",
"55 38 OFFCURVE",
"55 34 OFFCURVE",
"55 30 CURVE SMOOTH",
"57 11 OFFCURVE",
"66 3 OFFCURVE",
"84 1 CURVE SMOOTH",
"86 0 OFFCURVE",
"88 0 OFFCURVE",
"90 0 CURVE SMOOTH",
"106 0 OFFCURVE",
"122 0 OFFCURVE",
"137 0 CURVE SMOOTH",
"152 0 OFFCURVE",
"166 0 OFFCURVE",
"181 0 CURVE SMOOTH",
"186 0 OFFCURVE",
"190 1 OFFCURVE",
"195 2 CURVE SMOOTH",
"206 4 OFFCURVE",
"213 11 OFFCURVE",
"215 22 CURVE SMOOTH",
"216 28 OFFCURVE",
"217 35 OFFCURVE",
"217 42 CURVE SMOOTH",
"217 121 OFFCURVE",
"217 199 OFFCURVE",
"217 278 CURVE SMOOTH",
"217 305 OFFCURVE",
"227 315 OFFCURVE",
"254 315 CURVE SMOOTH",
"255 315 OFFCURVE",
"256 315 OFFCURVE",
"257 315 CURVE SMOOTH",
"294 315 OFFCURVE",
"329 315 OFFCURVE",
"364 315 CURVE SMOOTH",
"390 315 OFFCURVE",
"416 315 OFFCURVE",
"442 315 CURVE SMOOTH",
"474 315 OFFCURVE",
"482 306 OFFCURVE",
"482 275 CURVE SMOOTH",
"482 196 OFFCURVE",
"482 119 OFFCURVE",
"483 41 CURVE SMOOTH",
"483 35 OFFCURVE",
"483 29 OFFCURVE",
"484 23 CURVE SMOOTH",
"486 11 OFFCURVE",
"493 4 OFFCURVE",
"505 2 CURVE SMOOTH",
"510 1 OFFCURVE",
"514 0 OFFCURVE",
"519 0 CURVE SMOOTH",
"535 0 OFFCURVE",
"550 0 OFFCURVE",
"565 0 CURVE SMOOTH",
"579 0 OFFCURVE",
"594 0 OFFCURVE",
"609 0 CURVE SMOOTH",
"615 0 OFFCURVE",
"619 1 OFFCURVE",
"624 2 CURVE SMOOTH",
"635 4 OFFCURVE",
"642 11 OFFCURVE",
"644 21 CURVE SMOOTH",
"645 27 OFFCURVE",
"646 35 OFFCURVE",
"646 42 CURVE SMOOTH",
"646 202 OFFCURVE",
"646 363 OFFCURVE",
"646 523 CURVE SMOOTH",
"646 540 OFFCURVE",
"645 558 OFFCURVE",
"643 574 CURVE SMOOTH",
"633 652 OFFCURVE",
"599 716 OFFCURVE",
"539 766 CURVE SMOOTH",
"484 812 OFFCURVE",
"421 834 OFFCURVE",
"352 834 CURVE SMOOTH"
);
},
{
closed = 1;
nodes = (
"289 452 OFFCURVE",
"272 452 OFFCURVE",
"256 452 CURVE SMOOTH",
"252 452 OFFCURVE",
"249 452 OFFCURVE",
"245 452 CURVE SMOOTH",
"227 455 OFFCURVE",
"218 460 OFFCURVE",
"218 480 CURVE SMOOTH",
"217 508 OFFCURVE",
"216 536 OFFCURVE",
"220 563 CURVE SMOOTH",
"230 623 OFFCURVE",
"279 667 OFFCURVE",
"341 672 CURVE SMOOTH",
"344 672 OFFCURVE",
"348 672 OFFCURVE",
"351 672 CURVE SMOOTH",
"407 672 OFFCURVE",
"456 635 OFFCURVE",
"474 585 CURVE SMOOTH",
"480 569 OFFCURVE",
"482 553 OFFCURVE",
"482 536 CURVE SMOOTH",
"483 520 OFFCURVE",
"483 505 OFFCURVE",
"482 489 CURVE SMOOTH",
"482 483 OFFCURVE",
"482 478 OFFCURVE",
"481 473 CURVE SMOOTH",
"479 462 OFFCURVE",
"471 456 OFFCURVE",
"460 454 CURVE SMOOTH",
"456 453 OFFCURVE",
"450 452 OFFCURVE",
"445 452 CURVE SMOOTH",
"429 452 OFFCURVE",
"412 452 OFFCURVE",
"397 452 CURVE SMOOTH",
"381 452 OFFCURVE",
"365 452 OFFCURVE",
"350 452 CURVE SMOOTH",
"335 452 OFFCURVE",
"320 452 OFFCURVE",
"304 452 CURVE SMOOTH"
);
},
{
closed = 1;
nodes = (
"123 399 OFFCURVE",
"123 473 OFFCURVE",
"123 548 CURVE SMOOTH",
"123 605 OFFCURVE",
"142 654 OFFCURVE",
"180 696 CURVE SMOOTH",
"219 741 OFFCURVE",
"269 768 OFFCURVE",
"329 773 CURVE SMOOTH",
"423 780 OFFCURVE",
"498 744 OFFCURVE",
"549 664 CURVE SMOOTH",
"572 627 OFFCURVE",
"583 587 OFFCURVE",
"583 544 CURVE SMOOTH",
"583 395 OFFCURVE",
"583 239 OFFCURVE",
"583 90 CURVE SMOOTH",
"583 84 OFFCURVE",
"583 80 OFFCURVE",
"582 75 CURVE SMOOTH",
"581 65 OFFCURVE",
"575 60 OFFCURVE",
"567 59 CURVE SMOOTH",
"561 59 OFFCURVE",
"554 64 OFFCURVE",
"552 73 CURVE SMOOTH",
"551 79 OFFCURVE",
"551 84 OFFCURVE",
"551 89 CURVE SMOOTH",
"551 171 OFFCURVE",
"551 258 OFFCURVE",
"551 340 CURVE SMOOTH",
"551 363 OFFCURVE",
"548 365 OFFCURVE",
"524 365 CURVE SMOOTH",
"409 365 OFFCURVE",
"295 365 OFFCURVE",
"180 365 CURVE SMOOTH",
"156 365 OFFCURVE",
"154 363 OFFCURVE",
"154 340 CURVE SMOOTH",
"154 257 OFFCURVE",
"154 169 OFFCURVE",
"154 86 CURVE SMOOTH",
"154 81 OFFCURVE",
"153 75 OFFCURVE",
"152 70 CURVE SMOOTH",
"150 63 OFFCURVE",
"145 59 OFFCURVE",
"138 59 CURVE SMOOTH",
"132 59 OFFCURVE",
"127 63 OFFCURVE",
"125 70 CURVE SMOOTH",
"123 75 OFFCURVE",
"123 81 OFFCURVE",
"123 85 CURVE SMOOTH",
"123 163 OFFCURVE",
"123 246 OFFCURVE",
"123 324 CURVE SMOOTH"
);
},
{
closed = 1;
nodes = (
"410 398 OFFCURVE",
"469 398 OFFCURVE",
"527 398 CURVE SMOOTH",
"547 398 OFFCURVE",
"550 401 OFFCURVE",
"551 421 CURVE SMOOTH",
"551 462 OFFCURVE",
"551 504 OFFCURVE",
"550 545 CURVE SMOOTH",
"550 606 OFFCURVE",
"525 656 OFFCURVE",
"479 695 CURVE SMOOTH",
"413 751 OFFCURVE",
"323 758 OFFCURVE",
"249 712 CURVE SMOOTH",
"187 672 OFFCURVE",
"156 615 OFFCURVE",
"154 541 CURVE SMOOTH",
"153 500 OFFCURVE",
"154 458 OFFCURVE",
"154 417 CURVE SMOOTH",
"154 415 OFFCURVE",
"154 413 OFFCURVE",
"154 411 CURVE SMOOTH",
"155 403 OFFCURVE",
"159 399 OFFCURVE",
"167 398 CURVE SMOOTH",
"172 398 OFFCURVE",
"176 398 OFFCURVE",
"180 398 CURVE SMOOTH",
"238 398 OFFCURVE",
"295 398 OFFCURVE",
"352 398 CURVE SMOOTH"
);
}
);
width = 701;
}
);
leftKerningGroup = "30";
rightKerningGroup = "30";
unicode = 0041;
},
{
glyphname = "B";
lastChange = "2013-07-19 15:21:57 -0500";
layers = (
{
layerId = "28EF9373-0834-4819-8430-40544DAC9A78";
name = "Light";
paths = (
{
closed = 1;
nodes = (
"124 535 OFFCURVE",
"124 647 OFFCURVE",
"124 758 CURVE SMOOTH",
"124 782 OFFCURVE",
"126 784 OFFCURVE",
"149 784 CURVE SMOOTH",
"225 784 OFFCURVE",
"307 784 OFFCURVE",
"383 784 CURVE SMOOTH",
"480 784 OFFCURVE",
"561 703 OFFCURVE",
"561 605 CURVE SMOOTH",
"561 541 OFFCURVE",
"535 490 OFFCURVE",
"483 452 CURVE SMOOTH",
"467 440 OFFCURVE",
"467 436 OFFCURVE",
"485 426 CURVE SMOOTH",
"544 394 OFFCURVE",
"579 344 OFFCURVE",
"587 277 CURVE SMOOTH",
"599 175 OFFCURVE",
"529 82 OFFCURVE",
"427 65 CURVE SMOOTH",
"419 63 OFFCURVE",
"410 62 OFFCURVE",
"402 62 CURVE SMOOTH",
"319 62 OFFCURVE",
"229 62 OFFCURVE",
"146 62 CURVE SMOOTH",
"143 62 OFFCURVE",
"140 62 OFFCURVE",
"136 63 CURVE SMOOTH",
"129 64 OFFCURVE",
"125 68 OFFCURVE",
"124 75 CURVE SMOOTH",
"124 80 OFFCURVE",
"124 85 OFFCURVE",
"124 90 CURVE SMOOTH",
"124 201 OFFCURVE",
"124 312 OFFCURVE",
"124 423 CURVE SMOOTH"
);
},
{
closed = 1;
nodes = (
"156 256 OFFCURVE",
"156 256 OFFCURVE",
"156 256 CURVE",
"156 209 OFFCURVE",
"156 162 OFFCURVE",
"156 116 CURVE SMOOTH",
"156 100 OFFCURVE",
"160 96 OFFCURVE",
"176 96 CURVE SMOOTH",
"178 96 OFFCURVE",
"179 96 OFFCURVE",
"181 96 CURVE SMOOTH",
"251 96 OFFCURVE",
"327 95 OFFCURVE",
"396 96 CURVE SMOOTH",
"411 96 OFFCURVE",
"426 98 OFFCURVE",
"440 102 CURVE SMOOTH",
"524 126 OFFCURVE",
"573 216 OFFCURVE",
"548 299 CURVE SMOOTH",
"528 368 OFFCURVE",
"466 415 OFFCURVE",
"395 416 CURVE SMOOTH",
"324 416 OFFCURVE",
"248 416 OFFCURVE",
"177 416 CURVE SMOOTH",
"175 416 OFFCURVE",
"172 416 OFFCURVE",
"169 415 CURVE SMOOTH",
"161 414 OFFCURVE",
"157 410 OFFCURVE",
"156 402 CURVE SMOOTH",
"156 398 OFFCURVE",
"156 394 OFFCURVE",
"156 390 CURVE SMOOTH",
"156 345 OFFCURVE",
"156 300 OFFCURVE",
"156 256 CURVE"
);
},
{
closed = 1;
nodes = (
"156 602 OFFCURVE",
"156 602 OFFCURVE",
"156 602 CURVE",
"156 559 OFFCURVE",
"156 515 OFFCURVE",
"156 472 CURVE SMOOTH",
"156 456 OFFCURVE",
"160 452 OFFCURVE",
"176 452 CURVE SMOOTH",
"195 452 OFFCURVE",
"215 452 OFFCURVE",
"234 452 CURVE SMOOTH",
"283 452 OFFCURVE",
"339 452 OFFCURVE",
"388 454 CURVE SMOOTH",
"431 455 OFFCURVE",
"466 475 OFFCURVE",
"494 507 CURVE SMOOTH",
"543 565 OFFCURVE",
"539 653 OFFCURVE",
"485 707 CURVE SMOOTH",
"455 737 OFFCURVE",
"417 752 OFFCURVE",
"374 752 CURVE SMOOTH",
"311 752 OFFCURVE",
"241 752 OFFCURVE",
"177 752 CURVE SMOOTH",
"174 752 OFFCURVE",
"171 752 OFFCURVE",
"168 752 CURVE SMOOTH",
"161 751 OFFCURVE",
"157 747 OFFCURVE",
"156 740 CURVE SMOOTH",
"156 736 OFFCURVE",
"156 732 OFFCURVE",
"156 728 CURVE SMOOTH",
"156 686 OFFCURVE",
"156 644 OFFCURVE",
"156 602 CURVE"
);
},
{
closed = 1;
nodes = (
"311 818 OFFCURVE",
"348 818 OFFCURVE",
"383 818 CURVE SMOOTH",
"434 817 OFFCURVE",
"480 799 OFFCURVE",
"520 765 CURVE SMOOTH",
"562 728 OFFCURVE",
"585 683 OFFCURVE",
"593 628 CURVE SMOOTH",
"598 588 OFFCURVE",
"592 549 OFFCURVE",
"575 511 CURVE SMOOTH",
"572 505 OFFCURVE",
"569 499 OFFCURVE",
"566 493 CURVE SMOOTH",
"564 490 OFFCURVE",
"563 487 OFFCURVE",
"561 484 CURVE SMOOTH",
"547 458 OFFCURVE",
"549 431 OFFCURVE",
"567 408 CURVE SMOOTH",
"590 379 OFFCURVE",
"603 354 OFFCURVE",
"610 329 CURVE SMOOTH",
"634 245 OFFCURVE",
"619 172 OFFCURVE",
"563 108 CURVE SMOOTH",
"526 66 OFFCURVE",
"480 41 OFFCURVE",
"421 33 CURVE SMOOTH",
"412 32 OFFCURVE",
"403 32 OFFCURVE",
"391 32 CURVE SMOOTH",
"337 31 OFFCURVE",
"283 31 OFFCURVE",
"228 31 CURVE SMOOTH",
"184 31 OFFCURVE",
"141 31 OFFCURVE",
"97 31 CURVE SMOOTH",
"92 31 OFFCURVE",
"90 32 OFFCURVE",
"88 32 CURVE",
"87 34 OFFCURVE",
"87 37 OFFCURVE",
"87 41 CURVE",
"87 137 OFFCURVE",
"87 233 OFFCURVE",
"87 329 CURVE SMOOTH",
"87 425 LINE",
"87 491 LINE SMOOTH",
"87 596 OFFCURVE",
"87 701 OFFCURVE",
"87 807 CURVE SMOOTH",
"87 810 OFFCURVE",
"87 814 OFFCURVE",
"88 817 CURVE",
"90 818 OFFCURVE",
"92 818 OFFCURVE",
"94 818 CURVE SMOOTH",
"119 818 OFFCURVE",
"143 818 OFFCURVE",
"167 818 CURVE SMOOTH",
"200 818 OFFCURVE",
"233 818 OFFCURVE",
"266 818 CURVE SMOOTH"
);
},
{
closed = 1;
nodes = (
"289 487 OFFCURVE",
"295 487 OFFCURVE",
"300 487 CURVE SMOOTH",
"305 487 OFFCURVE",
"310 487 OFFCURVE",
"315 487 CURVE SMOOTH",
"347 487 LINE",
"347 488 LINE",
"362 488 OFFCURVE",
"378 488 OFFCURVE",
"390 489 CURVE SMOOTH",
"434 494 OFFCURVE",
"468 521 OFFCURVE",
"484 563 CURVE SMOOTH",
"499 605 OFFCURVE",
"490 647 OFFCURVE",
"457 681 CURVE SMOOTH",
"435 703 OFFCURVE",
"405 715 OFFCURVE",
"369 715 CURVE SMOOTH",
"355 715 OFFCURVE",
"339 715 OFFCURVE",
"322 715 CURVE SMOOTH",
"306 715 OFFCURVE",
"290 715 OFFCURVE",
"274 715 CURVE SMOOTH",
"259 715 LINE SMOOTH",
"253 715 OFFCURVE",
"247 715 OFFCURVE",
"240 713 CURVE SMOOTH",
"213 709 OFFCURVE",
"196 692 OFFCURVE",
"192 665 CURVE SMOOTH",
"190 658 OFFCURVE",
"190 652 OFFCURVE",
"190 646 CURVE SMOOTH",
"190 610 OFFCURVE",
"190 583 OFFCURVE",
"190 557 CURVE SMOOTH",
"190 549 OFFCURVE",
"191 541 OFFCURVE",
"192 533 CURVE SMOOTH",
"197 511 OFFCURVE",
"213 495 OFFCURVE",
"236 490 CURVE SMOOTH",
"243 488 OFFCURVE",
"251 488 OFFCURVE",
"259 487 CURVE SMOOTH",
"267 487 OFFCURVE",
"276 487 OFFCURVE",
"284 487 CURVE SMOOTH"
);
},
{
closed = 1;
nodes = (
"349 134 OFFCURVE",
"367 134 OFFCURVE",
"384 134 CURVE SMOOTH",
"401 135 OFFCURVE",
"418 138 OFFCURVE",
"434 143 CURVE SMOOTH",
"488 161 OFFCURVE",
"523 216 OFFCURVE",
"516 274 CURVE SMOOTH",
"510 331 OFFCURVE",
"462 377 OFFCURVE",
"405 381 CURVE SMOOTH",
"392 382 OFFCURVE",
"372 383 OFFCURVE",
"356 383 CURVE",
"356 383 LINE",
"324 383 LINE",
"318 383 LINE",
"312 383 LINE",
"303 383 LINE",
"301 383 LINE SMOOTH",
"297 383 OFFCURVE",
"293 383 OFFCURVE",
"289 383 CURVE SMOOTH",
"285 383 OFFCURVE",
"281 383 OFFCURVE",
"277 383 CURVE SMOOTH",
"270 383 OFFCURVE",
"263 383 OFFCURVE",
"256 383 CURVE SMOOTH",
"214 382 OFFCURVE",
"191 359 OFFCURVE",
"190 317 CURVE SMOOTH",
"190 316 OFFCURVE",
"190 315 OFFCURVE",
"190 314 CURVE SMOOTH",
"190 288 LINE SMOOTH",
"190 260 OFFCURVE",
"190 231 OFFCURVE",
"190 202 CURVE SMOOTH",
"190 196 OFFCURVE",
"191 189 OFFCURVE",
"192 181 CURVE SMOOTH",
"197 158 OFFCURVE",
"213 141 OFFCURVE",
"236 137 CURVE SMOOTH",
"244 135 OFFCURVE",
"252 134 OFFCURVE",
"259 134 CURVE SMOOTH",
"267 134 OFFCURVE",
"276 134 OFFCURVE",
"284 134 CURVE SMOOTH",
"298 134 OFFCURVE",
"313 134 OFFCURVE",
"327 134 CURVE SMOOTH"
);
},
{
closed = 1;
nodes = (
"209 850 OFFCURVE",
"151 850 OFFCURVE",
"94 849 CURVE SMOOTH",
"89 849 OFFCURVE",
"83 849 OFFCURVE",
"78 848 CURVE SMOOTH",
"66 845 OFFCURVE",
"59 838 OFFCURVE",
"57 827 CURVE SMOOTH",
"56 820 OFFCURVE",
"55 813 OFFCURVE",
"55 807 CURVE SMOOTH",
"55 679 OFFCURVE",
"55 552 OFFCURVE",
"55 425 CURVE SMOOTH",
"55 297 OFFCURVE",
"55 169 OFFCURVE",
"55 41 CURVE SMOOTH",
"55 9 OFFCURVE",
"64 0 OFFCURVE",
"97 0 CURVE SMOOTH",
"140 0 OFFCURVE",
"184 0 OFFCURVE",
"228 0 CURVE SMOOTH",
"283 0 OFFCURVE",
"337 0 OFFCURVE",
"391 0 CURVE SMOOTH",
"403 0 OFFCURVE",
"414 0 OFFCURVE",
"425 2 CURVE SMOOTH",
"490 11 OFFCURVE",
"544 38 OFFCURVE",
"587 88 CURVE SMOOTH",
"651 161 OFFCURVE",
"667 245 OFFCURVE",
"641 338 CURVE SMOOTH",
"631 371 OFFCURVE",
"613 400 OFFCURVE",
"592 428 CURVE SMOOTH",
"581 441 OFFCURVE",
"582 455 OFFCURVE",
"589 470 CURVE SMOOTH",
"594 479 OFFCURVE",
"599 488 OFFCURVE",
"604 498 CURVE SMOOTH",
"623 541 OFFCURVE",
"630 585 OFFCURVE",
"624 632 CURVE SMOOTH",
"616 694 OFFCURVE",
"589 747 OFFCURVE",
"541 789 CURVE SMOOTH",
"496 828 OFFCURVE",
"443 849 OFFCURVE",
"384 849 CURVE SMOOTH",
"344 850 OFFCURVE",
"305 850 OFFCURVE",
"266 850 CURVE SMOOTH"
);
},
{
closed = 1;
nodes = (
"276 519 OFFCURVE",
"268 519 OFFCURVE",
"260 519 CURVE SMOOTH",
"254 519 OFFCURVE",
"248 520 OFFCURVE",
"242 521 CURVE SMOOTH",
"232 523 OFFCURVE",
"226 530 OFFCURVE",
"223 540 CURVE SMOOTH",
"222 546 OFFCURVE",
"221 551 OFFCURVE",
"221 557 CURVE SMOOTH",
"221 587 OFFCURVE",
"221 616 OFFCURVE",
"221 645 CURVE SMOOTH",
"221 650 OFFCURVE",
"222 655 OFFCURVE",
"223 660 CURVE SMOOTH",
"225 673 OFFCURVE",
"232 680 OFFCURVE",
"245 682 CURVE SMOOTH",
"250 683 OFFCURVE",
"255 684 OFFCURVE",
"260 684 CURVE SMOOTH",
"280 684 OFFCURVE",
"301 684 OFFCURVE",
"322 684 CURVE SMOOTH",
"337 684 OFFCURVE",
"353 684 OFFCURVE",
"368 683 CURVE SMOOTH",
"393 683 OFFCURVE",
"416 677 OFFCURVE",
"434 659 CURVE SMOOTH",
"458 635 OFFCURVE",
"465 606 OFFCURVE",
"454 574 CURVE SMOOTH",
"443 543 OFFCURVE",
"420 524 OFFCURVE",
"387 521 CURVE SMOOTH",
"363 519 OFFCURVE",
"315 520 OFFCURVE",
"315 519 CURVE",
"305 519 OFFCURVE",
"294 519 OFFCURVE",
"284 519 CURVE SMOOTH"
);
},
{
closed = 1;
nodes = (
"304 166 OFFCURVE",
"281 166 OFFCURVE",
"259 166 CURVE SMOOTH",
"253 166 OFFCURVE",
"248 166 OFFCURVE",
"243 168 CURVE SMOOTH",
"232 170 OFFCURVE",
"225 177 OFFCURVE",
"223 187 CURVE SMOOTH",
"222 192 OFFCURVE",
"221 197 OFFCURVE",
"221 202 CURVE SMOOTH",
"221 240 OFFCURVE",
"221 277 OFFCURVE",
"221 314 CURVE SMOOTH",
"221 315 OFFCURVE",
"221 315 OFFCURVE",
"221 316 CURVE SMOOTH",
"222 341 OFFCURVE",
"232 351 OFFCURVE",
"257 351 CURVE SMOOTH",
"264 352 OFFCURVE",
"270 352 OFFCURVE",
"277 352 CURVE SMOOTH",
"285 352 OFFCURVE",
"293 352 OFFCURVE",
"301 352 CURVE SMOOTH",
"302 352 OFFCURVE",
"303 352 OFFCURVE",
"303 352 CURVE SMOOTH",
"306 352 OFFCURVE",
"309 352 OFFCURVE",
"312 352 CURVE SMOOTH",
"316 352 OFFCURVE",
"320 352 OFFCURVE",
"324 352 CURVE",
"324 351 OFFCURVE",
"377 352 OFFCURVE",
"403 350 CURVE SMOOTH",
"445 347 OFFCURVE",
"480 312 OFFCURVE",
"485 270 CURVE SMOOTH",
"490 228 OFFCURVE",
"465 187 OFFCURVE",
"424 173 CURVE SMOOTH",
"411 169 OFFCURVE",
"397 166 OFFCURVE",
"384 166 CURVE SMOOTH",
"365 166 OFFCURVE",
"346 166 OFFCURVE",
"327 166 CURVE SMOOTH"
);
}
);
width = 707;
}
);
leftKerningGroup = "30";
rightKerningGroup = "30";
unicode = 0042;
},
{
glyphname = "C";
lastChange = "2013-07-19 15:22:04 -0500";
layers = (
{
layerId = "28EF9373-0834-4819-8430-40544DAC9A78";
name = "Light";
paths = (
{
closed = 1;
nodes = (
"121 472 OFFCURVE",
"121 521 OFFCURVE",
"121 569 CURVE SMOOTH",
"121 672 OFFCURVE",
"190 756 OFFCURVE",
"289 777 CURVE SMOOTH",
"383 798 OFFCURVE",
"481 750 OFFCURVE",
"522 663 CURVE SMOOTH",
"524 659 OFFCURVE",
"526 654 OFFCURVE",
"527 649 CURVE SMOOTH",
"528 642 OFFCURVE",
"525 636 OFFCURVE",
"519 633 CURVE SMOOTH",
"512 630 OFFCURVE",
"506 632 OFFCURVE",
"502 637 CURVE SMOOTH",
"499 640 OFFCURVE",
"496 644 OFFCURVE",
"494 648 CURVE SMOOTH",
"463 708 OFFCURVE",
"413 743 OFFCURVE",
"346 749 CURVE SMOOTH",
"295 754 OFFCURVE",
"250 737 OFFCURVE",
"212 703 CURVE SMOOTH",
"171 666 OFFCURVE",
"152 619 OFFCURVE",
"153 564 CURVE SMOOTH",
"153 467 OFFCURVE",
"152 371 OFFCURVE",
"153 274 CURVE SMOOTH",
"154 202 OFFCURVE",
"188 148 OFFCURVE",
"252 115 CURVE SMOOTH",
"319 80 OFFCURVE",
"395 93 OFFCURVE",
"450 140 CURVE SMOOTH",
"468 155 OFFCURVE",
"481 173 OFFCURVE",
"492 194 CURVE SMOOTH",
"495 198 OFFCURVE",
"497 203 OFFCURVE",
"501 207 CURVE SMOOTH",
"505 212 OFFCURVE",
"511 212 OFFCURVE",
"517 210 CURVE SMOOTH",
"524 208 OFFCURVE",
"527 202 OFFCURVE",
"526 196 CURVE SMOOTH",
"525 190 OFFCURVE",
"523 184 OFFCURVE",
"520 179 CURVE SMOOTH",
"485 112 OFFCURVE",
"430 73 OFFCURVE",
"355 65 CURVE SMOOTH",
"278 57 OFFCURVE",
"215 85 OFFCURVE",
"166 145 CURVE SMOOTH",
"137 181 OFFCURVE",
"122 224 OFFCURVE",
"121 271 CURVE SMOOTH",
"121 321 OFFCURVE",
"121 372 OFFCURVE",
"121 423 CURVE SMOOTH"
);
},
{
closed = 1;
nodes = (
"337 818 OFFCURVE",
"346 818 OFFCURVE",
"355 817 CURVE SMOOTH",
"435 809 OFFCURVE",
"496 771 OFFCURVE",
"541 702 CURVE SMOOTH",
"559 674 OFFCURVE",
"570 643 OFFCURVE",
"576 605 CURVE SMOOTH",
"576 604 OFFCURVE",
"576 603 OFFCURVE",
"576 602 CURVE",
"574 602 OFFCURVE",
"573 602 OFFCURVE",
"572 602 CURVE SMOOTH",
"557 602 OFFCURVE",
"542 602 OFFCURVE",
"526 602 CURVE SMOOTH",
"511 602 OFFCURVE",
"496 602 OFFCURVE",
"481 602 CURVE SMOOTH",
"479 602 OFFCURVE",
"476 602 OFFCURVE",
"473 603 CURVE",
"472 606 OFFCURVE",
"470 610 OFFCURVE",
"469 614 CURVE SMOOTH",
"465 624 OFFCURVE",
"461 635 OFFCURVE",
"455 645 CURVE SMOOTH",
"428 689 OFFCURVE",
"382 716 OFFCURVE",
"332 716 CURVE SMOOTH",
"300 716 OFFCURVE",
"269 705 OFFCURVE",
"244 685 CURVE SMOOTH",
"207 656 OFFCURVE",
"188 617 OFFCURVE",
"188 570 CURVE SMOOTH",
"187 456 OFFCURVE",
"187 363 OFFCURVE",
"188 279 CURVE SMOOTH",
"188 222 OFFCURVE",
"215 178 OFFCURVE",
"266 149 CURVE SMOOTH",
"285 139 OFFCURVE",
"307 133 OFFCURVE",
"330 133 CURVE SMOOTH",
"365 133 OFFCURVE",
"400 146 OFFCURVE",
"425 168 CURVE SMOOTH",
"446 187 OFFCURVE",
"461 210 OFFCURVE",
"471 240 CURVE SMOOTH",
"472 242 OFFCURVE",
"473 244 OFFCURVE",
"473 245 CURVE",
"474 245 OFFCURVE",
"475 245 OFFCURVE",
"477 245 CURVE SMOOTH",
"492 245 OFFCURVE",
"507 246 OFFCURVE",
"523 246 CURVE SMOOTH",
"539 246 OFFCURVE",
"557 245 OFFCURVE",
"575 245 CURVE",
"574 241 LINE SMOOTH",
"571 223 OFFCURVE",
"568 207 OFFCURVE",
"563 192 CURVE SMOOTH",
"544 140 OFFCURVE",
"510 97 OFFCURVE",
"461 67 CURVE SMOOTH",
"425 45 OFFCURVE",
"385 33 OFFCURVE",
"342 31 CURVE SMOOTH",
"339 31 OFFCURVE",
"335 31 OFFCURVE",
"331 31 CURVE SMOOTH",
"284 31 OFFCURVE",
"242 42 OFFCURVE",
"204 66 CURVE SMOOTH",
"137 108 OFFCURVE",
"99 167 OFFCURVE",
"88 245 CURVE SMOOTH",
"86 254 OFFCURVE",
"86 265 OFFCURVE",
"86 275 CURVE SMOOTH",
"86 312 OFFCURVE",
"86 349 OFFCURVE",
"86 385 CURVE SMOOTH",
"86 425 LINE SMOOTH",
"86 426 OFFCURVE",
"86 427 OFFCURVE",
"86 427 CURVE",
"86 442 OFFCURVE",
"86 457 OFFCURVE",
"86 472 CURVE SMOOTH",
"85 506 OFFCURVE",
"85 540 OFFCURVE",
"86 574 CURVE SMOOTH",
"88 671 OFFCURVE",
"132 742 OFFCURVE",
"218 790 CURVE SMOOTH",
"251 809 OFFCURVE",
"288 818 OFFCURVE",
"328 818 CURVE SMOOTH"
);
},
{
closed = 1;
nodes = (
"284 849 OFFCURVE",
"242 839 OFFCURVE",
"203 818 CURVE SMOOTH",
"108 765 OFFCURVE",
"57 684 OFFCURVE",
"55 574 CURVE SMOOTH",
"54 525 OFFCURVE",
"55 475 OFFCURVE",
"55 425 CURVE",
"55 425 OFFCURVE",
"55 425 OFFCURVE",
"55 425 CURVE",
"55 375 OFFCURVE",
"54 325 OFFCURVE",
"55 275 CURVE SMOOTH",
"55 263 OFFCURVE",
"55 252 OFFCURVE",
"57 240 CURVE SMOOTH",
"69 153 OFFCURVE",
"113 86 OFFCURVE",
"187 40 CURVE SMOOTH",
"232 12 OFFCURVE",
"280 -1 OFFCURVE",
"331 -1 CURVE SMOOTH",
"335 -1 OFFCURVE",
"339 0 OFFCURVE",
"343 0 CURVE SMOOTH",
"392 1 OFFCURVE",
"436 15 OFFCURVE",
"477 40 CURVE SMOOTH",
"532 74 OFFCURVE",
"571 121 OFFCURVE",
"592 182 CURVE SMOOTH",
"599 202 OFFCURVE",
"603 223 OFFCURVE",
"607 243 CURVE SMOOTH",
"609 253 OFFCURVE",
"607 264 OFFCURVE",
"598 270 CURVE SMOOTH",
"592 274 OFFCURVE",
"584 276 OFFCURVE",
"577 276 CURVE SMOOTH",
"559 277 OFFCURVE",
"541 277 OFFCURVE",
"523 277 CURVE SMOOTH",
"507 277 OFFCURVE",
"492 277 OFFCURVE",
"476 277 CURVE SMOOTH",
"456 276 OFFCURVE",
"447 269 OFFCURVE",
"441 250 CURVE SMOOTH",
"434 227 OFFCURVE",
"422 207 OFFCURVE",
"404 191 CURVE SMOOTH",
"385 174 OFFCURVE",
"357 165 OFFCURVE",
"330 165 CURVE SMOOTH",
"313 165 OFFCURVE",
"296 169 OFFCURVE",
"281 177 CURVE SMOOTH",
"241 199 OFFCURVE",
"219 233 OFFCURVE",
"219 279 CURVE SMOOTH",
"218 376 OFFCURVE",
"218 473 OFFCURVE",
"219 570 CURVE SMOOTH",
"219 607 OFFCURVE",
"234 638 OFFCURVE",
"264 661 CURVE SMOOTH",
"283 676 OFFCURVE",
"307 684 OFFCURVE",
"332 684 CURVE SMOOTH",
"368 684 OFFCURVE",
"405 666 OFFCURVE",
"428 629 CURVE SMOOTH",
"435 617 OFFCURVE",
"439 603 OFFCURVE",
"444 591 CURVE SMOOTH",
"448 581 OFFCURVE",
"455 575 OFFCURVE",
"465 573 CURVE SMOOTH",
"470 572 OFFCURVE",
"476 571 OFFCURVE",
"481 571 CURVE SMOOTH",
"496 571 OFFCURVE",
"511 571 OFFCURVE",
"526 571 CURVE SMOOTH",
"542 571 OFFCURVE",
"557 571 OFFCURVE",
"572 571 CURVE SMOOTH",
"577 571 OFFCURVE",
"582 572 OFFCURVE",
"587 573 CURVE SMOOTH",
"599 575 OFFCURVE",
"605 582 OFFCURVE",
"607 593 CURVE SMOOTH",
"607 599 OFFCURVE",
"607 605 OFFCURVE",
"607 610 CURVE SMOOTH",
"601 649 OFFCURVE",
"589 686 OFFCURVE",
"567 719 CURVE SMOOTH",
"518 795 OFFCURVE",
"448 839 OFFCURVE",
"358 848 CURVE SMOOTH",
"348 849 OFFCURVE",
"338 849 OFFCURVE",
"328 849 CURVE SMOOTH"
);
}
);
width = 659;
}
);
leftKerningGroup = "30";
rightKerningGroup = "30";
unicode = 0043;
},
{
glyphname = "D";
lastChange = "2013-07-19 15:22:19 -0500";
layers = (
{
layerId = "28EF9373-0834-4819-8430-40544DAC9A78";
name = "Light";
paths = (
{
closed = 1;
nodes = (
"124 533 OFFCURVE",
"124 642 OFFCURVE",
"124 751 CURVE SMOOTH",
"124 779 OFFCURVE",
"128 783 OFFCURVE",
"156 783 CURVE SMOOTH",
"215 783 OFFCURVE",
"274 783 OFFCURVE",
"332 783 CURVE SMOOTH",
"391 783 OFFCURVE",
"443 763 OFFCURVE",
"484 721 CURVE SMOOTH",
"524 682 OFFCURVE",
"545 634 OFFCURVE",
"545 579 CURVE SMOOTH",
"546 477 OFFCURVE",
"546 375 OFFCURVE",
"545 273 CURVE SMOOTH",
"545 171 OFFCURVE",
"466 82 OFFCURVE",
"365 69 CURVE SMOOTH",
"358 68 OFFCURVE",
"349 67 OFFCURVE",
"342 67 CURVE SMOOTH",
"279 67 OFFCURVE",
"216 67 OFFCURVE",
"152 67 CURVE SMOOTH",
"149 67 OFFCURVE",
"146 67 OFFCURVE",
"143 67 CURVE SMOOTH",
"131 68 OFFCURVE",
"125 74 OFFCURVE",
"124 86 CURVE SMOOTH",
"123 91 OFFCURVE",
"124 96 OFFCURVE",
"124 101 CURVE",
"124 209 OFFCURVE",
"124 317 OFFCURVE",
"124 425 CURVE SMOOTH"
);
},
{
closed = 1;
nodes = (
"155 326 OFFCURVE",
"155 226 OFFCURVE",
"155 126 CURVE SMOOTH",
"155 121 OFFCURVE",
"155 117 OFFCURVE",
"155 112 CURVE SMOOTH",
"156 104 OFFCURVE",
"160 100 OFFCURVE",
"169 99 CURVE SMOOTH",
"171 98 OFFCURVE",
"174 99 OFFCURVE",
"177 99 CURVE SMOOTH",
"232 98 OFFCURVE",
"286 98 OFFCURVE",
"340 99 CURVE SMOOTH",
"344 99 OFFCURVE",
"347 99 OFFCURVE",
"351 99 CURVE SMOOTH",
"445 109 OFFCURVE",
"513 185 OFFCURVE",
"513 278 CURVE SMOOTH",
"513 375 OFFCURVE",
"513 474 OFFCURVE",
"513 571 CURVE",
"513 576 OFFCURVE",
"513 582 OFFCURVE",
"512 588 CURVE SMOOTH",
"503 682 OFFCURVE",
"426 751 OFFCURVE",
"332 751 CURVE SMOOTH",
"282 752 OFFCURVE",
"231 751 OFFCURVE",
"180 751 CURVE SMOOTH",
"157 751 OFFCURVE",
"155 749 OFFCURVE",
"155 726 CURVE SMOOTH",
"155 625 OFFCURVE",
"155 525 OFFCURVE",
"155 425 CURVE SMOOTH"
);
},
{
closed = 1;
nodes = (
"281 818 OFFCURVE",
"312 818 OFFCURVE",
"341 818 CURVE SMOOTH",
"400 817 OFFCURVE",
"453 795 OFFCURVE",
"497 755 CURVE SMOOTH",
"543 713 OFFCURVE",
"568 664 OFFCURVE",
"576 603 CURVE SMOOTH",
"578 593 OFFCURVE",
"578 585 OFFCURVE",
"578 578 CURVE SMOOTH",
"578 553 OFFCURVE",
"579 526 OFFCURVE",
"579 501 CURVE SMOOTH",
"579 426 OFFCURVE",
"579 348 OFFCURVE",
"578 272 CURVE SMOOTH",
"577 208 OFFCURVE",
"555 153 OFFCURVE",
"509 106 CURVE SMOOTH",
"470 65 OFFCURVE",
"421 40 OFFCURVE",
"364 33 CURVE SMOOTH",
"355 32 OFFCURVE",
"345 31 OFFCURVE",
"333 31 CURVE SMOOTH",
"291 31 OFFCURVE",
"249 31 OFFCURVE",
"207 31 CURVE SMOOTH",
"177 31 OFFCURVE",
"148 31 OFFCURVE",
"119 31 CURVE SMOOTH",
"98 31 LINE SMOOTH",
"92 31 OFFCURVE",
"89 31 OFFCURVE",
"87 31 CURVE",
"87 34 OFFCURVE",
"86 37 OFFCURVE",
"86 41 CURVE",
"86 135 OFFCURVE",
"86 228 OFFCURVE",
"86 321 CURVE SMOOTH",
"86 425 LINE",
"86 491 LINE",
"86 596 OFFCURVE",
"86 701 OFFCURVE",
"86 806 CURVE SMOOTH",
"86 811 OFFCURVE",
"87 814 OFFCURVE",
"87 818 CURVE",
"89 818 OFFCURVE",
"91 818 OFFCURVE",
"93 818 CURVE SMOOTH",
"117 818 OFFCURVE",
"139 818 OFFCURVE",
"161 818 CURVE SMOOTH",
"189 818 OFFCURVE",
"216 818 OFFCURVE",
"242 818 CURVE SMOOTH"
);
},
{
closed = 1;
nodes = (
"258 715 LINE",
"257 715 LINE SMOOTH",
"213 715 OFFCURVE",
"190 692 OFFCURVE",
"189 647 CURVE SMOOTH",
"189 643 OFFCURVE",
"189 639 OFFCURVE",
"189 634 CURVE SMOOTH",
"189 630 LINE",
"189 494 LINE",
"189 425 LINE",
"189 384 LINE",
"189 214 LINE",
"189 210 LINE SMOOTH",
"189 205 OFFCURVE",
"189 200 OFFCURVE",
"189 195 CURVE SMOOTH",
"192 157 OFFCURVE",
"215 135 OFFCURVE",
"252 134 CURVE SMOOTH",
"263 134 OFFCURVE",
"275 134 OFFCURVE",
"286 134 CURVE SMOOTH",
"308 134 OFFCURVE",
"326 134 OFFCURVE",
"343 136 CURVE SMOOTH",
"391 139 OFFCURVE",
"430 163 OFFCURVE",
"457 206 CURVE SMOOTH",
"470 230 OFFCURVE",
"476 256 OFFCURVE",
"477 287 CURVE SMOOTH",
"477 372 OFFCURVE",
"477 457 OFFCURVE",
"477 545 CURVE SMOOTH",
"477 557 OFFCURVE",
"476 570 OFFCURVE",
"475 583 CURVE SMOOTH",
"470 653 OFFCURVE",
"414 708 OFFCURVE",
"345 714 CURVE SMOOTH",
"324 715 OFFCURVE",
"303 715 OFFCURVE",
"285 715 CURVE SMOOTH",
"276 715 LINE",
"266 715 LINE"
);
},
{
closed = 1;
nodes = (
"193 850 OFFCURVE",
"143 849 OFFCURVE",
"93 849 CURVE SMOOTH",
"88 849 OFFCURVE",
"82 849 OFFCURVE",
"77 848 CURVE SMOOTH",
"66 845 OFFCURVE",
"59 838 OFFCURVE",
"57 827 CURVE SMOOTH",
"56 821 OFFCURVE",
"55 814 OFFCURVE",
"55 806 CURVE SMOOTH",
"55 679 OFFCURVE",
"55 553 OFFCURVE",
"55 425 CURVE SMOOTH",
"55 298 OFFCURVE",
"55 170 OFFCURVE",
"55 41 CURVE SMOOTH",
"55 8 OFFCURVE",
"64 0 OFFCURVE",
"98 0 CURVE SMOOTH",
"134 0 OFFCURVE",
"170 0 OFFCURVE",
"207 0 CURVE SMOOTH",
"249 0 OFFCURVE",
"291 0 OFFCURVE",
"333 0 CURVE SMOOTH",
"344 0 OFFCURVE",
"357 0 OFFCURVE",
"368 2 CURVE SMOOTH",
"431 10 OFFCURVE",
"487 37 OFFCURVE",
"533 85 CURVE SMOOTH",
"582 137 OFFCURVE",
"610 199 OFFCURVE",
"610 272 CURVE SMOOTH",
"612 373 OFFCURVE",
"611 476 OFFCURVE",
"611 578 CURVE SMOOTH",
"611 587 OFFCURVE",
"610 597 OFFCURVE",
"608 607 CURVE SMOOTH",
"599 675 OFFCURVE",
"569 732 OFFCURVE",
"518 778 CURVE SMOOTH",
"469 824 OFFCURVE",
"409 848 OFFCURVE",
"341 849 CURVE SMOOTH",
"309 850 OFFCURVE",
"276 850 OFFCURVE",
"242 850 CURVE SMOOTH"
);
},
{
closed = 1;
nodes = (
"273 684 OFFCURVE",
"279 684 OFFCURVE",
"285 684 CURVE SMOOTH",
"304 684 OFFCURVE",
"324 684 OFFCURVE",
"343 682 CURVE SMOOTH",
"396 678 OFFCURVE",
"440 633 OFFCURVE",
"444 581 CURVE SMOOTH",
"445 569 OFFCURVE",
"445 557 OFFCURVE",
"445 545 CURVE SMOOTH",
"445 459 OFFCURVE",
"446 373 OFFCURVE",
"445 287 CURVE SMOOTH",
"445 265 OFFCURVE",
"441 243 OFFCURVE",
"429 223 CURVE SMOOTH",
"409 189 OFFCURVE",
"380 169 OFFCURVE",
"340 167 CURVE SMOOTH",
"322 166 OFFCURVE",
"304 165 OFFCURVE",
"286 165 CURVE SMOOTH",
"275 165 OFFCURVE",
"263 165 OFFCURVE",
"253 165 CURVE SMOOTH",
"231 166 OFFCURVE",
"222 175 OFFCURVE",
"221 197 CURVE SMOOTH",
"220 202 OFFCURVE",
"220 208 OFFCURVE",
"220 214 CURVE SMOOTH",
"220 284 OFFCURVE",
"220 354 OFFCURVE",
"220 425 CURVE SMOOTH",
"220 494 OFFCURVE",
"220 562 OFFCURVE",
"220 630 CURVE SMOOTH",
"220 635 OFFCURVE",
"220 642 OFFCURVE",
"220 647 CURVE SMOOTH",
"221 674 OFFCURVE",
"230 684 OFFCURVE",
"257 684 CURVE SMOOTH",
"257 684 OFFCURVE",
"258 684 OFFCURVE",
"258 684 CURVE SMOOTH",
"260 684 OFFCURVE",
"263 684 OFFCURVE",
"266 684 CURVE SMOOTH"
);
}
);
width = 665;
}
);
leftKerningGroup = "30";
rightKerningGroup = "30";
unicode = 0044;
},
{
glyphname = "E";
lastChange = "2013-07-19 15:22:23 -0500";
layers = (
{
layerId = "28EF9373-0834-4819-8430-40544DAC9A78";
name = "Light";
paths = (
{
closed = 1;
nodes = (
"128 535 OFFCURVE",
"128 644 OFFCURVE",
"128 753 CURVE SMOOTH",
"128 780 OFFCURVE",
"132 784 OFFCURVE",
"159 784 CURVE SMOOTH",
"248 784 OFFCURVE",
"330 784 OFFCURVE",
"419 784 CURVE SMOOTH",
"425 784 OFFCURVE",
"431 784 OFFCURVE",
"436 782 CURVE SMOOTH",
"442 781 OFFCURVE",
"446 776 OFFCURVE",
"446 769 CURVE SMOOTH",
"446 762 OFFCURVE",
"443 756 OFFCURVE",
"436 755 CURVE SMOOTH",
"431 753 OFFCURVE",
"425 753 OFFCURVE",
"419 753 CURVE SMOOTH",
"339 753 OFFCURVE",
"266 753 OFFCURVE",
"186 753 CURVE SMOOTH",
"162 753 OFFCURVE",
"159 750 OFFCURVE",
"159 726 CURVE SMOOTH",
"159 642 OFFCURVE",
"159 559 OFFCURVE",
"159 475 CURVE SMOOTH",
"159 472 OFFCURVE",
"159 470 OFFCURVE",
"159 467 CURVE SMOOTH",
"160 453 OFFCURVE",
"164 449 OFFCURVE",
"179 448 CURVE SMOOTH",
"225 448 OFFCURVE",
"266 448 OFFCURVE",
"312 448 CURVE SMOOTH",
"317 448 OFFCURVE",
"322 448 OFFCURVE",
"327 447 CURVE SMOOTH",
"335 445 OFFCURVE",
"339 440 OFFCURVE",
"339 433 CURVE SMOOTH",
"339 425 OFFCURVE",
"335 420 OFFCURVE",
"328 418 CURVE SMOOTH",
"322 416 OFFCURVE",
"316 415 OFFCURVE",
"310 415 CURVE SMOOTH",
"267 415 OFFCURVE",
"231 415 OFFCURVE",
"188 415 CURVE SMOOTH",
"184 415 OFFCURVE",
"180 415 OFFCURVE",
"176 415 CURVE SMOOTH",
"165 414 OFFCURVE",
"160 410 OFFCURVE",
"160 399 CURVE SMOOTH",
"159 396 OFFCURVE",
"159 393 OFFCURVE",
"159 390 CURVE SMOOTH",
"159 302 OFFCURVE",
"159 214 OFFCURVE",
"159 125 CURVE SMOOTH",
"159 125 OFFCURVE",
"159 124 OFFCURVE",
"159 124 CURVE SMOOTH",
"160 104 OFFCURVE",
"163 101 OFFCURVE",
"183 101 CURVE SMOOTH",
"266 100 OFFCURVE",
"342 101 OFFCURVE",
"425 100 CURVE SMOOTH",
"430 100 OFFCURVE",
"436 101 OFFCURVE",
"441 100 CURVE SMOOTH",
"446 99 OFFCURVE",
"452 98 OFFCURVE",
"456 95 CURVE SMOOTH",
"466 87 OFFCURVE",
"463 73 OFFCURVE",
"451 69 CURVE SMOOTH",
"448 68 OFFCURVE",
"443 67 OFFCURVE",
"439 67 CURVE SMOOTH",
"341 67 OFFCURVE",
"250 67 OFFCURVE",
"151 67 CURVE SMOOTH",
"134 67 OFFCURVE",
"128 74 OFFCURVE",
"128 92 CURVE SMOOTH",
"128 204 OFFCURVE",
"128 315 OFFCURVE",
"128 427 CURVE",
"128 427 OFFCURVE",
"128 427 OFFCURVE",
"128 427 CURVE"
);
},
{
closed = 1;
nodes = (
"423 819 LINE",
"469 819 LINE",
"469 819 LINE SMOOTH",
"471 819 OFFCURVE",
"473 819 OFFCURVE",
"474 819 CURVE SMOOTH",
"475 819 OFFCURVE",
"475 819 OFFCURVE",
"476 819 CURVE",
"476 818 OFFCURVE",
"476 818 OFFCURVE",
"476 818 CURVE SMOOTH",
"477 785 OFFCURVE",
"477 751 OFFCURVE",
"476 718 CURVE SMOOTH",
"476 718 OFFCURVE",
"476 718 OFFCURVE",
"476 717 CURVE",
"475 717 OFFCURVE",
"475 717 OFFCURVE",
"474 717 CURVE SMOOTH",
"471 717 OFFCURVE",
"468 717 OFFCURVE",
"463 717 CURVE SMOOTH",
"461 717 OFFCURVE",
"459 717 OFFCURVE",
"458 717 CURVE SMOOTH",
"455 717 OFFCURVE",
"453 717 OFFCURVE",
"451 717 CURVE SMOOTH",
"323 717 LINE",
"273 717 LINE",
"269 717 LINE",
"266 717 LINE SMOOTH",
"263 717 OFFCURVE",
"260 717 OFFCURVE",
"256 717 CURVE SMOOTH",
"212 716 OFFCURVE",
"189 693 OFFCURVE",
"189 649 CURVE SMOOTH",
"188 620 OFFCURVE",
"188 589 OFFCURVE",
"189 555 CURVE SMOOTH",
"189 548 OFFCURVE",
"189 540 OFFCURVE",
"191 533 CURVE SMOOTH",
"196 510 OFFCURVE",
"212 493 OFFCURVE",
"235 489 CURVE SMOOTH",
"243 487 OFFCURVE",
"251 486 OFFCURVE",
"258 486 CURVE SMOOTH",
"277 486 OFFCURVE",
"295 486 OFFCURVE",
"313 486 CURVE SMOOTH",
"323 486 LINE",
"334 486 LINE",
"347 486 LINE",
"348 486 LINE",
"349 486 LINE",
"350 486 LINE SMOOTH",
"352 486 OFFCURVE",
"354 486 OFFCURVE",
"356 486 CURVE SMOOTH",
"357 486 OFFCURVE",
"358 486 OFFCURVE",
"359 486 CURVE",
"359 485 OFFCURVE",
"359 484 OFFCURVE",
"359 483 CURVE SMOOTH",
"360 452 OFFCURVE",
"360 420 OFFCURVE",
"359 386 CURVE SMOOTH",
"359 385 OFFCURVE",
"359 384 OFFCURVE",
"359 383 CURVE",
"358 383 OFFCURVE",
"357 383 OFFCURVE",
"356 383 CURVE SMOOTH",
"345 383 OFFCURVE",
"334 383 OFFCURVE",
"319 383 CURVE SMOOTH",
"312 383 OFFCURVE",
"305 383 OFFCURVE",
"299 383 CURVE SMOOTH",
"292 383 OFFCURVE",
"286 383 OFFCURVE",
"279 383 CURVE SMOOTH",
"273 383 LINE",
"272 383 LINE",
"268 383 LINE",
"263 383 LINE SMOOTH",
"260 383 OFFCURVE",
"256 383 OFFCURVE",
"253 383 CURVE SMOOTH",
"213 381 OFFCURVE",
"189 358 OFFCURVE",
"189 318 CURVE SMOOTH",
"188 278 OFFCURVE",
"188 238 OFFCURVE",
"189 200 CURVE SMOOTH",
"189 159 OFFCURVE",
"214 135 OFFCURVE",
"256 135 CURVE SMOOTH",
"293 135 OFFCURVE",
"320 135 OFFCURVE",
"349 135 CURVE SMOOTH",
"378 135 LINE",
"414 135 LINE",
"434 135 LINE SMOOTH",
"450 135 OFFCURVE",
"466 135 OFFCURVE",
"482 135 CURVE SMOOTH",
"483 135 LINE",
"484 135 LINE SMOOTH",
"486 135 OFFCURVE",
"487 135 OFFCURVE",
"489 135 CURVE SMOOTH",
"490 135 OFFCURVE",
"490 135 OFFCURVE",
"491 135 CURVE",
"491 135 OFFCURVE",
"491 134 OFFCURVE",
"491 134 CURVE SMOOTH",
"492 101 OFFCURVE",
"492 67 OFFCURVE",
"491 33 CURVE SMOOTH",
"491 33 OFFCURVE",
"491 33 OFFCURVE",
"491 32 CURVE",
"490 32 OFFCURVE",
"489 32 OFFCURVE",
"489 32 CURVE SMOOTH",
"486 32 OFFCURVE",
"483 32 OFFCURVE",
"481 32 CURVE SMOOTH",
"478 32 LINE",
"474 32 LINE",
"424 32 LINE",
"355 32 LINE SMOOTH",
"271 32 OFFCURVE",
"192 32 OFFCURVE",
"98 32 CURVE SMOOTH",
"94 32 OFFCURVE",
"91 32 OFFCURVE",
"87 33 CURVE",
"87 36 OFFCURVE",
"87 39 OFFCURVE",
"87 43 CURVE SMOOTH",
"87 147 OFFCURVE",
"87 251 OFFCURVE",
"87 355 CURVE SMOOTH",
"87 426 LINE",
"87 497 LINE",
"87 600 OFFCURVE",
"87 704 OFFCURVE",
"87 808 CURVE SMOOTH",
"87 812 OFFCURVE",
"87 815 OFFCURVE",
"87 818 CURVE",
"90 819 OFFCURVE",
"92 819 OFFCURVE",
"94 819 CURVE SMOOTH",
"182 819 OFFCURVE",
"257 819 OFFCURVE",
"336 819 CURVE SMOOTH"
);
},
{
closed = 1;
nodes = (
"257 850 OFFCURVE",
"182 850 OFFCURVE",
"94 850 CURVE SMOOTH",
"88 850 OFFCURVE",
"82 850 OFFCURVE",
"77 848 CURVE SMOOTH",
"66 846 OFFCURVE",
"59 839 OFFCURVE",
"57 829 CURVE SMOOTH",
"56 822 OFFCURVE",
"55 815 OFFCURVE",
"55 808 CURVE SMOOTH",
"55 681 OFFCURVE",
"55 553 OFFCURVE",
"55 426 CURVE SMOOTH",
"55 298 OFFCURVE",
"55 171 OFFCURVE",
"55 43 CURVE SMOOTH",
"55 36 OFFCURVE",
"56 29 OFFCURVE",
"57 22 CURVE SMOOTH",
"59 11 OFFCURVE",
"66 4 OFFCURVE",
"77 2 CURVE SMOOTH",
"84 1 OFFCURVE",
"91 0 OFFCURVE",
"98 0 CURVE SMOOTH",
"192 0 OFFCURVE",
"271 0 OFFCURVE",
"355 0 CURVE SMOOTH",
"393 0 OFFCURVE",
"432 0 OFFCURVE",
"474 0 CURVE SMOOTH",
"476 0 OFFCURVE",
"479 0 OFFCURVE",
"481 0 CURVE SMOOTH",
"484 0 OFFCURVE",
"487 0 OFFCURVE",
"490 1 CURVE SMOOTH",
"512 2 OFFCURVE",
"522 11 OFFCURVE",
"522 33 CURVE SMOOTH",
"523 67 OFFCURVE",
"523 101 OFFCURVE",
"522 135 CURVE SMOOTH",
"522 156 OFFCURVE",
"512 165 OFFCURVE",
"491 166 CURVE SMOOTH",
"488 167 OFFCURVE",
"486 167 OFFCURVE",
"484 167 CURVE SMOOTH",
"483 167 OFFCURVE",
"483 167 OFFCURVE",
"483 167 CURVE SMOOTH",
"483 167 OFFCURVE",
"482 167 OFFCURVE",
"482 167 CURVE SMOOTH",
"466 167 OFFCURVE",
"450 167 OFFCURVE",
"434 167 CURVE SMOOTH",
"427 167 OFFCURVE",
"420 167 OFFCURVE",
"414 167 CURVE SMOOTH",
"390 167 OFFCURVE",
"369 167 OFFCURVE",
"349 167 CURVE SMOOTH",
"320 167 OFFCURVE",
"293 167 OFFCURVE",
"256 167 CURVE SMOOTH",
"231 167 OFFCURVE",
"221 177 OFFCURVE",
"220 200 CURVE SMOOTH",
"220 239 OFFCURVE",
"220 278 OFFCURVE",
"220 318 CURVE SMOOTH",
"221 341 OFFCURVE",
"231 350 OFFCURVE",
"254 351 CURVE SMOOTH",
"257 351 OFFCURVE",
"260 351 OFFCURVE",
"263 351 CURVE SMOOTH",
"266 351 OFFCURVE",
"269 351 OFFCURVE",
"272 351 CURVE SMOOTH",
"272 351 OFFCURVE",
"273 351 OFFCURVE",
"273 351 CURVE SMOOTH",
"275 351 OFFCURVE",
"277 351 OFFCURVE",
"279 351 CURVE SMOOTH",
"292 351 OFFCURVE",
"305 351 OFFCURVE",
"319 351 CURVE SMOOTH",
"331 351 OFFCURVE",
"344 351 OFFCURVE",
"357 352 CURVE SMOOTH",
"380 352 OFFCURVE",
"390 362 OFFCURVE",
"391 386 CURVE SMOOTH",
"391 418 OFFCURVE",
"391 451 OFFCURVE",
"391 484 CURVE SMOOTH",
"390 507 OFFCURVE",
"380 517 OFFCURVE",
"357 517 CURVE SMOOTH",
"355 518 OFFCURVE",
"352 518 OFFCURVE",
"350 518 CURVE SMOOTH",
"349 518 OFFCURVE",
"349 518 OFFCURVE",
"348 518 CURVE SMOOTH",
"348 518 OFFCURVE",
"347 518 OFFCURVE",
"347 518 CURVE SMOOTH",
"343 518 OFFCURVE",
"338 518 OFFCURVE",
"334 518 CURVE SMOOTH",
"327 518 OFFCURVE",
"320 518 OFFCURVE",
"313 518 CURVE SMOOTH",
"295 518 OFFCURVE",
"277 518 OFFCURVE",
"259 518 CURVE SMOOTH",
"253 518 OFFCURVE",
"247 518 OFFCURVE",
"241 520 CURVE SMOOTH",
"231 522 OFFCURVE",
"224 528 OFFCURVE",
"222 539 CURVE SMOOTH",
"221 544 OFFCURVE",
"220 550 OFFCURVE",
"220 555 CURVE SMOOTH",
"220 586 OFFCURVE",
"220 617 OFFCURVE",
"220 649 CURVE SMOOTH",
"220 675 OFFCURVE",
"230 685 OFFCURVE",
"257 686 CURVE SMOOTH",
"260 686 OFFCURVE",
"263 686 OFFCURVE",
"266 686 CURVE SMOOTH",
"268 686 OFFCURVE",
"270 686 OFFCURVE",
"273 686 CURVE SMOOTH",
"343 686 OFFCURVE",
"381 686 OFFCURVE",
"451 686 CURVE SMOOTH",
"455 686 OFFCURVE",
"459 686 OFFCURVE",
"463 686 CURVE SMOOTH",
"467 686 OFFCURVE",
"471 686 OFFCURVE",
"476 686 CURVE SMOOTH",
"497 687 OFFCURVE",
"507 696 OFFCURVE",
"507 717 CURVE SMOOTH",
"508 751 OFFCURVE",
"508 785 OFFCURVE",
"507 819 CURVE SMOOTH",
"507 840 OFFCURVE",
"497 849 OFFCURVE",
"476 850 CURVE SMOOTH",
"474 850 OFFCURVE",
"471 850 OFFCURVE",
"469 850 CURVE SMOOTH",
"469 850 OFFCURVE",
"469 850 OFFCURVE",
"469 850 CURVE SMOOTH",
"421 850 OFFCURVE",
"378 850 OFFCURVE",
"336 850 CURVE SMOOTH"
);
}
);
width = 578;
}
);
leftKerningGroup = "30";
rightKerningGroup = "30";
unicode = 0045;
},
{
glyphname = "F";
lastChange = "2013-07-19 15:22:26 -0500";
layers = (
{
layerId = "28EF9373-0834-4819-8430-40544DAC9A78";
name = "Light";
paths = (
{
closed = 1;
nodes = (
"124 531 OFFCURVE",
"124 642 OFFCURVE",
"124 753 CURVE SMOOTH",
"124 780 OFFCURVE",
"128 784 OFFCURVE",
"155 784 CURVE SMOOTH",
"244 784 OFFCURVE",
"337 784 OFFCURVE",
"425 784 CURVE SMOOTH",
"431 784 OFFCURVE",
"437 784 OFFCURVE",
"442 782 CURVE SMOOTH",
"449 781 OFFCURVE",
"453 776 OFFCURVE",
"453 769 CURVE SMOOTH",
"453 762 OFFCURVE",
"449 756 OFFCURVE",
"443 755 CURVE SMOOTH",
"437 753 OFFCURVE",
"431 753 OFFCURVE",
"425 753 CURVE SMOOTH",
"346 753 OFFCURVE",
"262 753 OFFCURVE",
"182 753 CURVE SMOOTH",
"158 753 OFFCURVE",
"156 750 OFFCURVE",
"156 726 CURVE SMOOTH",
"156 642 OFFCURVE",
"156 559 OFFCURVE",
"156 475 CURVE SMOOTH",
"156 474 OFFCURVE",
"156 473 OFFCURVE",
"156 473 CURVE SMOOTH",
"156 451 OFFCURVE",
"158 448 OFFCURVE",
"180 448 CURVE SMOOTH",
"221 448 OFFCURVE",
"266 448 OFFCURVE",
"307 448 CURVE SMOOTH",
"311 448 OFFCURVE",
"316 448 OFFCURVE",
"320 447 CURVE SMOOTH",
"328 446 OFFCURVE",
"333 440 OFFCURVE",
"333 433 CURVE SMOOTH",
"333 426 OFFCURVE",
"328 419 OFFCURVE",
"321 417 CURVE SMOOTH",
"315 416 OFFCURVE",
"310 415 OFFCURVE",
"304 415 CURVE SMOOTH",
"264 415 OFFCURVE",
"221 415 OFFCURVE",
"181 415 CURVE SMOOTH",
"177 415 OFFCURVE",
"173 415 OFFCURVE",
"170 415 CURVE SMOOTH",
"161 414 OFFCURVE",
"157 410 OFFCURVE",
"156 401 CURVE SMOOTH",
"155 396 OFFCURVE",
"156 392 OFFCURVE",
"156 387 CURVE SMOOTH",
"156 286 OFFCURVE",
"156 185 OFFCURVE",
"155 84 CURVE SMOOTH",
"155 78 OFFCURVE",
"155 73 OFFCURVE",
"154 67 CURVE SMOOTH",
"152 59 OFFCURVE",
"146 55 OFFCURVE",
"139 55 CURVE SMOOTH",
"131 56 OFFCURVE",
"127 60 OFFCURVE",
"125 67 CURVE SMOOTH",
"124 73 OFFCURVE",
"124 79 OFFCURVE",
"124 85 CURVE",
"124 196 OFFCURVE",
"124 308 OFFCURVE",
"124 420 CURVE SMOOTH"
);
},
{
closed = 1;
nodes = (
"436 819 LINE",
"476 819 LINE SMOOTH",
"478 819 OFFCURVE",
"480 819 OFFCURVE",
"481 819 CURVE SMOOTH",
"482 819 OFFCURVE",
"483 819 OFFCURVE",
"483 819 CURVE",
"483 819 OFFCURVE",
"483 819 OFFCURVE",
"483 818 CURVE",
"484 786 OFFCURVE",
"484 752 OFFCURVE",
"483 718 CURVE SMOOTH",
"483 718 OFFCURVE",
"483 718 OFFCURVE",
"483 717 CURVE",
"483 717 OFFCURVE",
"482 717 OFFCURVE",
"481 717 CURVE SMOOTH",
"479 717 OFFCURVE",
"476 717 OFFCURVE",
"472 717 CURVE SMOOTH",
"470 717 OFFCURVE",
"468 717 OFFCURVE",
"467 717 CURVE SMOOTH",
"465 717 OFFCURVE",
"463 717 OFFCURVE",
"461 717 CURVE SMOOTH",
"340 717 LINE",
"272 717 LINE",
"268 717 LINE",
"264 717 LINE SMOOTH",
"261 717 OFFCURVE",
"257 717 OFFCURVE",
"254 717 CURVE SMOOTH",
"213 716 OFFCURVE",
"189 692 OFFCURVE",
"189 651 CURVE SMOOTH",
"189 620 OFFCURVE",
"189 588 OFFCURVE",
"189 552 CURVE SMOOTH",
"189 541 OFFCURVE",
"189 512 OFFCURVE",
"217 497 CURVE SMOOTH",
"228 490 OFFCURVE",
"242 487 OFFCURVE",
"256 486 CURVE SMOOTH",
"272 486 OFFCURVE",
"288 486 OFFCURVE",
"302 486 CURVE SMOOTH",
"318 486 LINE",
"334 486 LINE SMOOTH",
"340 486 OFFCURVE",
"346 486 OFFCURVE",
"351 486 CURVE SMOOTH",
"354 486 OFFCURVE",
"356 486 OFFCURVE",
"359 485 CURVE",
"359 483 OFFCURVE",
"359 481 OFFCURVE",
"359 479 CURVE SMOOTH",
"360 457 OFFCURVE",
"360 435 OFFCURVE",
"360 413 CURVE SMOOTH",
"360 390 LINE",
"360 388 LINE SMOOTH",
"360 386 OFFCURVE",
"359 384 OFFCURVE",
"359 383 CURVE",
"358 383 OFFCURVE",
"357 383 OFFCURVE",
"355 383 CURVE SMOOTH",
"339 383 OFFCURVE",
"324 383 OFFCURVE",
"308 383 CURVE SMOOTH",
"302 383 LINE",
"296 383 LINE SMOOTH",
"284 383 OFFCURVE",
"272 383 OFFCURVE",
"260 383 CURVE SMOOTH",
"252 383 OFFCURVE",
"245 382 OFFCURVE",
"238 381 CURVE SMOOTH",
"212 376 OFFCURVE",
"195 359 OFFCURVE",
"191 334 CURVE SMOOTH",
"189 326 OFFCURVE",
"189 319 OFFCURVE",
"189 311 CURVE SMOOTH",
"189 253 OFFCURVE",
"189 195 OFFCURVE",
"189 137 CURVE SMOOTH",
"189 43 LINE SMOOTH",
"189 38 OFFCURVE",
"188 35 OFFCURVE",
"188 32 CURVE",
"186 32 OFFCURVE",
"182 32 OFFCURVE",
"177 32 CURVE SMOOTH",
"167 32 OFFCURVE",
"157 32 OFFCURVE",
"147 32 CURVE SMOOTH",
"117 32 LINE",
"98 32 LINE",
"97 32 LINE",
"95 32 LINE SMOOTH",
"94 32 OFFCURVE",
"92 32 OFFCURVE",
"90 32 CURVE SMOOTH",
"89 32 OFFCURVE",
"88 32 OFFCURVE",
"87 32 CURVE",
"87 33 OFFCURVE",
"87 34 OFFCURVE",
"87 35 CURVE SMOOTH",
"87 41 OFFCURVE",
"87 47 OFFCURVE",
"87 53 CURVE SMOOTH",
"87 55 OFFCURVE",
"87 57 OFFCURVE",
"87 59 CURVE",
"87 424 LINE",
"87 425 OFFCURVE",
"87 425 OFFCURVE",
"87 425 CURVE SMOOTH",
"87 494 LINE",
"87 598 OFFCURVE",
"87 703 OFFCURVE",
"87 807 CURVE SMOOTH",
"87 811 OFFCURVE",
"87 815 OFFCURVE",
"88 818 CURVE",
"90 819 OFFCURVE",
"92 819 OFFCURVE",
"94 819 CURVE SMOOTH",
"173 819 OFFCURVE",
"252 819 OFFCURVE",
"331 819 CURVE SMOOTH"
);
},
{
closed = 1;
nodes = (
"252 850 OFFCURVE",
"173 850 OFFCURVE",
"94 850 CURVE SMOOTH",
"88 850 OFFCURVE",
"82 850 OFFCURVE",
"76 848 CURVE SMOOTH",
"66 846 OFFCURVE",
"59 839 OFFCURVE",
"57 829 CURVE SMOOTH",
"56 822 OFFCURVE",
"55 815 OFFCURVE",
"55 807 CURVE SMOOTH",
"55 680 OFFCURVE",
"55 553 OFFCURVE",
"55 425 CURVE",
"55 425 OFFCURVE",
"55 425 OFFCURVE",
"55 425 CURVE",
"55 303 OFFCURVE",
"55 181 OFFCURVE",
"55 59 CURVE SMOOTH",
"55 51 OFFCURVE",
"55 42 OFFCURVE",
"56 34 CURVE SMOOTH",
"56 11 OFFCURVE",
"66 1 OFFCURVE",
"89 0 CURVE SMOOTH",
"91 0 OFFCURVE",
"93 0 OFFCURVE",
"95 0 CURVE SMOOTH",
"96 0 OFFCURVE",
"97 0 OFFCURVE",
"98 0 CURVE SMOOTH",
"114 0 OFFCURVE",
"130 0 OFFCURVE",
"147 0 CURVE SMOOTH",
"157 0 OFFCURVE",
"167 0 OFFCURVE",
"177 0 CURVE SMOOTH",
"212 0 OFFCURVE",
"220 9 OFFCURVE",
"220 43 CURVE SMOOTH",
"220 132 OFFCURVE",
"220 221 OFFCURVE",
"220 310 CURVE SMOOTH",
"220 316 OFFCURVE",
"221 323 OFFCURVE",
"222 329 CURVE SMOOTH",
"224 341 OFFCURVE",
"231 347 OFFCURVE",
"243 350 CURVE SMOOTH",
"249 351 OFFCURVE",
"254 351 OFFCURVE",
"260 351 CURVE SMOOTH",
"272 351 OFFCURVE",
"284 351 OFFCURVE",
"296 351 CURVE SMOOTH",
"300 351 OFFCURVE",
"304 351 OFFCURVE",
"308 351 CURVE SMOOTH",
"324 351 OFFCURVE",
"339 351 OFFCURVE",
"355 351 CURVE SMOOTH",
"381 352 OFFCURVE",
"391 362 OFFCURVE",
"391 388 CURVE SMOOTH",
"391 388 OFFCURVE",
"391 389 OFFCURVE",
"391 390 CURVE SMOOTH",
"391 420 OFFCURVE",
"391 449 OFFCURVE",
"391 479 CURVE SMOOTH",
"391 484 OFFCURVE",
"390 490 OFFCURVE",
"389 495 CURVE SMOOTH",
"387 506 OFFCURVE",
"380 514 OFFCURVE",
"369 516 CURVE SMOOTH",
"363 517 OFFCURVE",
"357 517 OFFCURVE",
"351 517 CURVE SMOOTH",
"346 518 OFFCURVE",
"340 518 OFFCURVE",
"334 518 CURVE SMOOTH",
"324 518 OFFCURVE",
"313 518 OFFCURVE",
"302 518 CURVE SMOOTH",
"287 518 OFFCURVE",
"272 518 OFFCURVE",
"257 518 CURVE SMOOTH",
"248 518 OFFCURVE",
"239 520 OFFCURVE",
"232 524 CURVE SMOOTH",
"221 530 OFFCURVE",
"220 542 OFFCURVE",
"220 552 CURVE SMOOTH",
"220 585 OFFCURVE",
"220 618 OFFCURVE",
"220 651 CURVE SMOOTH",
"221 675 OFFCURVE",
"231 685 OFFCURVE",
"255 686 CURVE SMOOTH",
"258 686 OFFCURVE",
"261 686 OFFCURVE",
"264 686 CURVE SMOOTH",
"267 686 OFFCURVE",
"269 686 OFFCURVE",
"272 686 CURVE SMOOTH",
"335 686 OFFCURVE",
"398 686 OFFCURVE",
"461 686 CURVE SMOOTH",
"464 686 OFFCURVE",
"468 686 OFFCURVE",
"472 686 CURVE SMOOTH",
"476 686 OFFCURVE",
"480 686 OFFCURVE",
"483 686 CURVE SMOOTH",
"504 687 OFFCURVE",
"514 696 OFFCURVE",
"515 717 CURVE SMOOTH",
"516 751 OFFCURVE",
"516 785 OFFCURVE",
"515 819 CURVE SMOOTH",
"514 840 OFFCURVE",
"504 848 OFFCURVE",
"484 850 CURVE SMOOTH",
"481 850 OFFCURVE",
"479 850 OFFCURVE",
"476 850 CURVE SMOOTH",
"428 850 OFFCURVE",
"380 850 OFFCURVE",
"331 850 CURVE SMOOTH"
);
}
);
width = 516;
}
);
leftKerningGroup = "30";
rightKerningGroup = "30";
unicode = 0046;
},
{
glyphname = "G";
lastChange = "2013-07-19 15:22:30 -0500";
layers = (
{
layerId = "28EF9373-0834-4819-8430-40544DAC9A78";
name = "Light";
paths = (
{
closed = 1;
nodes = (
"120 475 OFFCURVE",
"119 525 OFFCURVE",
"120 575 CURVE SMOOTH",
"122 665 OFFCURVE",
"165 729 OFFCURVE",
"245 766 CURVE SMOOTH",
"320 802 OFFCURVE",
"414 787 OFFCURVE",
"479 721 CURVE SMOOTH",
"494 705 OFFCURVE",
"507 687 OFFCURVE",
"516 668 CURVE SMOOTH",
"518 663 OFFCURVE",
"519 656 OFFCURVE",
"520 651 CURVE SMOOTH",
"520 645 OFFCURVE",
"516 641 OFFCURVE",
"511 639 CURVE SMOOTH",
"505 637 OFFCURVE",
"499 637 OFFCURVE",
"495 642 CURVE SMOOTH",
"491 646 OFFCURVE",
"488 650 OFFCURVE",
"486 654 CURVE SMOOTH",
"453 715 OFFCURVE",
"402 750 OFFCURVE",
"332 753 CURVE SMOOTH",
"288 755 OFFCURVE",
"250 739 OFFCURVE",
"216 710 CURVE SMOOTH",
"179 678 OFFCURVE",
"158 638 OFFCURVE",
"153 590 CURVE SMOOTH",
"152 578 OFFCURVE",
"152 566 OFFCURVE",
"152 555 CURVE SMOOTH",
"152 465 OFFCURVE",
"152 375 OFFCURVE",
"152 284 CURVE SMOOTH",
"152 245 OFFCURVE",
"162 209 OFFCURVE",
"184 176 CURVE SMOOTH",
"243 91 OFFCURVE",
"361 73 OFFCURVE",
"440 139 CURVE SMOOTH",
"484 176 OFFCURVE",
"504 222 OFFCURVE",
"505 279 CURVE SMOOTH",
"505 293 OFFCURVE",
"505 300 OFFCURVE",
"505 314 CURVE SMOOTH",
"505 328 OFFCURVE",
"500 332 OFFCURVE",
"487 332 CURVE SMOOTH",
"465 332 OFFCURVE",
"436 332 OFFCURVE",
"413 332 CURVE SMOOTH",
"408 333 OFFCURVE",
"403 334 OFFCURVE",
"398 336 CURVE SMOOTH",
"392 338 OFFCURVE",
"389 343 OFFCURVE",
"389 351 CURVE SMOOTH",
"390 357 OFFCURVE",
"393 361 OFFCURVE",
"399 363 CURVE SMOOTH",
"403 364 OFFCURVE",
"407 365 OFFCURVE",
"410 365 CURVE SMOOTH",
"443 365 OFFCURVE",
"482 365 OFFCURVE",
"514 365 CURVE SMOOTH",
"531 365 OFFCURVE",
"538 359 OFFCURVE",
"538 341 CURVE SMOOTH",
"537 306 OFFCURVE",
"539 278 OFFCURVE",
"535 243 CURVE SMOOTH",
"522 150 OFFCURVE",
"444 77 OFFCURVE",
"352 68 CURVE SMOOTH",
"286 61 OFFCURVE",
"228 81 OFFCURVE",
"180 129 CURVE SMOOTH",
"141 169 OFFCURVE",
"120 218 OFFCURVE",
"120 276 CURVE SMOOTH",
"120 325 OFFCURVE",
"120 375 OFFCURVE",
"120 426 CURVE SMOOTH"
);
},
{
closed = 1;
nodes = (
"333 820 OFFCURVE",
"342 819 OFFCURVE",
"351 818 CURVE SMOOTH",
"443 807 OFFCURVE",
"509 760 OFFCURVE",
"551 674 CURVE SMOOTH",
"561 654 OFFCURVE",
"566 632 OFFCURVE",
"569 605 CURVE SMOOTH",
"569 605 OFFCURVE",
"569 604 OFFCURVE",
"569 603 CURVE",
"568 603 OFFCURVE",
"568 603 OFFCURVE",
"567 603 CURVE SMOOTH",
"552 603 OFFCURVE",
"535 603 OFFCURVE",
"519 603 CURVE SMOOTH",
"502 603 OFFCURVE",
"488 603 OFFCURVE",
"475 603 CURVE SMOOTH",
"473 603 OFFCURVE",
"470 603 OFFCURVE",
"468 604 CURVE",
"468 605 OFFCURVE",
"468 606 OFFCURVE",
"467 608 CURVE SMOOTH",
"459 635 OFFCURVE",
"444 660 OFFCURVE",
"423 679 CURVE SMOOTH",
"399 703 OFFCURVE",
"365 716 OFFCURVE",
"329 716 CURVE SMOOTH",
"293 716 OFFCURVE",
"259 703 OFFCURVE",
"235 680 CURVE SMOOTH",
"203 650 OFFCURVE",
"186 611 OFFCURVE",
"186 566 CURVE SMOOTH",
"186 518 LINE SMOOTH",
"186 441 OFFCURVE",
"186 361 OFFCURVE",
"186 283 CURVE SMOOTH",
"186 226 OFFCURVE",
"213 180 OFFCURVE",
"262 151 CURVE SMOOTH",
"281 141 OFFCURVE",
"304 135 OFFCURVE",
"328 135 CURVE SMOOTH",
"363 135 OFFCURVE",
"397 147 OFFCURVE",
"420 169 CURVE SMOOTH",
"434 181 OFFCURVE",
"453 201 OFFCURVE",
"462 231 CURVE SMOOTH",
"470 254 OFFCURVE",
"464 272 OFFCURVE",
"458 280 CURVE SMOOTH",
"452 289 OFFCURVE",
"439 301 OFFCURVE",
"415 304 CURVE SMOOTH",
"406 305 OFFCURVE",
"395 305 OFFCURVE",
"386 305 CURVE SMOOTH",
"380 305 LINE",
"374 305 LINE",
"370 305 LINE SMOOTH",
"365 305 OFFCURVE",
"362 305 OFFCURVE",
"360 305 CURVE",
"360 307 OFFCURVE",
"360 310 OFFCURVE",
"360 315 CURVE SMOOTH",
"360 338 OFFCURVE",
"360 353 OFFCURVE",
"360 372 CURVE SMOOTH",
"360 384 LINE",
"360 385 LINE",
"360 388 OFFCURVE",
"360 390 OFFCURVE",
"360 392 CURVE SMOOTH",
"360 392 OFFCURVE",
"360 393 OFFCURVE",
"360 393 CURVE",
"361 393 OFFCURVE",
"361 393 OFFCURVE",
"362 393 CURVE SMOOTH",
"363 393 OFFCURVE",
"365 393 OFFCURVE",
"367 393 CURVE SMOOTH",
"368 393 LINE",
"370 393 LINE",
"380 393 LINE",
"483 394 LINE SMOOTH",
"509 394 OFFCURVE",
"536 393 OFFCURVE",
"563 393 CURVE SMOOTH",
"567 393 OFFCURVE",
"570 393 OFFCURVE",
"572 393 CURVE",
"572 391 OFFCURVE",
"572 388 OFFCURVE",
"572 383 CURVE SMOOTH",
"572 373 OFFCURVE",
"572 363 OFFCURVE",
"572 355 CURVE SMOOTH",
"572 331 OFFCURVE",
"573 311 OFFCURVE",
"572 285 CURVE SMOOTH",
"571 245 OFFCURVE",
"565 212 OFFCURVE",
"553 183 CURVE SMOOTH",
"526 120 OFFCURVE",
"484 77 OFFCURVE",
"422 51 CURVE SMOOTH",
"392 38 OFFCURVE",
"361 31 OFFCURVE",
"330 31 CURVE SMOOTH",
"309 31 OFFCURVE",
"287 35 OFFCURVE",
"264 41 CURVE SMOOTH",
"205 57 OFFCURVE",
"158 93 OFFCURVE",
"123 147 CURVE SMOOTH",
"105 176 OFFCURVE",
"93 207 OFFCURVE",
"89 243 CURVE SMOOTH",
"88 252 OFFCURVE",
"87 262 OFFCURVE",
"87 275 CURVE SMOOTH",
"87 312 OFFCURVE",
"87 351 OFFCURVE",
"87 386 CURVE SMOOTH",
"87 428 LINE SMOOTH",
"87 429 OFFCURVE",
"87 429 OFFCURVE",
"87 430 CURVE",
"87 444 OFFCURVE",
"87 459 OFFCURVE",
"87 473 CURVE SMOOTH",
"86 508 OFFCURVE",
"86 541 OFFCURVE",
"87 574 CURVE SMOOTH",
"89 673 OFFCURVE",
"131 744 OFFCURVE",
"217 791 CURVE SMOOTH",
"250 809 OFFCURVE",
"286 820 OFFCURVE",
"325 820 CURVE SMOOTH"
);
},
{
closed = 1;
nodes = (
"281 850 OFFCURVE",
"240 840 OFFCURVE",
"202 819 CURVE SMOOTH",
"108 765 OFFCURVE",
"58 684 OFFCURVE",
"56 575 CURVE SMOOTH",
"54 526 OFFCURVE",
"55 476 OFFCURVE",
"55 428 CURVE",
"55 428 OFFCURVE",
"55 428 OFFCURVE",
"55 428 CURVE",
"55 376 OFFCURVE",
"55 325 OFFCURVE",
"56 275 CURVE SMOOTH",
"56 262 OFFCURVE",
"56 250 OFFCURVE",
"58 238 CURVE SMOOTH",
"64 200 OFFCURVE",
"76 163 OFFCURVE",
"97 130 CURVE SMOOTH",
"135 70 OFFCURVE",
"188 29 OFFCURVE",
"256 10 CURVE SMOOTH",
"281 4 OFFCURVE",
"306 0 OFFCURVE",
"330 0 CURVE SMOOTH",
"365 0 OFFCURVE",
"400 7 OFFCURVE",
"434 22 CURVE SMOOTH",
"502 51 OFFCURVE",
"552 101 OFFCURVE",
"581 170 CURVE SMOOTH",
"597 207 OFFCURVE",
"603 245 OFFCURVE",
"603 285 CURVE SMOOTH",
"604 322 OFFCURVE",
"604 346 OFFCURVE",
"604 383 CURVE SMOOTH",
"604 416 OFFCURVE",
"595 426 OFFCURVE",
"563 426 CURVE SMOOTH",
"536 426 OFFCURVE",
"509 426 OFFCURVE",
"483 426 CURVE SMOOTH",
"445 426 OFFCURVE",
"408 426 OFFCURVE",
"370 426 CURVE SMOOTH",
"369 426 OFFCURVE",
"368 426 OFFCURVE",
"367 426 CURVE SMOOTH",
"364 426 OFFCURVE",
"362 426 OFFCURVE",
"359 426 CURVE SMOOTH",
"339 423 OFFCURVE",
"331 414 OFFCURVE",
"329 395 CURVE SMOOTH",
"329 391 OFFCURVE",
"329 388 OFFCURVE",
"329 384 CURVE SMOOTH",
"329 358 OFFCURVE",
"329 342 OFFCURVE",
"329 315 CURVE SMOOTH",
"329 282 OFFCURVE",
"337 275 OFFCURVE",
"370 274 CURVE SMOOTH",
"371 274 OFFCURVE",
"372 274 OFFCURVE",
"374 274 CURVE SMOOTH",
"378 274 OFFCURVE",
"382 274 OFFCURVE",
"386 274 CURVE SMOOTH",
"395 274 OFFCURVE",
"404 274 OFFCURVE",
"412 273 CURVE SMOOTH",
"432 271 OFFCURVE",
"438 259 OFFCURVE",
"432 240 CURVE SMOOTH",
"426 220 OFFCURVE",
"414 205 OFFCURVE",
"400 192 CURVE SMOOTH",
"381 175 OFFCURVE",
"354 166 OFFCURVE",
"328 166 CURVE SMOOTH",
"310 166 OFFCURVE",
"292 170 OFFCURVE",
"278 179 CURVE SMOOTH",
"238 202 OFFCURVE",
"218 237 OFFCURVE",
"218 283 CURVE SMOOTH",
"217 377 OFFCURVE",
"217 472 OFFCURVE",
"217 566 CURVE SMOOTH",
"217 602 OFFCURVE",
"230 632 OFFCURVE",
"256 658 CURVE SMOOTH",
"276 676 OFFCURVE",
"303 685 OFFCURVE",
"329 685 CURVE SMOOTH",
"355 685 OFFCURVE",
"382 676 OFFCURVE",
"402 658 CURVE SMOOTH",
"418 640 OFFCURVE",
"430 622 OFFCURVE",
"437 599 CURVE SMOOTH",
"440 591 OFFCURVE",
"444 581 OFFCURVE",
"454 576 CURVE SMOOTH",
"460 573 OFFCURVE",
"468 572 OFFCURVE",
"475 572 CURVE SMOOTH",
"489 572 OFFCURVE",
"504 571 OFFCURVE",
"519 571 CURVE SMOOTH",
"535 571 OFFCURVE",
"552 572 OFFCURVE",
"567 572 CURVE SMOOTH",
"572 572 OFFCURVE",
"577 572 OFFCURVE",
"582 574 CURVE SMOOTH",
"592 576 OFFCURVE",
"598 583 OFFCURVE",
"600 593 CURVE SMOOTH",
"601 598 OFFCURVE",
"601 604 OFFCURVE",
"600 609 CURVE SMOOTH",
"597 636 OFFCURVE",
"590 663 OFFCURVE",
"579 687 CURVE SMOOTH",
"533 781 OFFCURVE",
"459 837 OFFCURVE",
"354 848 CURVE SMOOTH",
"344 850 OFFCURVE",
"334 850 OFFCURVE",
"325 850 CURVE SMOOTH"
);
}
);
width = 658;
}
);
leftKerningGroup = "30";
rightKerningGroup = "30";
unicode = 0047;
},
{
glyphname = "H";
lastChange = "2013-07-19 15:22:36 -0500";
layers = (
{
layerId = "28EF9373-0834-4819-8430-40544DAC9A78";
name = "Light";
paths = (
{
closed = 1;
nodes = (
"124 535 OFFCURVE",
"124 646 OFFCURVE",
"124 757 CURVE SMOOTH",
"124 763 OFFCURVE",
"124 769 OFFCURVE",
"125 774 CURVE SMOOTH",
"127 781 OFFCURVE",
"132 786 OFFCURVE",
"139 786 CURVE SMOOTH",
"147 786 OFFCURVE",
"152 782 OFFCURVE",
"154 775 CURVE SMOOTH",
"155 769 OFFCURVE",
"156 763 OFFCURVE",
"156 758 CURVE SMOOTH",
"156 666 OFFCURVE",
"156 575 OFFCURVE",
"156 483 CURVE SMOOTH",
"156 458 OFFCURVE",
"158 456 OFFCURVE",
"182 456 CURVE SMOOTH",
"301 456 OFFCURVE",
"419 456 OFFCURVE",
"538 456 CURVE SMOOTH",
"563 456 OFFCURVE",
"565 458 OFFCURVE",
"565 483 CURVE SMOOTH",
"565 575 OFFCURVE",
"565 666 OFFCURVE",
"565 758 CURVE SMOOTH",
"565 763 OFFCURVE",
"565 769 OFFCURVE",
"567 775 CURVE SMOOTH",
"568 782 OFFCURVE",
"573 786 OFFCURVE",
"581 786 CURVE SMOOTH",
"588 786 OFFCURVE",
"593 782 OFFCURVE",
"595 775 CURVE SMOOTH",
"596 769 OFFCURVE",
"597 763 OFFCURVE",
"597 757 CURVE SMOOTH",
"597 638 OFFCURVE",
"597 519 OFFCURVE",
"597 400 CURVE SMOOTH",
"597 297 OFFCURVE",
"597 195 OFFCURVE",
"597 92 CURVE SMOOTH",
"597 87 OFFCURVE",
"597 82 OFFCURVE",
"596 77 CURVE SMOOTH",
"595 67 OFFCURVE",
"589 60 OFFCURVE",
"581 60 CURVE SMOOTH",
"572 60 OFFCURVE",
"566 66 OFFCURVE",
"565 77 CURVE SMOOTH",
"565 82 OFFCURVE",
"565 86 OFFCURVE",
"565 90 CURVE SMOOTH",
"565 193 OFFCURVE",
"565 295 OFFCURVE",
"565 397 CURVE SMOOTH",
"565 422 OFFCURVE",
"563 424 OFFCURVE",
"538 424 CURVE SMOOTH",
"419 424 OFFCURVE",
"301 424 OFFCURVE",
"183 424 CURVE SMOOTH",
"157 424 OFFCURVE",
"156 422 OFFCURVE",
"156 397 CURVE SMOOTH",
"156 294 OFFCURVE",
"156 192 OFFCURVE",
"156 89 CURVE SMOOTH",
"156 83 OFFCURVE",
"155 77 OFFCURVE",
"154 71 CURVE SMOOTH",
"152 65 OFFCURVE",
"147 60 OFFCURVE",
"139 60 CURVE SMOOTH",
"133 60 OFFCURVE",
"127 64 OFFCURVE",
"125 72 CURVE SMOOTH",
"124 78 OFFCURVE",
"124 84 OFFCURVE",
"124 89 CURVE SMOOTH",
"124 201 OFFCURVE",
"124 312 OFFCURVE",
"124 423 CURVE SMOOTH"
);
},
{
closed = 1;
nodes = (
"608 818 LINE",
"619 818 LINE",
"619 818 LINE",
"620 818 LINE",
"621 818 LINE SMOOTH",
"623 818 OFFCURVE",
"625 818 OFFCURVE",
"626 818 CURVE SMOOTH",
"627 818 OFFCURVE",
"628 818 OFFCURVE",
"628 818 CURVE",
"628 817 OFFCURVE",
"628 817 OFFCURVE",
"628 816 CURVE SMOOTH",
"629 811 OFFCURVE",
"629 805 OFFCURVE",
"629 799 CURVE SMOOTH",
"629 796 OFFCURVE",
"629 794 OFFCURVE",
"629 792 CURVE SMOOTH",
"629 670 OFFCURVE",
"629 548 OFFCURVE",
"629 426 CURVE",
"629 426 OFFCURVE",
"629 425 OFFCURVE",
"629 425 CURVE SMOOTH",
"629 361 LINE SMOOTH",
"629 255 OFFCURVE",
"629 149 OFFCURVE",
"628 43 CURVE SMOOTH",
"628 39 OFFCURVE",
"628 35 OFFCURVE",
"628 32 CURVE",
"626 32 OFFCURVE",
"624 32 OFFCURVE",
"622 32 CURVE SMOOTH",
"607 31 OFFCURVE",
"592 31 OFFCURVE",
"577 31 CURVE SMOOTH",
"550 31 LINE",
"531 31 LINE SMOOTH",
"529 31 OFFCURVE",
"528 31 OFFCURVE",
"527 32 CURVE SMOOTH",
"526 32 OFFCURVE",
"526 32 OFFCURVE",
"525 32 CURVE",
"525 32 OFFCURVE",
"525 33 OFFCURVE",
"525 34 CURVE SMOOTH",
"525 36 OFFCURVE",
"525 38 OFFCURVE",
"525 41 CURVE SMOOTH",
"525 43 LINE",
"525 144 LINE",
"525 206 OFFCURVE",
"525 268 OFFCURVE",
"525 331 CURVE SMOOTH",
"525 381 OFFCURVE",
"502 404 OFFCURVE",
"452 404 CURVE SMOOTH",
"426 404 OFFCURVE",
"401 404 OFFCURVE",
"375 404 CURVE SMOOTH",
"319 404 LINE",
"262 404 LINE SMOOTH",
"261 404 OFFCURVE",
"260 404 OFFCURVE",
"258 404 CURVE SMOOTH",
"213 403 OFFCURVE",
"189 379 OFFCURVE",
"189 334 CURVE SMOOTH",
"189 273 OFFCURVE",
"189 211 OFFCURVE",
"189 149 CURVE SMOOTH",
"189 113 OFFCURVE",
"189 78 OFFCURVE",
"189 42 CURVE SMOOTH",
"189 38 OFFCURVE",
"189 34 OFFCURVE",
"189 32 CURVE",
"186 32 OFFCURVE",
"183 31 OFFCURVE",
"178 31 CURVE SMOOTH",
"167 31 OFFCURVE",
"156 31 OFFCURVE",
"145 31 CURVE SMOOTH",
"101 31 LINE",
"97 31 LINE",
"95 31 LINE",
"94 31 LINE SMOOTH",
"92 31 OFFCURVE",
"90 31 OFFCURVE",
"89 32 CURVE SMOOTH",
"88 32 OFFCURVE",
"88 32 OFFCURVE",
"87 32 CURVE",
"87 32 OFFCURVE",
"87 33 OFFCURVE",
"87 34 CURVE SMOOTH",
"87 38 OFFCURVE",
"87 43 OFFCURVE",
"87 48 CURVE SMOOTH",
"87 50 OFFCURVE",
"87 52 OFFCURVE",
"87 54 CURVE",
"87 304 OFFCURVE",
"87 555 OFFCURVE",
"87 806 CURVE SMOOTH",
"87 810 OFFCURVE",
"87 814 OFFCURVE",
"87 817 CURVE",
"90 818 OFFCURVE",
"92 818 OFFCURVE",
"94 818 CURVE SMOOTH",
"108 818 OFFCURVE",
"122 818 OFFCURVE",
"136 818 CURVE SMOOTH",
"163 818 LINE",
"183 818 LINE SMOOTH",
"184 818 OFFCURVE",
"186 818 OFFCURVE",
"187 818 CURVE SMOOTH",
"187 818 OFFCURVE",
"188 818 OFFCURVE",
"189 818 CURVE",
"189 817 OFFCURVE",
"189 817 OFFCURVE",
"189 816 CURVE SMOOTH",
"189 814 OFFCURVE",
"189 811 OFFCURVE",
"189 808 CURVE SMOOTH",
"189 806 LINE",
"189 719 LINE SMOOTH",
"189 664 OFFCURVE",
"189 609 OFFCURVE",
"189 554 CURVE SMOOTH",
"189 503 OFFCURVE",
"212 481 OFFCURVE",
"262 480 CURVE SMOOTH",
"289 480 OFFCURVE",
"315 480 OFFCURVE",
"341 480 CURVE SMOOTH",
"396 480 LINE",
"452 480 LINE SMOOTH",
"453 480 OFFCURVE",
"454 480 OFFCURVE",
"456 480 CURVE SMOOTH",
"501 481 OFFCURVE",
"525 505 OFFCURVE",
"525 550 CURVE SMOOTH",
"525 603 OFFCURVE",
"525 656 OFFCURVE",
"525 708 CURVE SMOOTH",
"525 741 OFFCURVE",
"525 774 OFFCURVE",
"525 807 CURVE SMOOTH",
"525 812 OFFCURVE",
"525 815 OFFCURVE",
"525 818 CURVE",
"528 818 OFFCURVE",
"531 818 OFFCURVE",
"536 818 CURVE SMOOTH",
"547 818 OFFCURVE",
"557 818 OFFCURVE",
"568 818 CURVE SMOOTH"
);
},
{
closed = 1;
nodes = (
"557 850 OFFCURVE",
"547 850 OFFCURVE",
"536 850 CURVE SMOOTH",
"501 850 OFFCURVE",
"493 841 OFFCURVE",
"493 807 CURVE SMOOTH",
"493 721 OFFCURVE",
"493 636 OFFCURVE",
"493 550 CURVE SMOOTH",
"493 522 OFFCURVE",
"483 512 OFFCURVE",
"455 512 CURVE SMOOTH",
"454 512 OFFCURVE",
"453 512 OFFCURVE",
"452 512 CURVE SMOOTH",
"415 512 OFFCURVE",
"378 512 OFFCURVE",
"341 512 CURVE SMOOTH",
"315 512 OFFCURVE",
"289 512 OFFCURVE",
"262 512 CURVE SMOOTH",
"229 512 OFFCURVE",
"221 521 OFFCURVE",
"221 554 CURVE SMOOTH",
"221 638 OFFCURVE",
"221 722 OFFCURVE",
"221 806 CURVE",
"221 810 OFFCURVE",
"221 814 OFFCURVE",
"220 818 CURVE SMOOTH",
"219 839 OFFCURVE",
"210 848 OFFCURVE",
"189 849 CURVE SMOOTH",
"187 850 OFFCURVE",
"185 850 OFFCURVE",
"183 850 CURVE SMOOTH",
"167 850 OFFCURVE",
"152 850 OFFCURVE",
"136 850 CURVE SMOOTH",
"122 850 OFFCURVE",
"108 850 OFFCURVE",
"94 850 CURVE SMOOTH",
"88 850 OFFCURVE",
"83 849 OFFCURVE",
"78 848 CURVE SMOOTH",
"66 846 OFFCURVE",
"59 839 OFFCURVE",
"57 827 CURVE SMOOTH",
"56 820 OFFCURVE",
"55 813 OFFCURVE",
"55 806 CURVE SMOOTH",
"55 555 OFFCURVE",
"55 304 OFFCURVE",
"55 54 CURVE SMOOTH",
"55 46 OFFCURVE",
"55 39 OFFCURVE",
"55 32 CURVE SMOOTH",
"57 11 OFFCURVE",
"66 2 OFFCURVE",
"87 0 CURVE SMOOTH",
"89 0 OFFCURVE",
"91 0 OFFCURVE",
"94 0 CURVE SMOOTH",
"95 0 OFFCURVE",
"96 0 OFFCURVE",
"97 0 CURVE SMOOTH",
"113 0 OFFCURVE",
"129 0 OFFCURVE",
"145 0 CURVE SMOOTH",
"156 0 OFFCURVE",
"167 0 OFFCURVE",
"178 0 CURVE SMOOTH",
"212 0 OFFCURVE",
"221 8 OFFCURVE",
"221 42 CURVE SMOOTH",
"221 140 OFFCURVE",
"221 237 OFFCURVE",
"221 334 CURVE SMOOTH",
"221 362 OFFCURVE",
"231 372 OFFCURVE",
"258 372 CURVE SMOOTH",
"260 372 OFFCURVE",
"261 372 OFFCURVE",
"262 372 CURVE SMOOTH",
"300 372 OFFCURVE",
"337 372 OFFCURVE",
"375 372 CURVE SMOOTH",
"401 372 OFFCURVE",
"426 372 OFFCURVE",
"452 372 CURVE SMOOTH",
"484 372 OFFCURVE",
"493 364 OFFCURVE",
"493 331 CURVE SMOOTH",
"493 235 OFFCURVE",
"493 139 OFFCURVE",
"493 43 CURVE SMOOTH",
"493 39 OFFCURVE",
"493 35 OFFCURVE",
"493 31 CURVE SMOOTH",
"495 11 OFFCURVE",
"504 2 OFFCURVE",
"525 0 CURVE SMOOTH",
"527 0 OFFCURVE",
"529 0 OFFCURVE",
"531 0 CURVE SMOOTH",
"546 0 OFFCURVE",
"562 0 OFFCURVE",
"577 0 CURVE SMOOTH",
"592 0 OFFCURVE",
"608 0 OFFCURVE",
"623 0 CURVE SMOOTH",
"628 0 OFFCURVE",
"633 0 OFFCURVE",
"638 2 CURVE SMOOTH",
"649 4 OFFCURVE",
"656 11 OFFCURVE",
"658 22 CURVE SMOOTH",
"660 29 OFFCURVE",
"660 36 OFFCURVE",
"660 43 CURVE SMOOTH",
"660 170 OFFCURVE",
"660 297 OFFCURVE",
"660 425 CURVE",
"660 425 OFFCURVE",
"660 425 OFFCURVE",
"660 425 CURVE",
"660 547 OFFCURVE",
"660 670 OFFCURVE",
"660 792 CURVE",
"660 801 OFFCURVE",
"661 809 OFFCURVE",
"660 818 CURVE SMOOTH",
"659 839 OFFCURVE",
"649 848 OFFCURVE",
"629 849 CURVE SMOOTH",
"626 850 OFFCURVE",
"624 850 OFFCURVE",
"621 850 CURVE SMOOTH",
"621 850 OFFCURVE",
"620 850 OFFCURVE",
"619 850 CURVE SMOOTH",
"619 850 OFFCURVE",
"619 850 OFFCURVE",
"619 850 CURVE SMOOTH",
"602 850 OFFCURVE",
"585 850 OFFCURVE",
"568 850 CURVE SMOOTH"
);
}
);
width = 713;
}
);
leftKerningGroup = "30";
rightKerningGroup = "30";
unicode = 0048;
},
{
glyphname = "I";
lastChange = "2013-07-19 15:22:40 -0500";
layers = (
{
layerId = "28EF9373-0834-4819-8430-40544DAC9A78";
name = "Light";
paths = (
{
closed = 1;
nodes = (
"227 526 OFFCURVE",
"227 626 OFFCURVE",
"227 727 CURVE SMOOTH",
"227 749 OFFCURVE",
"224 752 OFFCURVE",
"202 752 CURVE SMOOTH",
"182 752 OFFCURVE",
"162 752 OFFCURVE",
"142 752 CURVE SMOOTH",
"138 752 OFFCURVE",
"134 752 OFFCURVE",
"131 753 CURVE SMOOTH",
"123 755 OFFCURVE",
"118 760 OFFCURVE",
"118 768 CURVE SMOOTH",
"118 775 OFFCURVE",
"123 780 OFFCURVE",
"131 782 CURVE SMOOTH",
"134 783 OFFCURVE",
"137 783 OFFCURVE",
"140 783 CURVE SMOOTH",
"210 783 OFFCURVE",
"280 783 OFFCURVE",
"350 783 CURVE SMOOTH",
"354 783 OFFCURVE",
"359 782 OFFCURVE",
"363 781 CURVE SMOOTH",
"368 779 OFFCURVE",
"371 774 OFFCURVE",
"372 768 CURVE SMOOTH",
"372 761 OFFCURVE",
"369 756 OFFCURVE",
"363 754 CURVE SMOOTH",
"358 753 OFFCURVE",
"353 752 OFFCURVE",
"349 752 CURVE SMOOTH",
"326 752 OFFCURVE",
"303 752 OFFCURVE",
"281 752 CURVE SMOOTH",
"264 752 OFFCURVE",
"260 748 OFFCURVE",
"260 731 CURVE SMOOTH",
"260 527 OFFCURVE",
"260 323 OFFCURVE",
"260 118 CURVE SMOOTH",
"260 102 OFFCURVE",
"264 98 OFFCURVE",
"281 98 CURVE SMOOTH",
"303 98 OFFCURVE",
"325 98 OFFCURVE",
"347 98 CURVE SMOOTH",
"351 98 OFFCURVE",
"356 97 OFFCURVE",
"360 96 CURVE SMOOTH",
"366 95 OFFCURVE",
"371 90 OFFCURVE",
"371 83 CURVE SMOOTH",
"372 76 OFFCURVE",
"368 70 OFFCURVE",
"362 68 CURVE SMOOTH",
"357 66 OFFCURVE",
"352 65 OFFCURVE",
"347 65 CURVE SMOOTH",
"279 65 OFFCURVE",
"210 65 OFFCURVE",
"142 65 CURVE SMOOTH",
"137 65 OFFCURVE",
"132 66 OFFCURVE",
"128 68 CURVE SMOOTH",
"121 70 OFFCURVE",
"117 76 OFFCURVE",
"118 83 CURVE SMOOTH",
"119 90 OFFCURVE",
"123 95 OFFCURVE",
"130 96 CURVE SMOOTH",
"134 97 OFFCURVE",
"138 98 OFFCURVE",
"142 98 CURVE SMOOTH",
"164 98 OFFCURVE",
"185 98 OFFCURVE",
"206 98 CURVE SMOOTH",
"223 98 OFFCURVE",
"227 102 OFFCURVE",
"227 118 CURVE SMOOTH",
"227 220 OFFCURVE",
"227 323 OFFCURVE",
"227 425 CURVE",
"227 425 OFFCURVE",
"227 425 OFFCURVE",
"227 425 CURVE"
);
},
{
closed = 1;
nodes = (
"351 819 LINE",
"392 819 LINE SMOOTH",
"394 819 OFFCURVE",
"396 819 OFFCURVE",
"397 819 CURVE SMOOTH",
"398 818 OFFCURVE",
"398 818 OFFCURVE",
"399 818 CURVE",
"399 818 OFFCURVE",
"399 818 OFFCURVE",
"399 818 CURVE SMOOTH",
"400 784 OFFCURVE",
"400 750 OFFCURVE",
"399 718 CURVE SMOOTH",
"399 718 OFFCURVE",
"399 718 OFFCURVE",
"399 717 CURVE",
"399 717 OFFCURVE",
"398 717 OFFCURVE",
"397 717 CURVE SMOOTH",
"392 717 OFFCURVE",
"388 717 OFFCURVE",
"383 717 CURVE SMOOTH",
"378 717 LINE",
"372 717 LINE SMOOTH",
"368 717 OFFCURVE",
"365 717 OFFCURVE",
"361 717 CURVE SMOOTH",
"353 717 OFFCURVE",
"346 716 OFFCURVE",
"339 715 CURVE SMOOTH",
"316 710 OFFCURVE",
"299 693 OFFCURVE",
"295 670 CURVE SMOOTH",
"293 662 OFFCURVE",
"292 655 OFFCURVE",
"292 647 CURVE SMOOTH",
"292 513 OFFCURVE",
"292 379 OFFCURVE",
"292 246 CURVE SMOOTH",
"292 203 LINE SMOOTH",
"292 201 OFFCURVE",
"292 198 OFFCURVE",
"292 195 CURVE SMOOTH",
"295 157 OFFCURVE",
"317 135 OFFCURVE",
"355 133 CURVE SMOOTH",
"361 133 OFFCURVE",
"367 133 OFFCURVE",
"371 133 CURVE SMOOTH",
"377 133 LINE",
"383 133 LINE SMOOTH",
"386 133 OFFCURVE",
"389 133 OFFCURVE",
"393 133 CURVE SMOOTH",
"395 133 OFFCURVE",
"397 133 OFFCURVE",
"399 133 CURVE",
"399 130 OFFCURVE",
"399 128 OFFCURVE",
"399 126 CURVE SMOOTH",
"400 104 OFFCURVE",
"399 82 OFFCURVE",
"399 60 CURVE SMOOTH",
"399 39 LINE SMOOTH",
"399 37 OFFCURVE",
"399 36 OFFCURVE",
"399 34 CURVE SMOOTH",
"399 33 OFFCURVE",
"399 33 OFFCURVE",
"399 32 CURVE",
"398 32 OFFCURVE",
"398 32 OFFCURVE",
"397 32 CURVE SMOOTH",
"394 32 OFFCURVE",
"391 32 OFFCURVE",
"387 32 CURVE SMOOTH",
"382 32 LINE",
"377 32 LINE",
"376 32 LINE",
"309 32 LINE",
"276 32 LINE",
"244 32 LINE",
"243 32 OFFCURVE",
"243 32 OFFCURVE",
"243 32 CURVE SMOOTH",
"199 32 LINE",
"155 32 LINE SMOOTH",
"135 32 OFFCURVE",
"116 32 OFFCURVE",
"96 32 CURVE SMOOTH",
"92 32 OFFCURVE",
"89 32 OFFCURVE",
"87 32 CURVE",
"87 34 OFFCURVE",
"87 37 OFFCURVE",
"87 41 CURVE SMOOTH",
"87 69 OFFCURVE",
"87 97 OFFCURVE",
"87 125 CURVE SMOOTH",
"87 127 OFFCURVE",
"87 130 OFFCURVE",
"87 133 CURVE",
"87 133 OFFCURVE",
"87 133 OFFCURVE",
"87 133 CURVE",
"88 133 OFFCURVE",
"90 133 OFFCURVE",
"93 133 CURVE SMOOTH",
"98 133 OFFCURVE",
"102 133 OFFCURVE",
"107 133 CURVE SMOOTH",
"113 133 OFFCURVE",
"118 133 OFFCURVE",
"124 133 CURVE SMOOTH",
"166 134 OFFCURVE",
"191 158 OFFCURVE",
"191 200 CURVE SMOOTH",
"191 354 OFFCURVE",
"191 507 OFFCURVE",
"191 650 CURVE SMOOTH",
"191 657 OFFCURVE",
"189 664 OFFCURVE",
"188 670 CURVE SMOOTH",
"183 695 OFFCURVE",
"165 712 OFFCURVE",
"141 715 CURVE SMOOTH",
"131 716 OFFCURVE",
"122 716 OFFCURVE",
"113 717 CURVE SMOOTH",
"108 717 OFFCURVE",
"104 717 OFFCURVE",
"100 717 CURVE SMOOTH",
"96 717 LINE SMOOTH",
"93 717 OFFCURVE",
"90 718 OFFCURVE",
"87 718 CURVE",
"87 720 OFFCURVE",
"87 721 OFFCURVE",
"87 723 CURVE SMOOTH",
"86 752 OFFCURVE",
"86 783 OFFCURVE",
"87 813 CURVE SMOOTH",
"87 814 OFFCURVE",
"87 816 OFFCURVE",
"87 818 CURVE",
"89 818 OFFCURVE",
"92 819 OFFCURVE",
"94 819 CURVE SMOOTH",
"155 819 OFFCURVE",
"216 819 OFFCURVE",
"277 819 CURVE SMOOTH"
);
},
{
closed = 1;
nodes = (
"216 850 OFFCURVE",
"155 850 OFFCURVE",
"94 850 CURVE SMOOTH",
"88 850 OFFCURVE",
"82 849 OFFCURVE",
"77 848 CURVE SMOOTH",
"66 846 OFFCURVE",
"59 839 OFFCURVE",
"57 829 CURVE SMOOTH",
"56 824 OFFCURVE",
"55 818 OFFCURVE",
"55 813 CURVE SMOOTH",
"55 783 OFFCURVE",
"55 753 OFFCURVE",
"55 722 CURVE SMOOTH",
"55 717 OFFCURVE",
"56 712 OFFCURVE",
"57 707 CURVE SMOOTH",
"59 696 OFFCURVE",
"66 690 OFFCURVE",
"76 688 CURVE SMOOTH",
"83 686 OFFCURVE",
"91 686 OFFCURVE",
"98 686 CURVE SMOOTH",
"111 685 OFFCURVE",
"124 685 OFFCURVE",
"137 684 CURVE SMOOTH",
"148 682 OFFCURVE",
"155 675 OFFCURVE",
"158 663 CURVE SMOOTH",
"158 659 OFFCURVE",
"159 655 OFFCURVE",
"159 650 CURVE SMOOTH",
"159 500 OFFCURVE",
"159 350 OFFCURVE",
"159 200 CURVE SMOOTH",
"159 175 OFFCURVE",
"149 165 OFFCURVE",
"124 165 CURVE SMOOTH",
"113 164 OFFCURVE",
"103 165 OFFCURVE",
"93 164 CURVE SMOOTH",
"89 164 OFFCURVE",
"86 164 OFFCURVE",
"82 164 CURVE SMOOTH",
"65 161 OFFCURVE",
"59 154 OFFCURVE",
"56 137 CURVE SMOOTH",
"55 133 OFFCURVE",
"55 129 OFFCURVE",
"55 125 CURVE SMOOTH",
"55 97 OFFCURVE",
"55 69 OFFCURVE",
"55 41 CURVE SMOOTH",
"55 9 OFFCURVE",
"64 0 OFFCURVE",
"96 0 CURVE SMOOTH",
"116 0 OFFCURVE",
"135 0 OFFCURVE",
"155 0 CURVE SMOOTH",
"184 0 OFFCURVE",
"213 0 OFFCURVE",
"243 0 CURVE",
"243 0 OFFCURVE",
"243 0 OFFCURVE",
"243 0 CURVE",
"265 0 OFFCURVE",
"287 0 OFFCURVE",
"309 0 CURVE SMOOTH",
"331 0 OFFCURVE",
"354 0 OFFCURVE",
"376 0 CURVE SMOOTH",
"376 0 OFFCURVE",
"377 0 OFFCURVE",
"377 0 CURVE SMOOTH",
"380 0 OFFCURVE",
"384 0 OFFCURVE",
"387 0 CURVE SMOOTH",
"391 0 OFFCURVE",
"394 0 OFFCURVE",
"398 0 CURVE SMOOTH",
"420 1 OFFCURVE",
"430 11 OFFCURVE",
"431 33 CURVE SMOOTH",
"431 35 OFFCURVE",
"431 37 OFFCURVE",
"431 39 CURVE SMOOTH",
"431 68 OFFCURVE",
"431 97 OFFCURVE",
"431 126 CURVE SMOOTH",
"431 132 OFFCURVE",
"430 138 OFFCURVE",
"429 143 CURVE SMOOTH",
"427 154 OFFCURVE",
"420 160 OFFCURVE",
"410 163 CURVE SMOOTH",
"404 164 OFFCURVE",
"399 164 OFFCURVE",
"393 164 CURVE SMOOTH",
"390 165 OFFCURVE",
"386 165 OFFCURVE",
"383 165 CURVE SMOOTH",
"379 165 OFFCURVE",
"375 165 OFFCURVE",
"371 165 CURVE SMOOTH",
"366 165 OFFCURVE",
"361 165 OFFCURVE",
"356 165 CURVE SMOOTH",
"334 166 OFFCURVE",
"325 175 OFFCURVE",
"324 197 CURVE SMOOTH",
"324 199 OFFCURVE",
"324 201 OFFCURVE",
"324 203 CURVE",
"324 351 OFFCURVE",
"324 499 OFFCURVE",
"324 647 CURVE SMOOTH",
"324 653 OFFCURVE",
"325 659 OFFCURVE",
"326 664 CURVE SMOOTH",
"328 675 OFFCURVE",
"335 682 OFFCURVE",
"345 684 CURVE SMOOTH",
"351 685 OFFCURVE",
"356 685 OFFCURVE",
"362 685 CURVE SMOOTH",
"365 686 OFFCURVE",
"369 686 OFFCURVE",
"372 686 CURVE SMOOTH",
"376 686 OFFCURVE",
"380 686 OFFCURVE",
"383 686 CURVE SMOOTH",
"388 686 OFFCURVE",
"394 686 OFFCURVE",
"399 686 CURVE SMOOTH",
"420 687 OFFCURVE",
"430 696 OFFCURVE",
"431 717 CURVE SMOOTH",
"431 751 OFFCURVE",
"431 785 OFFCURVE",
"431 818 CURVE SMOOTH",
"430 839 OFFCURVE",
"420 849 OFFCURVE",
"399 850 CURVE SMOOTH",
"397 850 OFFCURVE",
"394 850 OFFCURVE",
"392 850 CURVE SMOOTH",
"354 850 OFFCURVE",
"316 850 OFFCURVE",
"277 850 CURVE SMOOTH"
);
}
);
width = 484;
}
);
leftKerningGroup = "30";
rightKerningGroup = "30";
unicode = 0049;
},
{
glyphname = "J";
lastChange = "2013-07-19 15:22:43 -0500";
layers = (
{
layerId = "28EF9373-0834-4819-8430-40544DAC9A78";
name = "Light";
paths = (
{
closed = 1;
nodes = (
"547 436 OFFCURVE",
"547 358 OFFCURVE",
"547 280 CURVE SMOOTH",
"547 229 OFFCURVE",
"531 183 OFFCURVE",
"499 144 CURVE SMOOTH",
"457 94 OFFCURVE",
"404 67 OFFCURVE",
"338 65 CURVE SMOOTH",
"284 64 OFFCURVE",
"236 81 OFFCURVE",
"195 115 CURVE SMOOTH",
"173 134 OFFCURVE",
"155 157 OFFCURVE",
"142 183 CURVE SMOOTH",
"140 189 OFFCURVE",
"138 195 OFFCURVE",
"138 202 CURVE SMOOTH",
"137 208 OFFCURVE",
"140 213 OFFCURVE",
"146 215 CURVE SMOOTH",
"151 216 OFFCURVE",
"157 215 OFFCURVE",
"161 213 CURVE SMOOTH",
"166 209 OFFCURVE",
"169 203 OFFCURVE",
"172 198 CURVE SMOOTH",
"188 166 OFFCURVE",
"212 141 OFFCURVE",
"242 123 CURVE SMOOTH",
"307 85 OFFCURVE",
"389 91 OFFCURVE",
"447 139 CURVE SMOOTH",
"490 175 OFFCURVE",
"513 222 OFFCURVE",
"513 279 CURVE SMOOTH",
"514 429 OFFCURVE",
"513 578 OFFCURVE",
"513 728 CURVE",
"513 731 OFFCURVE",
"513 734 OFFCURVE",
"513 737 CURVE SMOOTH",
"512 746 OFFCURVE",
"508 750 OFFCURVE",
"499 751 CURVE SMOOTH",
"496 751 OFFCURVE",
"492 751 OFFCURVE",
"488 751 CURVE SMOOTH",
"452 751 OFFCURVE",
"416 751 OFFCURVE",
"381 751 CURVE SMOOTH",
"376 751 OFFCURVE",
"370 752 OFFCURVE",
"366 753 CURVE SMOOTH",
"359 755 OFFCURVE",
"355 760 OFFCURVE",
"355 767 CURVE SMOOTH",
"355 775 OFFCURVE",
"360 779 OFFCURVE",
"366 781 CURVE SMOOTH",
"370 782 OFFCURVE",
"374 783 OFFCURVE",
"377 783 CURVE SMOOTH",
"426 783 OFFCURVE",
"474 783 OFFCURVE",
"522 783 CURVE SMOOTH",
"540 783 OFFCURVE",
"546 776 OFFCURVE",
"547 758 CURVE SMOOTH",
"547 676 OFFCURVE",
"547 595 OFFCURVE",
"547 513 CURVE",
"547 513 OFFCURVE",
"547 513 OFFCURVE",
"547 513 CURVE"
);
},
{
closed = 1;
nodes = (
"478 819 OFFCURVE",
"522 819 OFFCURVE",
"567 819 CURVE SMOOTH",
"571 819 OFFCURVE",
"575 818 OFFCURVE",
"579 818 CURVE",
"580 814 OFFCURVE",
"580 811 OFFCURVE",
"580 807 CURVE SMOOTH",
"580 735 OFFCURVE",
"580 663 OFFCURVE",
"580 591 CURVE SMOOTH",
"580 547 LINE SMOOTH",
"580 523 OFFCURVE",
"580 499 OFFCURVE",
"580 475 CURVE SMOOTH",
"580 416 OFFCURVE",
"580 356 OFFCURVE",
"580 296 CURVE SMOOTH",
"580 258 OFFCURVE",
"576 228 OFFCURVE",
"567 201 CURVE SMOOTH",
"554 164 OFFCURVE",
"534 131 OFFCURVE",
"508 105 CURVE SMOOTH",
"463 60 OFFCURVE",
"409 36 OFFCURVE",
"347 32 CURVE SMOOTH",
"341 32 OFFCURVE",
"335 32 OFFCURVE",
"330 32 CURVE SMOOTH",
"271 32 OFFCURVE",
"218 51 OFFCURVE",
"172 90 CURVE SMOOTH",
"123 131 OFFCURVE",
"95 184 OFFCURVE",
"87 248 CURVE",
"87 248 OFFCURVE",
"88 248 OFFCURVE",
"88 248 CURVE SMOOTH",
"100 248 OFFCURVE",
"112 248 OFFCURVE",
"127 248 CURVE SMOOTH",
"139 248 OFFCURVE",
"151 248 OFFCURVE",
"162 248 CURVE SMOOTH",
"183 248 LINE",
"183 248 OFFCURVE",
"185 248 OFFCURVE",
"186 247 CURVE SMOOTH",
"187 247 OFFCURVE",
"188 247 OFFCURVE",
"190 247 CURVE",
"190 247 OFFCURVE",
"190 247 OFFCURVE",
"190 247 CURVE",
"190 247 OFFCURVE",
"190 246 OFFCURVE",
"190 246 CURVE SMOOTH",
"197 226 OFFCURVE",
"208 197 OFFCURVE",
"232 175 CURVE SMOOTH",
"262 148 OFFCURVE",
"294 134 OFFCURVE",
"330 134 CURVE SMOOTH",
"346 134 OFFCURVE",
"363 137 OFFCURVE",
"379 143 CURVE SMOOTH",
"434 162 OFFCURVE",
"468 205 OFFCURVE",
"475 264 CURVE SMOOTH",
"477 276 OFFCURVE",
"477 287 OFFCURVE",
"477 297 CURVE SMOOTH",
"477 411 OFFCURVE",
"477 528 OFFCURVE",
"477 644 CURVE SMOOTH",
"477 652 OFFCURVE",
"476 661 OFFCURVE",
"475 669 CURVE SMOOTH",
"470 693 OFFCURVE",
"454 710 OFFCURVE",
"430 714 CURVE SMOOTH",
"422 716 OFFCURVE",
"415 717 OFFCURVE",
"407 717 CURVE SMOOTH",
"391 717 OFFCURVE",
"374 717 OFFCURVE",
"358 717 CURVE SMOOTH",
"352 717 LINE",
"346 717 LINE",
"329 717 LINE",
"327 717 LINE",
"326 717 LINE SMOOTH",
"324 717 OFFCURVE",
"322 717 OFFCURVE",
"321 717 CURVE SMOOTH",
"320 717 OFFCURVE",
"319 717 OFFCURVE",
"318 717 CURVE",
"318 717 OFFCURVE",
"318 718 OFFCURVE",
"318 718 CURVE SMOOTH",
"318 751 OFFCURVE",
"318 785 OFFCURVE",
"318 818 CURVE SMOOTH",
"318 818 OFFCURVE",
"318 818 OFFCURVE",
"318 818 CURVE",
"319 818 OFFCURVE",
"320 819 OFFCURVE",
"320 819 CURVE SMOOTH",
"322 819 OFFCURVE",
"323 819 OFFCURVE",
"325 819 CURVE SMOOTH",
"326 819 LINE",
"328 819 LINE",
"367 819 LINE",
"433 819 LINE SMOOTH"
);
},
{
closed = 1;
nodes = (
"398 850 OFFCURVE",
"363 850 OFFCURVE",
"328 850 CURVE SMOOTH",
"327 850 OFFCURVE",
"326 850 OFFCURVE",
"325 850 CURVE SMOOTH",
"323 850 OFFCURVE",
"320 850 OFFCURVE",
"318 850 CURVE SMOOTH",
"297 848 OFFCURVE",
"287 839 OFFCURVE",
"287 819 CURVE SMOOTH",
"286 785 OFFCURVE",
"286 751 OFFCURVE",
"287 717 CURVE SMOOTH",
"287 696 OFFCURVE",
"297 687 OFFCURVE",
"319 686 CURVE SMOOTH",
"321 685 OFFCURVE",
"323 685 OFFCURVE",
"326 685 CURVE SMOOTH",
"327 685 OFFCURVE",
"328 685 OFFCURVE",
"329 685 CURVE SMOOTH",
"329 685 OFFCURVE",
"329 685 OFFCURVE",
"329 685 CURVE SMOOTH",
"335 685 OFFCURVE",
"340 685 OFFCURVE",
"346 685 CURVE SMOOTH",
"350 685 OFFCURVE",
"354 685 OFFCURVE",
"358 685 CURVE SMOOTH",
"374 685 OFFCURVE",
"391 685 OFFCURVE",
"407 685 CURVE SMOOTH",
"413 685 OFFCURVE",
"418 685 OFFCURVE",
"424 683 CURVE SMOOTH",
"435 681 OFFCURVE",
"442 674 OFFCURVE",
"444 663 CURVE SMOOTH",
"445 657 OFFCURVE",
"445 650 OFFCURVE",
"445 644 CURVE SMOOTH",
"445 528 OFFCURVE",
"445 413 OFFCURVE",
"445 297 CURVE SMOOTH",
"445 287 OFFCURVE",
"445 277 OFFCURVE",
"444 268 CURVE SMOOTH",
"438 221 OFFCURVE",
"413 188 OFFCURVE",
"369 173 CURVE SMOOTH",
"355 168 OFFCURVE",
"342 166 OFFCURVE",
"330 166 CURVE SMOOTH",
"302 166 OFFCURVE",
"277 177 OFFCURVE",
"254 198 CURVE SMOOTH",
"237 214 OFFCURVE",
"227 234 OFFCURVE",
"220 256 CURVE SMOOTH",
"216 269 OFFCURVE",
"207 277 OFFCURVE",
"193 278 CURVE SMOOTH",
"190 279 OFFCURVE",
"186 279 OFFCURVE",
"183 279 CURVE SMOOTH",
"164 279 OFFCURVE",
"146 279 OFFCURVE",
"127 279 CURVE SMOOTH",
"114 279 OFFCURVE",
"101 279 OFFCURVE",
"88 279 CURVE SMOOTH",
"63 279 OFFCURVE",
"52 267 OFFCURVE",
"55 245 CURVE SMOOTH",
"64 172 OFFCURVE",
"97 112 OFFCURVE",
"152 66 CURVE SMOOTH",
"204 22 OFFCURVE",
"263 0 OFFCURVE",
"330 0 CURVE SMOOTH",
"336 0 OFFCURVE",
"342 0 OFFCURVE",
"349 1 CURVE SMOOTH",
"419 5 OFFCURVE",
"480 33 OFFCURVE",
"530 82 CURVE SMOOTH",
"561 113 OFFCURVE",
"583 150 OFFCURVE",
"597 191 CURVE SMOOTH",
"608 225 OFFCURVE",
"612 260 OFFCURVE",
"612 296 CURVE SMOOTH",
"612 380 OFFCURVE",
"612 464 OFFCURVE",
"612 547 CURVE SMOOTH",
"612 634 OFFCURVE",
"612 721 OFFCURVE",
"612 807 CURVE SMOOTH",
"612 814 OFFCURVE",
"611 821 OFFCURVE",
"610 827 CURVE SMOOTH",
"608 839 OFFCURVE",
"600 846 OFFCURVE",
"588 848 CURVE SMOOTH",
"581 850 OFFCURVE",
"574 850 OFFCURVE",
"567 850 CURVE SMOOTH",
"522 850 OFFCURVE",
"478 850 OFFCURVE",
"433 850 CURVE SMOOTH"
);
}
);
width = 664;
}
);
leftKerningGroup = "30";
rightKerningGroup = "30";
unicode = 004A;
},
{
glyphname = "K";
lastChange = "2013-07-19 15:22:46 -0500";
layers = (
{
layerId = "28EF9373-0834-4819-8430-40544DAC9A78";
name = "Light";
paths = (
{
closed = 1;
nodes = (
"122 533 OFFCURVE",
"122 643 OFFCURVE",
"122 753 CURVE SMOOTH",
"122 759 OFFCURVE",
"122 765 OFFCURVE",
"124 770 CURVE SMOOTH",
"125 777 OFFCURVE",
"130 782 OFFCURVE",
"138 782 CURVE SMOOTH",
"145 782 OFFCURVE",
"151 778 OFFCURVE",
"153 771 CURVE SMOOTH",
"154 765 OFFCURVE",
"154 759 OFFCURVE",
"154 754 CURVE SMOOTH",
"154 666 OFFCURVE",
"154 578 OFFCURVE",
"154 491 CURVE SMOOTH",
"154 467 OFFCURVE",
"157 465 OFFCURVE",
"180 465 CURVE SMOOTH",
"231 465 OFFCURVE",
"282 465 OFFCURVE",
"334 465 CURVE SMOOTH",
"376 464 OFFCURVE",
"414 479 OFFCURVE",
"444 509 CURVE SMOOTH",
"470 534 OFFCURVE",
"486 566 OFFCURVE",
"490 603 CURVE SMOOTH",
"491 613 OFFCURVE",
"492 622 OFFCURVE",
"492 632 CURVE SMOOTH",
"492 673 OFFCURVE",
"492 715 OFFCURVE",
"492 756 CURVE SMOOTH",
"492 761 OFFCURVE",
"493 766 OFFCURVE",
"494 771 CURVE SMOOTH",
"497 778 OFFCURVE",
"502 782 OFFCURVE",
"509 782 CURVE SMOOTH",
"516 781 OFFCURVE",
"521 777 OFFCURVE",
"523 771 CURVE SMOOTH",
"525 766 OFFCURVE",
"526 761 OFFCURVE",
"526 756 CURVE SMOOTH",
"526 711 OFFCURVE",
"526 667 OFFCURVE",
"525 622 CURVE SMOOTH",
"524 563 OFFCURVE",
"502 514 OFFCURVE",
"457 475 CURVE SMOOTH",
"456 474 OFFCURVE",
"455 473 OFFCURVE",
"455 472 CURVE SMOOTH",
"447 464 OFFCURVE",
"448 458 OFFCURVE",
"458 454 CURVE SMOOTH",
"465 451 OFFCURVE",
"471 448 OFFCURVE",
"478 444 CURVE SMOOTH",
"532 413 OFFCURVE",
"560 364 OFFCURVE",
"569 303 CURVE SMOOTH",
"570 295 OFFCURVE",
"570 288 OFFCURVE",
"570 280 CURVE SMOOTH",
"570 217 OFFCURVE",
"570 155 OFFCURVE",
"570 93 CURVE SMOOTH",
"570 87 OFFCURVE",
"570 82 OFFCURVE",
"568 77 CURVE SMOOTH",
"567 70 OFFCURVE",
"562 66 OFFCURVE",
"554 66 CURVE SMOOTH",
"547 66 OFFCURVE",
"542 70 OFFCURVE",
"540 77 CURVE SMOOTH",
"539 82 OFFCURVE",
"538 87 OFFCURVE",
"538 93 CURVE SMOOTH",
"538 149 OFFCURVE",
"538 205 OFFCURVE",
"538 261 CURVE SMOOTH",
"538 284 OFFCURVE",
"536 307 OFFCURVE",
"529 329 CURVE SMOOTH",
"510 385 OFFCURVE",
"473 421 OFFCURVE",
"414 430 CURVE SMOOTH",
"408 431 OFFCURVE",
"402 431 OFFCURVE",
"397 431 CURVE SMOOTH",
"324 431 OFFCURVE",
"252 431 OFFCURVE",
"179 431 CURVE SMOOTH",
"176 431 OFFCURVE",
"173 431 OFFCURVE",
"171 431 CURVE SMOOTH",
"160 430 OFFCURVE",
"155 426 OFFCURVE",
"155 415 CURVE SMOOTH",
"154 410 OFFCURVE",
"154 406 OFFCURVE",
"154 401 CURVE SMOOTH",
"154 298 OFFCURVE",
"154 195 OFFCURVE",
"154 92 CURVE SMOOTH",
"154 86 OFFCURVE",
"154 80 OFFCURVE",
"153 75 CURVE SMOOTH",
"151 67 OFFCURVE",
"145 63 OFFCURVE",
"138 63 CURVE SMOOTH",
"130 63 OFFCURVE",
"125 68 OFFCURVE",
"124 75 CURVE SMOOTH",
"123 80 OFFCURVE",
"122 86 OFFCURVE",
"122 92 CURVE SMOOTH",
"122 202 OFFCURVE",
"122 313 OFFCURVE",
"122 423 CURVE SMOOTH"
);
},
{
closed = 1;
nodes = (
"519 818 OFFCURVE",
"535 818 OFFCURVE",
"552 818 CURVE SMOOTH",
"554 818 OFFCURVE",
"557 818 OFFCURVE",
"560 817 CURVE",
"560 815 OFFCURVE",
"560 811 OFFCURVE",
"560 807 CURVE SMOOTH",
"560 788 OFFCURVE",
"560 768 OFFCURVE",
"560 749 CURVE SMOOTH",
"560 711 OFFCURVE",
"560 671 OFFCURVE",
"560 632 CURVE SMOOTH",
"561 589 OFFCURVE",
"552 552 OFFCURVE",
"535 517 CURVE SMOOTH",
"526 499 OFFCURVE",
"520 471 OFFCURVE",
"543 440 CURVE SMOOTH",
"543 440 LINE SMOOTH",
"556 422 OFFCURVE",
"569 406 OFFCURVE",
"578 389 CURVE SMOOTH",
"595 359 OFFCURVE",
"604 327 OFFCURVE",
"604 294 CURVE SMOOTH",
"606 221 OFFCURVE",
"606 146 OFFCURVE",
"606 74 CURVE SMOOTH",
"606 38 LINE SMOOTH",
"606 37 OFFCURVE",
"606 36 OFFCURVE",
"606 35 CURVE",
"605 35 OFFCURVE",
"604 35 OFFCURVE",
"603 35 CURVE SMOOTH",
"588 35 OFFCURVE",
"573 35 OFFCURVE",
"556 35 CURVE SMOOTH",
"540 35 OFFCURVE",
"524 35 OFFCURVE",
"508 35 CURVE SMOOTH",
"506 35 OFFCURVE",
"504 35 OFFCURVE",
"503 35 CURVE",
"503 36 OFFCURVE",
"503 38 OFFCURVE",
"503 40 CURVE SMOOTH",
"503 73 OFFCURVE",
"503 106 OFFCURVE",
"503 139 CURVE SMOOTH",
"503 178 OFFCURVE",
"503 218 OFFCURVE",
"503 258 CURVE SMOOTH",
"503 287 OFFCURVE",
"498 310 OFFCURVE",
"489 331 CURVE SMOOTH",
"472 371 OFFCURVE",
"440 393 OFFCURVE",
"400 395 CURVE SMOOTH",
"369 397 OFFCURVE",
"338 397 OFFCURVE",
"308 397 CURVE SMOOTH",
"298 397 OFFCURVE",
"289 397 OFFCURVE",
"279 397 CURVE SMOOTH",
"278 397 OFFCURVE",
"276 397 OFFCURVE",
"274 397 CURVE SMOOTH",
"266 397 OFFCURVE",
"254 397 OFFCURVE",
"243 395 CURVE SMOOTH",
"215 391 OFFCURVE",
"197 374 OFFCURVE",
"192 345 CURVE SMOOTH",
"191 338 OFFCURVE",
"190 331 OFFCURVE",
"190 323 CURVE SMOOTH",
"190 284 OFFCURVE",
"190 245 OFFCURVE",
"190 205 CURVE SMOOTH",
"190 151 OFFCURVE",
"190 97 OFFCURVE",
"190 43 CURVE SMOOTH",
"190 39 OFFCURVE",
"190 35 OFFCURVE",
"190 32 CURVE",
"188 32 OFFCURVE",
"186 32 OFFCURVE",
"184 32 CURVE SMOOTH",
"169 32 OFFCURVE",
"154 32 OFFCURVE",
"139 32 CURVE SMOOTH",
"124 32 OFFCURVE",
"109 32 OFFCURVE",
"94 32 CURVE SMOOTH",
"92 32 OFFCURVE",
"90 32 OFFCURVE",
"88 32 CURVE",
"87 36 OFFCURVE",
"87 39 OFFCURVE",
"87 43 CURVE SMOOTH",
"87 147 OFFCURVE",
"87 252 OFFCURVE",
"87 356 CURVE SMOOTH",
"87 425 LINE",
"87 491 LINE",
"87 596 OFFCURVE",
"87 701 OFFCURVE",
"87 806 CURVE SMOOTH",
"87 810 OFFCURVE",
"87 814 OFFCURVE",
"88 817 CURVE",
"90 817 OFFCURVE",
"92 818 OFFCURVE",
"94 818 CURVE SMOOTH",
"108 818 OFFCURVE",
"123 818 OFFCURVE",
"137 818 CURVE SMOOTH",
"153 818 OFFCURVE",
"168 818 OFFCURVE",
"184 818 CURVE SMOOTH",
"186 818 OFFCURVE",
"188 818 OFFCURVE",
"190 817 CURVE",
"190 817 OFFCURVE",
"190 817 OFFCURVE",
"190 817 CURVE",
"190 815 OFFCURVE",
"190 811 OFFCURVE",
"190 807 CURVE SMOOTH",
"190 770 OFFCURVE",
"190 733 OFFCURVE",
"190 696 CURVE SMOOTH",
"190 657 OFFCURVE",
"190 618 OFFCURVE",
"190 578 CURVE SMOOTH",
"190 544 OFFCURVE",
"199 505 OFFCURVE",
"264 505 CURVE SMOOTH",
"269 505 OFFCURVE",
"275 505 OFFCURVE",
"280 505 CURVE SMOOTH",
"288 505 OFFCURVE",
"296 505 OFFCURVE",
"304 505 CURVE SMOOTH",
"316 505 OFFCURVE",
"326 505 OFFCURVE",
"335 505 CURVE SMOOTH",
"377 506 OFFCURVE",
"410 522 OFFCURVE",
"433 553 CURVE SMOOTH",
"449 575 OFFCURVE",
"457 600 OFFCURVE",
"457 632 CURVE SMOOTH",
"457 671 OFFCURVE",
"457 711 OFFCURVE",
"457 749 CURVE SMOOTH",
"457 769 OFFCURVE",
"457 788 OFFCURVE",
"457 807 CURVE SMOOTH",
"457 812 OFFCURVE",
"457 815 OFFCURVE",
"457 817 CURVE",
"460 818 OFFCURVE",
"463 818 OFFCURVE",
"467 818 CURVE SMOOTH",
"479 818 OFFCURVE",
"491 818 OFFCURVE",
"502 818 CURVE SMOOTH"
);
},
{
closed = 1;
nodes = (
"491 850 OFFCURVE",
"479 850 OFFCURVE",
"467 850 CURVE SMOOTH",
"434 850 OFFCURVE",
"425 841 OFFCURVE",
"425 807 CURVE SMOOTH",
"425 749 OFFCURVE",
"425 691 OFFCURVE",
"425 632 CURVE SMOOTH",
"425 611 OFFCURVE",
"421 590 OFFCURVE",
"407 572 CURVE SMOOTH",
"389 547 OFFCURVE",
"364 537 OFFCURVE",
"334 537 CURVE SMOOTH",
"324 537 OFFCURVE",
"314 537 OFFCURVE",
"304 537 CURVE SMOOTH",
"290 537 OFFCURVE",
"277 537 OFFCURVE",
"264 537 CURVE SMOOTH",
"231 537 OFFCURVE",
"222 546 OFFCURVE",
"222 578 CURVE SMOOTH",
"222 655 OFFCURVE",
"222 731 OFFCURVE",
"222 807 CURVE SMOOTH",
"222 812 OFFCURVE",
"222 817 OFFCURVE",
"221 822 CURVE SMOOTH",
"219 839 OFFCURVE",
"212 846 OFFCURVE",
"195 849 CURVE SMOOTH",
"191 849 OFFCURVE",
"188 850 OFFCURVE",
"184 850 CURVE SMOOTH",
"168 850 OFFCURVE",
"153 850 OFFCURVE",
"137 850 CURVE SMOOTH",
"123 850 OFFCURVE",
"108 850 OFFCURVE",
"94 850 CURVE SMOOTH",
"88 850 OFFCURVE",
"83 849 OFFCURVE",
"78 848 CURVE SMOOTH",
"66 846 OFFCURVE",
"59 838 OFFCURVE",
"57 827 CURVE SMOOTH",
"56 820 OFFCURVE",
"55 813 OFFCURVE",
"55 806 CURVE SMOOTH",
"55 679 OFFCURVE",
"55 552 OFFCURVE",
"55 425 CURVE SMOOTH",
"55 298 OFFCURVE",
"55 170 OFFCURVE",
"55 43 CURVE SMOOTH",
"55 36 OFFCURVE",
"56 30 OFFCURVE",
"57 23 CURVE SMOOTH",
"59 11 OFFCURVE",
"66 4 OFFCURVE",
"78 1 CURVE SMOOTH",
"83 0 OFFCURVE",
"88 0 OFFCURVE",
"94 0 CURVE SMOOTH",
"109 0 OFFCURVE",
"124 0 OFFCURVE",
"139 0 CURVE SMOOTH",
"154 0 OFFCURVE",
"169 0 OFFCURVE",
"184 0 CURVE SMOOTH",
"190 0 OFFCURVE",
"195 1 OFFCURVE",
"201 2 CURVE SMOOTH",
"211 4 OFFCURVE",
"218 11 OFFCURVE",
"220 21 CURVE SMOOTH",
"222 28 OFFCURVE",
"222 35 OFFCURVE",
"222 42 CURVE SMOOTH",
"222 136 OFFCURVE",
"222 230 OFFCURVE",
"222 323 CURVE SMOOTH",
"222 329 OFFCURVE",
"223 335 OFFCURVE",
"224 340 CURVE SMOOTH",
"226 355 OFFCURVE",
"233 362 OFFCURVE",
"247 363 CURVE SMOOTH",
"256 365 OFFCURVE",
"265 365 OFFCURVE",
"274 365 CURVE SMOOTH",
"276 365 OFFCURVE",
"278 365 OFFCURVE",
"279 365 CURVE SMOOTH",
"319 365 OFFCURVE",
"359 365 OFFCURVE",
"399 363 CURVE SMOOTH",
"428 362 OFFCURVE",
"448 345 OFFCURVE",
"460 319 CURVE SMOOTH",
"468 299 OFFCURVE",
"471 279 OFFCURVE",
"471 258 CURVE SMOOTH",
"471 185 OFFCURVE",
"471 113 OFFCURVE",
"471 40 CURVE SMOOTH",
"471 14 OFFCURVE",
"482 3 OFFCURVE",
"508 3 CURVE SMOOTH",
"524 3 OFFCURVE",
"540 3 OFFCURVE",
"556 3 CURVE SMOOTH",
"572 3 OFFCURVE",
"587 3 OFFCURVE",
"603 3 CURVE SMOOTH",
"627 3 OFFCURVE",
"638 14 OFFCURVE",
"638 38 CURVE SMOOTH",
"638 124 OFFCURVE",
"638 209 OFFCURVE",
"636 295 CURVE SMOOTH",
"636 334 OFFCURVE",
"625 371 OFFCURVE",
"606 405 CURVE SMOOTH",
"595 424 OFFCURVE",
"582 442 OFFCURVE",
"568 460 CURVE SMOOTH",
"558 474 OFFCURVE",
"556 487 OFFCURVE",
"564 503 CURVE SMOOTH",
"584 544 OFFCURVE",
"593 587 OFFCURVE",
"592 632 CURVE SMOOTH",
"592 690 OFFCURVE",
"592 749 OFFCURVE",
"592 807 CURVE SMOOTH",
"592 812 OFFCURVE",
"592 817 OFFCURVE",
"591 822 CURVE SMOOTH",
"589 839 OFFCURVE",
"582 846 OFFCURVE",
"565 849 CURVE SMOOTH",
"560 850 OFFCURVE",
"556 850 OFFCURVE",
"552 850 CURVE SMOOTH",
"535 850 OFFCURVE",
"519 850 OFFCURVE",
"502 850 CURVE SMOOTH"
);
}
);
width = 693;
}
);
leftKerningGroup = "30";
rightKerningGroup = "30";
unicode = 004B;
},
{
glyphname = "L";
lastChange = "2013-07-19 15:22:50 -0500";
layers = (
{
layerId = "28EF9373-0834-4819-8430-40544DAC9A78";
name = "Light";
paths = (
{
closed = 1;
nodes = (
"122 534 OFFCURVE",
"122 643 OFFCURVE",
"122 753 CURVE SMOOTH",
"122 758 OFFCURVE",
"123 764 OFFCURVE",
"124 770 CURVE SMOOTH",
"125 777 OFFCURVE",
"130 781 OFFCURVE",
"138 782 CURVE SMOOTH",
"145 782 OFFCURVE",
"151 778 OFFCURVE",
"153 770 CURVE SMOOTH",
"154 764 OFFCURVE",
"154 757 OFFCURVE",
"154 751 CURVE SMOOTH",
"154 544 OFFCURVE",
"154 337 OFFCURVE",
"154 131 CURVE SMOOTH",
"154 126 OFFCURVE",
"154 121 OFFCURVE",
"154 117 CURVE SMOOTH",
"154 102 OFFCURVE",
"159 98 OFFCURVE",
"173 98 CURVE SMOOTH",
"177 98 OFFCURVE",
"182 98 OFFCURVE",
"186 98 CURVE SMOOTH",
"263 98 OFFCURVE",
"341 98 OFFCURVE",
"418 98 CURVE SMOOTH",
"424 98 OFFCURVE",
"430 97 OFFCURVE",
"436 96 CURVE SMOOTH",
"443 95 OFFCURVE",
"447 90 OFFCURVE",
"447 83 CURVE SMOOTH",
"448 76 OFFCURVE",
"445 71 OFFCURVE",
"439 68 CURVE SMOOTH",
"434 66 OFFCURVE",
"429 65 OFFCURVE",
"424 65 CURVE SMOOTH",
"332 65 OFFCURVE",
"239 65 OFFCURVE",
"147 65 CURVE SMOOTH",
"129 65 OFFCURVE",
"123 72 OFFCURVE",
"123 90 CURVE SMOOTH",
"122 202 OFFCURVE",
"122 313 OFFCURVE",
"122 425 CURVE",
"122 425 OFFCURVE",
"122 425 OFFCURVE",
"122 425 CURVE"
);
},
{
closed = 1;
nodes = (
"151 819 OFFCURVE",
"166 819 OFFCURVE",
"182 819 CURVE SMOOTH",
"184 819 OFFCURVE",
"186 818 OFFCURVE",
"188 818 CURVE",
"188 814 OFFCURVE",
"188 810 OFFCURVE",
"188 806 CURVE SMOOTH",
"188 722 OFFCURVE",
"188 637 OFFCURVE",
"188 552 CURVE SMOOTH",
"188 439 OFFCURVE",
"188 326 OFFCURVE",
"188 213 CURVE SMOOTH",
"188 202 OFFCURVE",
"189 192 OFFCURVE",
"190 182 CURVE SMOOTH",
"194 158 OFFCURVE",
"211 140 OFFCURVE",
"237 136 CURVE SMOOTH",
"244 134 OFFCURVE",
"252 134 OFFCURVE",
"260 134 CURVE SMOOTH",
"306 133 OFFCURVE",
"352 133 OFFCURVE",
"399 133 CURVE SMOOTH",
"423 133 OFFCURVE",
"448 133 OFFCURVE",
"473 133 CURVE SMOOTH",
"477 133 OFFCURVE",
"481 133 OFFCURVE",
"483 133 CURVE",
"483 131 OFFCURVE",
"483 127 OFFCURVE",
"483 123 CURVE SMOOTH",
"483 96 OFFCURVE",
"483 68 OFFCURVE",
"483 41 CURVE SMOOTH",
"483 40 LINE SMOOTH",
"483 38 OFFCURVE",
"483 35 OFFCURVE",
"483 34 CURVE SMOOTH",
"483 33 OFFCURVE",
"483 33 OFFCURVE",
"483 32 CURVE",
"482 32 OFFCURVE",
"482 32 OFFCURVE",
"481 32 CURVE SMOOTH",
"480 32 OFFCURVE",
"478 32 OFFCURVE",
"476 32 CURVE SMOOTH",
"475 32 LINE",
"473 32 LINE",
"262 32 LINE SMOOTH",
"207 32 OFFCURVE",
"152 32 OFFCURVE",
"97 32 CURVE SMOOTH",
"92 32 OFFCURVE",
"89 32 OFFCURVE",
"87 32 CURVE",
"87 34 OFFCURVE",
"87 38 OFFCURVE",
"87 42 CURVE",
"87 135 OFFCURVE",
"87 228 OFFCURVE",
"87 321 CURVE SMOOTH",
"87 426 LINE",
"87 494 LINE SMOOTH",
"87 599 OFFCURVE",
"87 703 OFFCURVE",
"87 808 CURVE SMOOTH",
"87 811 OFFCURVE",
"87 815 OFFCURVE",
"87 818 CURVE",
"89 818 OFFCURVE",
"91 819 OFFCURVE",
"93 819 CURVE SMOOTH",
"108 819 OFFCURVE",
"122 819 OFFCURVE",
"136 819 CURVE SMOOTH"
);
},
{
closed = 1;
nodes = (
"122 850 OFFCURVE",
"107 850 OFFCURVE",
"93 850 CURVE SMOOTH",
"88 850 OFFCURVE",
"82 849 OFFCURVE",
"77 848 CURVE SMOOTH",
"66 846 OFFCURVE",
"59 839 OFFCURVE",
"57 829 CURVE SMOOTH",
"56 822 OFFCURVE",
"55 815 OFFCURVE",
"55 808 CURVE SMOOTH",
"55 680 OFFCURVE",
"55 553 OFFCURVE",
"55 426 CURVE SMOOTH",
"55 298 OFFCURVE",
"55 170 OFFCURVE",
"55 42 CURVE SMOOTH",
"55 9 OFFCURVE",
"64 0 OFFCURVE",
"97 0 CURVE SMOOTH",
"152 0 OFFCURVE",
"207 0 OFFCURVE",
"262 0 CURVE SMOOTH",
"332 0 OFFCURVE",
"403 0 OFFCURVE",
"473 0 CURVE SMOOTH",
"474 0 OFFCURVE",
"475 0 OFFCURVE",
"476 0 CURVE SMOOTH",
"479 0 OFFCURVE",
"482 0 OFFCURVE",
"484 0 CURVE SMOOTH",
"504 2 OFFCURVE",
"512 11 OFFCURVE",
"514 31 CURVE SMOOTH",
"515 34 OFFCURVE",
"515 38 OFFCURVE",
"515 41 CURVE SMOOTH",
"515 68 OFFCURVE",
"515 96 OFFCURVE",
"515 123 CURVE SMOOTH",
"515 156 OFFCURVE",
"506 165 OFFCURVE",
"473 165 CURVE SMOOTH",
"402 165 OFFCURVE",
"331 165 OFFCURVE",
"260 165 CURVE SMOOTH",
"254 165 OFFCURVE",
"248 166 OFFCURVE",
"242 167 CURVE SMOOTH",
"231 169 OFFCURVE",
"223 176 OFFCURVE",
"222 187 CURVE SMOOTH",
"220 196 OFFCURVE",
"220 205 OFFCURVE",
"220 213 CURVE SMOOTH",
"220 411 OFFCURVE",
"220 609 OFFCURVE",
"220 806 CURVE SMOOTH",
"220 813 OFFCURVE",
"220 819 OFFCURVE",
"219 825 CURVE SMOOTH",
"216 840 OFFCURVE",
"209 846 OFFCURVE",
"194 849 CURVE SMOOTH",
"190 850 OFFCURVE",
"186 850 OFFCURVE",
"182 850 CURVE SMOOTH",
"166 850 OFFCURVE",
"151 850 OFFCURVE",
"136 850 CURVE SMOOTH"
);
}
);
width = 569;
}
);
leftKerningGroup = "30";
rightKerningGroup = "30";
unicode = 004C;
},
{
glyphname = "M";
lastChange = "2013-07-19 15:22:53 -0500";
layers = (
{
layerId = "28EF9373-0834-4819-8430-40544DAC9A78";
name = "Light";
paths = (
{
closed = 1;
nodes = (
"124 441 OFFCURVE",
"124 529 OFFCURVE",
"124 617 CURVE",
"124 702 OFFCURVE",
"187 773 OFFCURVE",
"271 782 CURVE",
"338 789 OFFCURVE",
"391 765 OFFCURVE",
"431 711 CURVE",
"432 710 OFFCURVE",
"433 709 OFFCURVE",
"433 708 CURVE",
"441 697 OFFCURVE",
"447 696 OFFCURVE",
"455 708 CURVE",
"470 730 OFFCURVE",
"489 747 OFFCURVE",
"512 761 CURVE",
"570 795 OFFCURVE",
"652 791 OFFCURVE",
"706 743 CURVE",
"745 709 OFFCURVE",
"765 666 OFFCURVE",
"765 614 CURVE",
"765 438 OFFCURVE",
"765 268 OFFCURVE",
"765 92 CURVE",
"765 87 OFFCURVE",
"765 81 OFFCURVE",
"764 75 CURVE",
"762 66 OFFCURVE",
"756 61 OFFCURVE",
"749 61 CURVE",
"741 62 OFFCURVE",
"735 67 OFFCURVE",
"734 76 CURVE",
"733 82 OFFCURVE",
"733 88 OFFCURVE",
"733 93 CURVE",
"733 265 OFFCURVE",
"733 430 OFFCURVE",
"733 601 CURVE",
"733 631 OFFCURVE",
"728 660 OFFCURVE",
"712 686 CURVE",
"688 723 OFFCURVE",
"654 744 OFFCURVE",
"610 750 CURVE",
"539 758 OFFCURVE",
"470 704 OFFCURVE",
"462 629 CURVE",
"461 618 OFFCURVE",
"460 608 OFFCURVE",
"460 597 CURVE",
"460 427 OFFCURVE",
"460 263 OFFCURVE",
"460 92 CURVE",
"460 86 OFFCURVE",
"460 80 OFFCURVE",
"459 74 CURVE",
"457 66 OFFCURVE",
"452 61 OFFCURVE",
"444 61 CURVE",
"437 61 OFFCURVE",
"431 66 OFFCURVE",
"429 74 CURVE",
"428 80 OFFCURVE",
"428 86 OFFCURVE",
"428 92 CURVE",
"428 263 OFFCURVE",
"428 427 OFFCURVE",
"428 597 CURVE",
"428 621 OFFCURVE",
"427 645 OFFCURVE",
"416 668 CURVE",
"394 716 OFFCURVE",
"357 744 OFFCURVE",
"304 750 CURVE",
"233 758 OFFCURVE",
"164 703 OFFCURVE",
"157 628 CURVE",
"156 619 OFFCURVE",
"156 609 OFFCURVE",
"156 599 CURVE",
"155 428 OFFCURVE",
"155 264 OFFCURVE",
"155 94 CURVE",
"155 88 OFFCURVE",
"156 83 OFFCURVE",
"155 77 CURVE",
"154 67 OFFCURVE",
"148 61 OFFCURVE",
"140 61 CURVE",
"131 61 OFFCURVE",
"125 67 OFFCURVE",
"124 77 CURVE",
"123 82 OFFCURVE",
"124 87 OFFCURVE",
"124 92 CURVE SMOOTH",
"124 181 OFFCURVE",
"124 264 OFFCURVE",
"124 353 CURVE"
);
},
{
closed = 1;
nodes = (
"321 818 OFFCURVE",
"349 812 OFFCURVE",
"375 800 CURVE",
"385 795 OFFCURVE",
"395 790 OFFCURVE",
"404 784 CURVE",
"416 777 OFFCURVE",
"429 773 OFFCURVE",
"442 773 CURVE",
"456 773 OFFCURVE",
"469 777 OFFCURVE",
"482 785 CURVE",
"510 802 OFFCURVE",
"537 812 OFFCURVE",
"563 816 CURVE",
"574 817 OFFCURVE",
"585 818 OFFCURVE",
"596 818 CURVE",
"646 818 OFFCURVE",
"689 802 OFFCURVE",
"727 769 CURVE",
"767 734 OFFCURVE",
"790 692 OFFCURVE",
"797 638 CURVE",
"798 629 OFFCURVE",
"798 619 OFFCURVE",
"799 606 CURVE",
"799 419 OFFCURVE",
"799 228 OFFCURVE",
"799 43 CURVE",
"799 42 LINE",
"799 37 OFFCURVE",
"798 34 OFFCURVE",
"798 32 CURVE SMOOTH",
"796 32 OFFCURVE",
"793 32 OFFCURVE",
"788 32 CURVE",
"777 32 OFFCURVE",
"766 32 OFFCURVE",
"755 32 CURVE",
"726 32 LINE SMOOTH",
"707 32 LINE SMOOTH",
"706 32 LINE SMOOTH",
"705 32 LINE",
"703 32 OFFCURVE",
"701 32 OFFCURVE",
"699 32 CURVE",
"698 32 OFFCURVE",
"697 32 OFFCURVE",
"696 32 CURVE SMOOTH",
"696 33 OFFCURVE",
"696 33 OFFCURVE",
"696 35 CURVE",
"696 37 OFFCURVE",
"696 39 OFFCURVE",
"696 42 CURVE",
"696 44 LINE SMOOTH",
"696 190 LINE",
"696 325 OFFCURVE",
"696 460 OFFCURVE",
"696 594 CURVE",
"696 615 OFFCURVE",
"694 638 OFFCURVE",
"682 661 CURVE",
"663 694 OFFCURVE",
"631 714 OFFCURVE",
"595 714 CURVE",
"589 714 OFFCURVE",
"583 713 OFFCURVE",
"577 712 CURVE",
"535 704 OFFCURVE",
"502 670 OFFCURVE",
"496 626 CURVE",
"495 617 OFFCURVE",
"494 607 OFFCURVE",
"494 596 CURVE",
"494 505 OFFCURVE",
"494 414 OFFCURVE",
"494 323 CURVE",
"494 230 OFFCURVE",
"494 137 OFFCURVE",
"494 44 CURVE",
"494 39 OFFCURVE",
"494 36 OFFCURVE",
"493 32 CURVE SMOOTH",
"491 32 OFFCURVE",
"490 32 OFFCURVE",
"488 32 CURVE",
"474 32 OFFCURVE",
"459 32 OFFCURVE",
"444 32 CURVE",
"429 32 OFFCURVE",
"413 32 OFFCURVE",
"397 32 CURVE",
"395 32 OFFCURVE",
"393 32 OFFCURVE",
"392 32 CURVE SMOOTH",
"392 32 OFFCURVE",
"392 32 OFFCURVE",
"392 32 CURVE SMOOTH",
"392 35 OFFCURVE",
"392 39 OFFCURVE",
"392 44 CURVE",
"392 90 OFFCURVE",
"392 136 OFFCURVE",
"392 182 CURVE",
"392 316 OFFCURVE",
"391 455 OFFCURVE",
"391 591 CURVE",
"391 614 OFFCURVE",
"389 631 OFFCURVE",
"383 647 CURVE",
"369 688 OFFCURVE",
"332 714 OFFCURVE",
"290 714 CURVE",
"265 714 OFFCURVE",
"242 705 OFFCURVE",
"223 688 CURVE",
"201 668 OFFCURVE",
"190 641 OFFCURVE",
"189 607 CURVE",
"189 593 OFFCURVE",
"189 578 OFFCURVE",
"189 565 CURVE",
"189 559 OFFCURVE",
"189 554 OFFCURVE",
"189 548 CURVE",
"189 456 LINE",
"189 318 OFFCURVE",
"189 181 OFFCURVE",
"189 43 CURVE",
"189 39 OFFCURVE",
"189 35 OFFCURVE",
"189 32 CURVE SMOOTH",
"187 32 OFFCURVE",
"184 32 OFFCURVE",
"182 32 CURVE",
"168 32 OFFCURVE",
"154 32 OFFCURVE",
"139 32 CURVE",
"124 32 OFFCURVE",
"109 32 OFFCURVE",
"94 32 CURVE",
"91 32 OFFCURVE",
"89 32 OFFCURVE",
"87 32 CURVE SMOOTH",
"87 35 OFFCURVE",
"87 39 OFFCURVE",
"87 43 CURVE",
"87 122 OFFCURVE",
"87 200 OFFCURVE",
"87 278 CURVE",
"87 332 LINE",
"87 332 OFFCURVE",
"87 333 OFFCURVE",
"87 334 CURVE SMOOTH",
"87 361 OFFCURVE",
"87 388 OFFCURVE",
"87 415 CURVE",
"87 479 OFFCURVE",
"87 546 OFFCURVE",
"87 611 CURVE",
"86 662 OFFCURVE",
"101 705 OFFCURVE",
"131 742 CURVE",
"167 786 OFFCURVE",
"212 811 OFFCURVE",
"268 817 CURVE",
"276 818 OFFCURVE",
"284 818 OFFCURVE",
"292 818 CURVE"
);
},
{
closed = 1;
nodes = (
"283 850 OFFCURVE",
"274 849 OFFCURVE",
"265 848 CURVE",
"200 841 OFFCURVE",
"147 813 OFFCURVE",
"107 762 CURVE",
"71 718 OFFCURVE",
"55 668 OFFCURVE",
"55 611 CURVE",
"55 518 OFFCURVE",
"55 425 OFFCURVE",
"55 332 CURVE SMOOTH",
"55 332 OFFCURVE",
"55 332 OFFCURVE",
"55 332 CURVE SMOOTH",
"55 236 OFFCURVE",
"55 139 OFFCURVE",
"55 43 CURVE",
"55 38 OFFCURVE",
"55 32 OFFCURVE",
"56 26 CURVE",
"59 10 OFFCURVE",
"65 3 OFFCURVE",
"81 1 CURVE",
"85 0 OFFCURVE",
"90 0 OFFCURVE",
"94 0 CURVE",
"109 0 OFFCURVE",
"124 0 OFFCURVE",
"139 0 CURVE",
"154 0 OFFCURVE",
"168 0 OFFCURVE",
"183 0 CURVE",
"188 0 OFFCURVE",
"194 1 OFFCURVE",
"199 2 CURVE",
"210 4 OFFCURVE",
"217 11 OFFCURVE",
"219 21 CURVE",
"220 29 OFFCURVE",
"221 36 OFFCURVE",
"221 43 CURVE",
"221 212 OFFCURVE",
"221 380 OFFCURVE",
"221 548 CURVE",
"221 568 OFFCURVE",
"221 587 OFFCURVE",
"221 606 CURVE",
"222 628 OFFCURVE",
"228 648 OFFCURVE",
"245 664 CURVE",
"258 676 OFFCURVE",
"274 682 OFFCURVE",
"290 682 CURVE",
"317 682 OFFCURVE",
"343 666 OFFCURVE",
"353 636 CURVE",
"358 622 OFFCURVE",
"359 606 OFFCURVE",
"359 591 CURVE",
"360 409 OFFCURVE",
"360 226 OFFCURVE",
"360 44 CURVE",
"360 38 OFFCURVE",
"360 33 OFFCURVE",
"361 27 CURVE",
"363 10 OFFCURVE",
"370 3 OFFCURVE",
"387 1 CURVE",
"390 0 OFFCURVE",
"394 0 OFFCURVE",
"397 0 CURVE",
"413 0 OFFCURVE",
"429 0 OFFCURVE",
"444 0 CURVE",
"459 0 OFFCURVE",
"474 0 OFFCURVE",
"488 0 CURVE",
"494 0 OFFCURVE",
"499 1 OFFCURVE",
"504 2 CURVE",
"515 4 OFFCURVE",
"522 11 OFFCURVE",
"524 22 CURVE",
"525 29 OFFCURVE",
"526 36 OFFCURVE",
"526 44 CURVE",
"526 228 OFFCURVE",
"526 412 OFFCURVE",
"526 596 CURVE",
"526 605 OFFCURVE",
"526 614 OFFCURVE",
"527 622 CURVE",
"531 652 OFFCURVE",
"554 676 OFFCURVE",
"583 681 CURVE",
"587 682 OFFCURVE",
"591 682 OFFCURVE",
"595 682 CURVE",
"619 682 OFFCURVE",
"641 669 OFFCURVE",
"654 646 CURVE",
"663 630 OFFCURVE",
"664 612 OFFCURVE",
"664 594 CURVE",
"664 411 OFFCURVE",
"664 228 OFFCURVE",
"664 44 CURVE",
"664 41 OFFCURVE",
"664 37 OFFCURVE",
"665 33 CURVE",
"666 11 OFFCURVE",
"676 1 OFFCURVE",
"698 0 CURVE",
"700 0 OFFCURVE",
"702 0 OFFCURVE",
"705 0 CURVE",
"705 0 OFFCURVE",
"706 0 OFFCURVE",
"707 0 CURVE",
"723 0 OFFCURVE",
"739 0 OFFCURVE",
"755 0 CURVE",
"766 0 OFFCURVE",
"777 0 OFFCURVE",
"788 0 CURVE",
"822 0 OFFCURVE",
"830 8 OFFCURVE",
"830 42 CURVE",
"830 230 OFFCURVE",
"830 418 OFFCURVE",
"830 607 CURVE",
"830 618 OFFCURVE",
"830 630 OFFCURVE",
"828 642 CURVE",
"821 703 OFFCURVE",
"794 753 OFFCURVE",
"748 793 CURVE",
"703 832 OFFCURVE",
"652 850 OFFCURVE",
"596 850 CURVE",
"584 850 OFFCURVE",
"572 849 OFFCURVE",
"559 847 CURVE",
"525 843 OFFCURVE",
"494 830 OFFCURVE",
"465 812 CURVE",
"458 807 OFFCURVE",
"450 804 OFFCURVE",
"442 804 CURVE",
"435 804 OFFCURVE",
"428 807 OFFCURVE",
"421 811 CURVE",
"411 817 OFFCURVE",
"400 823 OFFCURVE",
"389 828 CURVE",
"358 843 OFFCURVE",
"325 850 OFFCURVE",
"292 850 CURVE"
);
}
);
width = 880;
}
);
leftKerningGroup = "30";
rightKerningGroup = "30";
unicode = 004D;
},
{
glyphname = "N";
lastChange = "2013-07-19 15:22:56 -0500";
layers = (
{
layerId = "28EF9373-0834-4819-8430-40544DAC9A78";
name = "Light";
paths = (
{
closed = 1;
nodes = (
"188 819 OFFCURVE",
"193 816 OFFCURVE",
"198 807 CURVE SMOOTH",
"243 729 OFFCURVE",
"287 652 OFFCURVE",
"340 561 CURVE SMOOTH",
"384 484 OFFCURVE",
"420 421 OFFCURVE",
"454 363 CURVE SMOOTH",
"459 353 OFFCURVE",
"465 345 OFFCURVE",
"471 338 CURVE SMOOTH",
"479 331 OFFCURVE",
"491 323 OFFCURVE",
"505 323 CURVE SMOOTH",
"509 323 OFFCURVE",
"513 323 OFFCURVE",
"516 324 CURVE SMOOTH",
"533 329 OFFCURVE",
"544 346 OFFCURVE",
"546 359 CURVE SMOOTH",
"549 371 OFFCURVE",
"550 384 OFFCURVE",
"550 397 CURVE SMOOTH",
"550 475 OFFCURVE",
"550 554 OFFCURVE",
"550 632 CURVE SMOOTH",
"550 690 OFFCURVE",
"550 749 OFFCURVE",
"550 807 CURVE SMOOTH",
"550 811 OFFCURVE",
"550 815 OFFCURVE",
"550 818 CURVE",
"552 818 OFFCURVE",
"554 819 OFFCURVE",
"555 819 CURVE SMOOTH",
"570 819 OFFCURVE",
"585 819 OFFCURVE",
"600 819 CURVE SMOOTH",
"628 819 LINE",
"646 819 LINE SMOOTH",
"647 819 OFFCURVE",
"649 819 OFFCURVE",
"650 818 CURVE SMOOTH",
"651 818 OFFCURVE",
"651 818 OFFCURVE",
"652 818 CURVE",
"652 818 OFFCURVE",
"652 817 OFFCURVE",
"652 817 CURVE SMOOTH",
"652 815 OFFCURVE",
"652 812 OFFCURVE",
"652 809 CURVE SMOOTH",
"652 807 LINE",
"652 760 LINE SMOOTH",
"652 521 OFFCURVE",
"652 283 OFFCURVE",
"652 44 CURVE SMOOTH",
"652 40 OFFCURVE",
"652 37 OFFCURVE",
"651 33 CURVE",
"649 33 OFFCURVE",
"646 33 OFFCURVE",
"644 33 CURVE SMOOTH",
"640 33 LINE SMOOTH",
"632 33 OFFCURVE",
"624 33 OFFCURVE",
"616 33 CURVE SMOOTH",
"608 33 OFFCURVE",
"600 33 OFFCURVE",
"592 33 CURVE SMOOTH",
"579 33 OFFCURVE",
"568 33 OFFCURVE",
"558 32 CURVE SMOOTH",
"557 32 OFFCURVE",
"556 32 OFFCURVE",
"554 32 CURVE SMOOTH",
"543 32 OFFCURVE",
"535 35 OFFCURVE",
"525 53 CURVE SMOOTH",
"504 92 OFFCURVE",
"481 131 OFFCURVE",
"459 169 CURVE SMOOTH",
"449 187 OFFCURVE",
"438 206 OFFCURVE",
"428 224 CURVE SMOOTH",
"412 252 OFFCURVE",
"396 280 OFFCURVE",
"380 308 CURVE SMOOTH",
"351 359 OFFCURVE",
"321 412 OFFCURVE",
"291 465 CURVE SMOOTH",
"283 478 OFFCURVE",
"274 490 OFFCURVE",
"267 499 CURVE SMOOTH",
"260 508 OFFCURVE",
"247 516 OFFCURVE",
"232 516 CURVE SMOOTH",
"228 516 OFFCURVE",
"223 515 OFFCURVE",
"219 514 CURVE SMOOTH",
"204 508 OFFCURVE",
"194 492 OFFCURVE",
"192 479 CURVE SMOOTH",
"190 467 OFFCURVE",
"189 455 OFFCURVE",
"189 443 CURVE SMOOTH",
"189 366 OFFCURVE",
"189 290 OFFCURVE",
"189 213 CURVE SMOOTH",
"188 157 OFFCURVE",
"188 100 OFFCURVE",
"188 44 CURVE SMOOTH",
"188 40 OFFCURVE",
"188 36 OFFCURVE",
"188 33 CURVE",
"186 33 OFFCURVE",
"185 33 OFFCURVE",
"183 33 CURVE SMOOTH",
"169 33 OFFCURVE",
"154 33 OFFCURVE",
"139 33 CURVE SMOOTH",
"124 33 OFFCURVE",
"109 33 OFFCURVE",
"93 33 CURVE SMOOTH",
"91 33 LINE SMOOTH",
"90 33 OFFCURVE",
"88 33 OFFCURVE",
"87 33 CURVE",
"87 33 OFFCURVE",
"87 33 OFFCURVE",
"87 33 CURVE",
"86 36 OFFCURVE",
"86 40 OFFCURVE",
"86 44 CURVE",
"86 148 OFFCURVE",
"86 252 OFFCURVE",
"86 356 CURVE SMOOTH",
"86 426 LINE",
"86 494 LINE",
"86 599 OFFCURVE",
"86 703 OFFCURVE",
"86 808 CURVE SMOOTH",
"86 811 OFFCURVE",
"87 815 OFFCURVE",
"87 818 CURVE",
"89 818 OFFCURVE",
"91 819 OFFCURVE",
"93 819 CURVE SMOOTH",
"97 819 OFFCURVE",
"102 819 OFFCURVE",
"106 819 CURVE SMOOTH",
"112 819 OFFCURVE",
"119 819 OFFCURVE",
"126 819 CURVE SMOOTH",
"132 818 OFFCURVE",
"139 818 OFFCURVE",
"146 818 CURVE SMOOTH",
"158 818 OFFCURVE",
"169 819 OFFCURVE",
"178 819 CURVE SMOOTH",
"179 819 LINE SMOOTH"
);
},
{
closed = 1;
nodes = (
"178 850 OFFCURVE",
"178 850 OFFCURVE",
"177 850 CURVE SMOOTH",
"167 850 OFFCURVE",
"156 850 OFFCURVE",
"146 850 CURVE SMOOTH",
"132 850 OFFCURVE",
"119 850 OFFCURVE",
"106 850 CURVE SMOOTH",
"102 850 OFFCURVE",
"97 850 OFFCURVE",
"93 850 CURVE SMOOTH",
"87 850 OFFCURVE",
"82 850 OFFCURVE",
"76 848 CURVE SMOOTH",
"66 846 OFFCURVE",
"59 839 OFFCURVE",
"57 829 CURVE SMOOTH",
"55 822 OFFCURVE",
"55 815 OFFCURVE",
"55 808 CURVE SMOOTH",
"55 681 OFFCURVE",
"55 553 OFFCURVE",
"55 426 CURVE SMOOTH",
"55 299 OFFCURVE",
"55 171 OFFCURVE",
"55 44 CURVE SMOOTH",
"55 39 OFFCURVE",
"55 33 OFFCURVE",
"56 28 CURVE SMOOTH",
"58 11 OFFCURVE",
"65 4 OFFCURVE",
"82 2 CURVE SMOOTH",
"85 1 OFFCURVE",
"88 1 OFFCURVE",
"91 1 CURVE SMOOTH",
"107 1 OFFCURVE",
"123 1 OFFCURVE",
"139 1 CURVE SMOOTH",
"154 1 OFFCURVE",
"169 1 OFFCURVE",
"184 1 CURVE SMOOTH",
"189 1 OFFCURVE",
"194 2 OFFCURVE",
"199 3 CURVE SMOOTH",
"209 5 OFFCURVE",
"216 12 OFFCURVE",
"218 23 CURVE SMOOTH",
"220 30 OFFCURVE",
"220 37 OFFCURVE",
"220 44 CURVE SMOOTH",
"220 177 OFFCURVE",
"220 310 OFFCURVE",
"220 443 CURVE SMOOTH",
"220 453 OFFCURVE",
"221 463 OFFCURVE",
"223 474 CURVE SMOOTH",
"224 478 OFFCURVE",
"227 483 OFFCURVE",
"231 484 CURVE SMOOTH",
"231 485 OFFCURVE",
"232 485 OFFCURVE",
"232 485 CURVE SMOOTH",
"235 485 OFFCURVE",
"240 482 OFFCURVE",
"242 479 CURVE SMOOTH",
"250 470 OFFCURVE",
"257 460 OFFCURVE",
"263 449 CURVE SMOOTH",
"309 369 OFFCURVE",
"355 289 OFFCURVE",
"400 209 CURVE SMOOTH",
"433 152 OFFCURVE",
"466 95 OFFCURVE",
"497 38 CURVE SMOOTH",
"510 14 OFFCURVE",
"527 0 OFFCURVE",
"554 0 CURVE SMOOTH",
"556 0 OFFCURVE",
"558 0 OFFCURVE",
"560 1 CURVE SMOOTH",
"571 1 OFFCURVE",
"581 1 OFFCURVE",
"592 1 CURVE SMOOTH",
"608 1 OFFCURVE",
"624 1 OFFCURVE",
"640 1 CURVE SMOOTH",
"641 1 OFFCURVE",
"643 1 OFFCURVE",
"644 1 CURVE SMOOTH",
"650 1 OFFCURVE",
"655 2 OFFCURVE",
"661 3 CURVE SMOOTH",
"672 5 OFFCURVE",
"680 12 OFFCURVE",
"682 24 CURVE SMOOTH",
"683 30 OFFCURVE",
"684 37 OFFCURVE",
"684 44 CURVE SMOOTH",
"684 298 OFFCURVE",
"684 553 OFFCURVE",
"684 807 CURVE",
"684 812 OFFCURVE",
"684 816 OFFCURVE",
"683 820 CURVE SMOOTH",
"681 840 OFFCURVE",
"673 848 OFFCURVE",
"653 850 CURVE SMOOTH",
"651 850 OFFCURVE",
"649 850 OFFCURVE",
"646 850 CURVE SMOOTH",
"631 850 OFFCURVE",
"616 850 OFFCURVE",
"600 850 CURVE SMOOTH",
"585 850 OFFCURVE",
"570 850 OFFCURVE",
"555 850 CURVE SMOOTH",
"550 850 OFFCURVE",
"545 849 OFFCURVE",
"540 848 CURVE SMOOTH",
"529 846 OFFCURVE",
"522 839 OFFCURVE",
"520 828 CURVE SMOOTH",
"519 821 OFFCURVE",
"518 814 OFFCURVE",
"518 807 CURVE SMOOTH",
"518 670 OFFCURVE",
"518 534 OFFCURVE",
"518 397 CURVE SMOOTH",
"518 386 OFFCURVE",
"517 376 OFFCURVE",
"515 365 CURVE SMOOTH",
"515 361 OFFCURVE",
"510 356 OFFCURVE",
"507 354 CURVE SMOOTH",
"506 354 OFFCURVE",
"506 354 OFFCURVE",
"505 354 CURVE SMOOTH",
"502 354 OFFCURVE",
"497 357 OFFCURVE",
"495 360 CURVE SMOOTH",
"489 366 OFFCURVE",
"485 372 OFFCURVE",
"481 379 CURVE SMOOTH",
"443 445 OFFCURVE",
"405 511 OFFCURVE",
"367 576 CURVE SMOOTH",
"320 658 OFFCURVE",
"273 741 OFFCURVE",
"226 823 CURVE SMOOTH",
"215 841 OFFCURVE",
"200 850 OFFCURVE",
"179 850 CURVE SMOOTH"
);
},
{
closed = 1;
nodes = (
"125 528 OFFCURVE",
"125 636 OFFCURVE",
"125 743 CURVE SMOOTH",
"125 751 OFFCURVE",
"125 759 OFFCURVE",
"131 766 CURVE SMOOTH",
"145 781 OFFCURVE",
"172 778 OFFCURVE",
"184 759 CURVE SMOOTH",
"198 737 OFFCURVE",
"211 714 OFFCURVE",
"225 691 CURVE SMOOTH",
"319 535 OFFCURVE",
"412 380 OFFCURVE",
"506 224 CURVE SMOOTH",
"526 190 OFFCURVE",
"547 157 OFFCURVE",
"567 123 CURVE SMOOTH",
"569 120 OFFCURVE",
"571 117 OFFCURVE",
"573 115 CURVE SMOOTH",
"576 113 OFFCURVE",
"580 111 OFFCURVE",
"582 112 CURVE SMOOTH",
"584 113 OFFCURVE",
"587 116 OFFCURVE",
"587 119 CURVE SMOOTH",
"588 125 OFFCURVE",
"588 131 OFFCURVE",
"588 137 CURVE SMOOTH",
"588 336 OFFCURVE",
"588 534 OFFCURVE",
"588 732 CURVE SMOOTH",
"588 738 OFFCURVE",
"588 743 OFFCURVE",
"589 749 CURVE SMOOTH",
"590 757 OFFCURVE",
"595 761 OFFCURVE",
"605 761 CURVE SMOOTH",
"614 761 OFFCURVE",
"620 757 OFFCURVE",
"621 749 CURVE SMOOTH",
"622 745 OFFCURVE",
"622 742 OFFCURVE",
"622 738 CURVE SMOOTH",
"622 529 OFFCURVE",
"622 319 OFFCURVE",
"622 109 CURVE SMOOTH",
"622 107 OFFCURVE",
"622 105 OFFCURVE",
"621 103 CURVE SMOOTH",
"621 86 OFFCURVE",
"615 80 OFFCURVE",
"598 79 CURVE SMOOTH",
"589 79 OFFCURVE",
"580 80 OFFCURVE",
"571 79 CURVE SMOOTH",
"559 79 OFFCURVE",
"551 84 OFFCURVE",
"545 94 CURVE SMOOTH",
"514 147 OFFCURVE",
"482 199 OFFCURVE",
"451 251 CURVE SMOOTH",
"359 403 OFFCURVE",
"268 555 OFFCURVE",
"176 707 CURVE SMOOTH",
"174 710 OFFCURVE",
"172 714 OFFCURVE",
"169 717 CURVE SMOOTH",
"163 723 OFFCURVE",
"159 721 OFFCURVE",
"158 714 CURVE SMOOTH",
"157 708 OFFCURVE",
"157 701 OFFCURVE",
"157 695 CURVE SMOOTH",
"157 578 OFFCURVE",
"157 462 OFFCURVE",
"157 345 CURVE SMOOTH",
"157 266 OFFCURVE",
"157 186 OFFCURVE",
"157 106 CURVE SMOOTH",
"157 102 OFFCURVE",
"157 97 OFFCURVE",
"156 93 CURVE SMOOTH",
"156 82 OFFCURVE",
"151 76 OFFCURVE",
"140 77 CURVE SMOOTH",
"130 77 OFFCURVE",
"125 82 OFFCURVE",
"125 92 CURVE SMOOTH",
"125 97 OFFCURVE",
"125 102 OFFCURVE",
"125 107 CURVE",
"125 212 OFFCURVE",
"125 316 OFFCURVE",
"125 421 CURVE SMOOTH"
);
},
{
closed = 1;
nodes = (
"224 542 OFFCURVE",
"218 539 OFFCURVE",
"212 538 CURVE SMOOTH",
"206 536 OFFCURVE",
"200 537 OFFCURVE",
"197 543 CURVE SMOOTH",
"196 546 OFFCURVE",
"195 549 OFFCURVE",
"194 552 CURVE SMOOTH",
"190 570 OFFCURVE",
"187 588 OFFCURVE",
"183 606 CURVE SMOOTH",
"183 607 OFFCURVE",
"182 609 OFFCURVE",
"182 610 CURVE SMOOTH",
"183 614 OFFCURVE",
"185 617 OFFCURVE",
"186 621 CURVE",
"189 619 OFFCURVE",
"193 617 OFFCURVE",
"195 614 CURVE SMOOTH",
"204 595 OFFCURVE",
"214 576 OFFCURVE",
"223 557 CURVE SMOOTH",
"224 555 OFFCURVE",
"224 552 OFFCURVE",
"225 551 CURVE"
);
},
{
closed = 1;
nodes = (
"523 289 OFFCURVE",
"529 291 OFFCURVE",
"535 293 CURVE SMOOTH",
"542 295 OFFCURVE",
"547 294 OFFCURVE",
"550 287 CURVE SMOOTH",
"552 285 OFFCURVE",
"553 281 OFFCURVE",
"554 278 CURVE SMOOTH",
"557 260 OFFCURVE",
"561 242 OFFCURVE",
"565 225 CURVE SMOOTH",
"565 223 OFFCURVE",
"566 221 OFFCURVE",
"565 220 CURVE SMOOTH",
"564 217 OFFCURVE",
"563 213 OFFCURVE",
"561 210 CURVE",
"559 212 OFFCURVE",
"555 213 OFFCURVE",
"553 216 CURVE SMOOTH",
"543 235 OFFCURVE",
"534 254 OFFCURVE",
"525 273 CURVE SMOOTH",
"524 275 OFFCURVE",
"523 278 OFFCURVE",
"523 279 CURVE"
);
}
);
width = 737;
}
);
leftKerningGroup = "30";
rightKerningGroup = "30";
unicode = 004E;
},
{
glyphname = "O";
lastChange = "2013-07-19 15:23:01 -0500";
layers = (
{
layerId = "28EF9373-0834-4819-8430-40544DAC9A78";
name = "Light";
paths = (
{
closed = 1;
nodes = (
"532 374 OFFCURVE",
"532 324 OFFCURVE",
"532 274 CURVE SMOOTH",
"532 223 OFFCURVE",
"516 178 OFFCURVE",
"484 139 CURVE SMOOTH",
"395 35 OFFCURVE",
"234 44 OFFCURVE",
"158 158 CURVE SMOOTH",
"133 193 OFFCURVE",
"122 232 OFFCURVE",
"122 275 CURVE SMOOTH",
"122 374 OFFCURVE",
"122 473 OFFCURVE",
"122 572 CURVE SMOOTH",
"122 679 OFFCURVE",
"201 769 OFFCURVE",
"304 780 CURVE SMOOTH",
"413 792 OFFCURVE",
"511 717 OFFCURVE",
"530 608 CURVE SMOOTH",
"531 598 OFFCURVE",
"532 588 OFFCURVE",
"532 578 CURVE SMOOTH",
"532 527 OFFCURVE",
"532 475 OFFCURVE",
"532 424 CURVE SMOOTH"
);
},
{
closed = 1;
nodes = (
"501 472 OFFCURVE",
"501 520 OFFCURVE",
"501 568 CURVE SMOOTH",
"502 609 OFFCURVE",
"490 646 OFFCURVE",
"466 678 CURVE SMOOTH",
"428 728 OFFCURVE",
"377 753 OFFCURVE",
"315 748 CURVE SMOOTH",
"220 741 OFFCURVE",
"153 664 OFFCURVE",
"153 566 CURVE SMOOTH",
"153 471 OFFCURVE",
"153 376 OFFCURVE",
"153 281 CURVE SMOOTH",
"153 275 OFFCURVE",
"153 269 OFFCURVE",
"153 263 CURVE SMOOTH",
"163 164 OFFCURVE",
"244 97 OFFCURVE",
"331 98 CURVE SMOOTH",
"423 100 OFFCURVE",
"501 180 OFFCURVE",
"501 273 CURVE SMOOTH",
"501 323 OFFCURVE",
"501 373 OFFCURVE",
"501 423 CURVE SMOOTH"
);
},
{
closed = 1;
nodes = (
"326 818 LINE",
"360 818 OFFCURVE",
"396 809 OFFCURVE",
"432 791 CURVE SMOOTH",
"507 753 OFFCURVE",
"552 689 OFFCURVE",
"565 601 CURVE SMOOTH",
"566 592 OFFCURVE",
"566 582 OFFCURVE",
"566 571 CURVE SMOOTH",
"567 535 OFFCURVE",
"567 499 OFFCURVE",
"567 463 CURVE SMOOTH",
"566 424 LINE SMOOTH",
"566 408 OFFCURVE",
"567 393 OFFCURVE",
"567 378 CURVE SMOOTH",
"567 345 OFFCURVE",
"567 311 OFFCURVE",
"566 278 CURVE SMOOTH",
"566 205 OFFCURVE",
"540 146 OFFCURVE",
"489 97 CURVE SMOOTH",
"450 59 OFFCURVE",
"402 37 OFFCURVE",
"347 32 CURVE SMOOTH",
"339 32 OFFCURVE",
"331 31 OFFCURVE",
"324 31 CURVE SMOOTH",
"280 31 OFFCURVE",
"238 43 OFFCURVE",
"202 67 CURVE SMOOTH",
"135 109 OFFCURVE",
"98 167 OFFCURVE",
"87 246 CURVE SMOOTH",
"86 256 OFFCURVE",
"86 266 OFFCURVE",
"86 275 CURVE SMOOTH",
"86 303 OFFCURVE",
"86 331 OFFCURVE",
"85 359 CURVE SMOOTH",
"85 429 OFFCURVE",
"85 502 OFFCURVE",
"86 573 CURVE SMOOTH",
"88 671 OFFCURVE",
"132 744 OFFCURVE",
"218 790 CURVE SMOOTH",
"254 808 OFFCURVE",
"290 818 OFFCURVE",
"326 818 CURVE",
"326 850 LINE"
);
},
{
closed = 1;
nodes = (
"186 426 OFFCURVE",
"186 425 OFFCURVE",
"186 425 CURVE SMOOTH",
"186 285 LINE SMOOTH",
"186 284 OFFCURVE",
"186 283 OFFCURVE",
"186 281 CURVE SMOOTH",
"187 238 OFFCURVE",
"203 202 OFFCURVE",
"231 174 CURVE SMOOTH",
"257 149 OFFCURVE",
"291 135 OFFCURVE",
"326 135 CURVE SMOOTH",
"370 135 OFFCURVE",
"411 156 OFFCURVE",
"437 192 CURVE SMOOTH",
"456 218 OFFCURVE",
"466 250 OFFCURVE",
"466 285 CURVE SMOOTH",
"466 373 OFFCURVE",
"466 462 OFFCURVE",
"466 553 CURVE SMOOTH",
"466 560 OFFCURVE",
"466 572 OFFCURVE",
"464 584 CURVE SMOOTH",
"457 643 OFFCURVE",
"425 685 OFFCURVE",
"370 705 CURVE SMOOTH",
"356 710 OFFCURVE",
"341 713 OFFCURVE",
"326 713 CURVE SMOOTH",
"286 713 OFFCURVE",
"246 694 OFFCURVE",
"219 662 CURVE SMOOTH",
"198 635 OFFCURVE",
"187 603 OFFCURVE",
"186 567 CURVE SMOOTH",
"186 533 OFFCURVE",
"186 499 OFFCURVE",
"186 466 CURVE SMOOTH",
"186 453 OFFCURVE",
"186 439 OFFCURVE",
"186 426 CURVE"
);
},
{
closed = 1;
nodes = (
"285 850 OFFCURVE",
"244 839 OFFCURVE",
"205 818 CURVE SMOOTH",
"108 767 OFFCURVE",
"57 684 OFFCURVE",
"55 574 CURVE SMOOTH",
"54 474 OFFCURVE",
"55 375 OFFCURVE",
"55 275 CURVE SMOOTH",
"55 264 OFFCURVE",
"55 253 OFFCURVE",
"57 242 CURVE SMOOTH",
"69 154 OFFCURVE",
"112 87 OFFCURVE",
"185 40 CURVE SMOOTH",
"228 13 OFFCURVE",
"274 0 OFFCURVE",
"324 0 CURVE SMOOTH",
"332 0 OFFCURVE",
"341 0 OFFCURVE",
"349 1 CURVE SMOOTH",
"411 6 OFFCURVE",
"465 30 OFFCURVE",
"511 73 CURVE SMOOTH",
"568 129 OFFCURVE",
"597 197 OFFCURVE",
"597 277 CURVE SMOOTH",
"597 326 OFFCURVE",
"597 375 OFFCURVE",
"597 424 CURVE SMOOTH",
"597 473 OFFCURVE",
"597 522 OFFCURVE",
"597 571 CURVE SMOOTH",
"597 583 OFFCURVE",
"597 594 OFFCURVE",
"595 606 CURVE SMOOTH",
"581 703 OFFCURVE",
"531 776 OFFCURVE",
"445 820 CURVE SMOOTH",
"405 839 OFFCURVE",
"366 850 OFFCURVE",
"326 850 CURVE SMOOTH"
);
},
{
closed = 1;
nodes = (
"300 167 OFFCURVE",
"273 177 OFFCURVE",
"253 196 CURVE SMOOTH",
"229 220 OFFCURVE",
"218 249 OFFCURVE",
"217 282 CURVE SMOOTH",
"217 283 OFFCURVE",
"217 284 OFFCURVE",
"217 285 CURVE SMOOTH",
"217 332 OFFCURVE",
"217 378 OFFCURVE",
"217 425 CURVE",
"217 425 OFFCURVE",
"217 425 OFFCURVE",
"217 425 CURVE",
"217 472 OFFCURVE",
"217 519 OFFCURVE",
"217 566 CURVE SMOOTH",
"217 594 OFFCURVE",
"226 620 OFFCURVE",
"244 641 CURVE SMOOTH",
"264 667 OFFCURVE",
"295 681 OFFCURVE",
"326 681 CURVE SMOOTH",
"337 681 OFFCURVE",
"348 679 OFFCURVE",
"359 675 CURVE SMOOTH",
"403 659 OFFCURVE",
"428 627 OFFCURVE",
"434 580 CURVE SMOOTH",
"435 571 OFFCURVE",
"435 562 OFFCURVE",
"435 553 CURVE SMOOTH",
"435 464 OFFCURVE",
"435 375 OFFCURVE",
"435 285 CURVE SMOOTH",
"435 258 OFFCURVE",
"428 233 OFFCURVE",
"412 211 CURVE SMOOTH",
"392 182 OFFCURVE",
"358 167 OFFCURVE",
"326 167 CURVE SMOOTH"
);
}
);
width = 653;
}
);
leftKerningGroup = "30";
rightKerningGroup = "30";
unicode = 004F;
},
{
glyphname = "P";
lastChange = "2013-07-19 15:23:05 -0500";
layers = (
{
layerId = "28EF9373-0834-4819-8430-40544DAC9A78";
name = "Light";
paths = (
{
closed = 1;
nodes = (
"309 818 OFFCURVE",
"346 818 OFFCURVE",
"380 818 CURVE SMOOTH",
"433 817 OFFCURVE",
"478 799 OFFCURVE",
"519 760 CURVE SMOOTH",
"561 721 OFFCURVE",
"586 673 OFFCURVE",
"593 616 CURVE SMOOTH",
"598 571 OFFCURVE",
"591 526 OFFCURVE",
"573 482 CURVE SMOOTH",
"560 453 OFFCURVE",
"543 428 OFFCURVE",
"521 407 CURVE SMOOTH",
"482 369 OFFCURVE",
"439 349 OFFCURVE",
"390 347 CURVE SMOOTH",
"362 345 OFFCURVE",
"333 345 OFFCURVE",
"305 345 CURVE SMOOTH",
"291 345 OFFCURVE",
"276 345 OFFCURVE",
"261 345 CURVE SMOOTH",
"253 345 OFFCURVE",
"244 344 OFFCURVE",
"237 343 CURVE SMOOTH",
"213 338 OFFCURVE",
"196 321 OFFCURVE",
"192 298 CURVE SMOOTH",
"190 290 OFFCURVE",
"189 281 OFFCURVE",
"189 273 CURVE SMOOTH",
"189 221 OFFCURVE",
"189 170 OFFCURVE",
"189 118 CURVE SMOOTH",
"189 43 LINE SMOOTH",
"189 38 OFFCURVE",
"189 34 OFFCURVE",
"189 32 CURVE",
"186 32 OFFCURVE",
"183 31 OFFCURVE",
"178 31 CURVE SMOOTH",
"168 31 OFFCURVE",
"157 31 OFFCURVE",
"147 31 CURVE SMOOTH",
"131 31 OFFCURVE",
"114 31 OFFCURVE",
"98 31 CURVE SMOOTH",
"97 31 LINE",
"96 31 LINE",
"94 31 LINE SMOOTH",
"92 31 OFFCURVE",
"91 31 OFFCURVE",
"89 32 CURVE SMOOTH",
"88 32 OFFCURVE",
"88 32 OFFCURVE",
"87 32 CURVE",
"87 32 OFFCURVE",
"87 33 OFFCURVE",
"87 34 CURVE SMOOTH",
"87 36 OFFCURVE",
"87 38 OFFCURVE",
"87 41 CURVE SMOOTH",
"87 44 LINE",
"87 171 OFFCURVE",
"87 298 OFFCURVE",
"87 425 CURVE SMOOTH",
"87 491 LINE",
"87 596 OFFCURVE",
"87 701 OFFCURVE",
"87 806 CURVE SMOOTH",
"87 810 OFFCURVE",
"87 814 OFFCURVE",
"88 817 CURVE",
"90 818 OFFCURVE",
"92 818 OFFCURVE",
"94 818 CURVE SMOOTH",
"116 818 OFFCURVE",
"137 818 OFFCURVE",
"158 818 CURVE SMOOTH",
"194 818 OFFCURVE",
"229 818 OFFCURVE",
"265 818 CURVE SMOOTH"
);
},
{
closed = 1;
nodes = (
"317 715 OFFCURVE",
"308 715 OFFCURVE",
"299 715 CURVE SMOOTH",
"290 715 OFFCURVE",
"281 715 OFFCURVE",
"271 715 CURVE SMOOTH",
"267 715 OFFCURVE",
"263 715 OFFCURVE",
"259 715 CURVE SMOOTH",
"252 715 OFFCURVE",
"245 714 OFFCURVE",
"237 713 CURVE SMOOTH",
"213 708 OFFCURVE",
"196 691 OFFCURVE",
"192 668 CURVE SMOOTH",
"190 660 OFFCURVE",
"189 653 OFFCURVE",
"189 645 CURVE SMOOTH",
"189 630 OFFCURVE",
"189 614 OFFCURVE",
"189 599 CURVE SMOOTH",
"189 582 LINE",
"189 564 LINE SMOOTH",
"189 549 OFFCURVE",
"189 533 OFFCURVE",
"189 518 CURVE SMOOTH",
"189 511 OFFCURVE",
"190 504 OFFCURVE",
"192 496 CURVE SMOOTH",
"196 472 OFFCURVE",
"213 454 OFFCURVE",
"238 450 CURVE SMOOTH",
"243 449 OFFCURVE",
"250 448 OFFCURVE",
"257 448 CURVE SMOOTH",
"278 448 LINE SMOOTH",
"291 448 OFFCURVE",
"304 448 OFFCURVE",
"317 448 CURVE SMOOTH",
"335 448 OFFCURVE",
"350 448 OFFCURVE",
"365 448 CURVE SMOOTH",
"393 448 OFFCURVE",
"416 456 OFFCURVE",
"436 470 CURVE SMOOTH",
"466 493 OFFCURVE",
"483 525 OFFCURVE",
"489 568 CURVE SMOOTH",
"495 605 OFFCURVE",
"483 644 OFFCURVE",
"458 673 CURVE SMOOTH",
"435 700 OFFCURVE",
"402 715 OFFCURVE",
"365 715 CURVE SMOOTH",
"364 715 OFFCURVE",
"363 715 OFFCURVE",
"362 715 CURVE SMOOTH",
"352 715 OFFCURVE",
"340 715 OFFCURVE",
"326 715 CURVE SMOOTH"
);
},
{
closed = 1;
nodes = (
"208 850 OFFCURVE",
"151 850 OFFCURVE",
"94 849 CURVE SMOOTH",
"89 849 OFFCURVE",
"83 849 OFFCURVE",
"78 848 CURVE SMOOTH",
"66 846 OFFCURVE",
"59 838 OFFCURVE",
"57 827 CURVE SMOOTH",
"56 820 OFFCURVE",
"55 813 OFFCURVE",
"55 806 CURVE SMOOTH",
"55 679 OFFCURVE",
"55 552 OFFCURVE",
"55 425 CURVE SMOOTH",
"55 298 OFFCURVE",
"55 171 OFFCURVE",
"55 44 CURVE SMOOTH",
"55 40 OFFCURVE",
"55 35 OFFCURVE",
"55 31 CURVE SMOOTH",
"57 10 OFFCURVE",
"66 2 OFFCURVE",
"87 0 CURVE SMOOTH",
"89 0 OFFCURVE",
"92 0 OFFCURVE",
"94 0 CURVE SMOOTH",
"95 0 OFFCURVE",
"96 0 OFFCURVE",
"97 0 CURVE SMOOTH",
"114 0 OFFCURVE",
"130 0 OFFCURVE",
"147 0 CURVE SMOOTH",
"157 0 OFFCURVE",
"168 0 OFFCURVE",
"178 0 CURVE SMOOTH",
"213 0 OFFCURVE",
"221 8 OFFCURVE",
"221 43 CURVE SMOOTH",
"221 120 OFFCURVE",
"221 196 OFFCURVE",
"221 273 CURVE SMOOTH",
"221 279 OFFCURVE",
"222 286 OFFCURVE",
"223 292 CURVE SMOOTH",
"225 303 OFFCURVE",
"232 309 OFFCURVE",
"243 312 CURVE SMOOTH",
"249 313 OFFCURVE",
"255 313 OFFCURVE",
"262 313 CURVE SMOOTH",
"305 314 OFFCURVE",
"348 313 OFFCURVE",
"392 315 CURVE SMOOTH",
"451 318 OFFCURVE",
"501 343 OFFCURVE",
"543 384 CURVE SMOOTH",
"569 409 OFFCURVE",
"588 438 OFFCURVE",
"602 470 CURVE SMOOTH",
"622 518 OFFCURVE",
"630 568 OFFCURVE",
"624 620 CURVE SMOOTH",
"616 685 OFFCURVE",
"588 739 OFFCURVE",
"541 783 CURVE SMOOTH",
"496 825 OFFCURVE",
"443 849 OFFCURVE",
"381 849 CURVE SMOOTH",
"342 850 OFFCURVE",
"304 850 OFFCURVE",
"265 850 CURVE SMOOTH"
);
},
{
closed = 1;
nodes = (
"338 683 OFFCURVE",
"351 683 OFFCURVE",
"363 684 CURVE SMOOTH",
"364 684 OFFCURVE",
"364 684 OFFCURVE",
"365 684 CURVE SMOOTH",
"430 684 OFFCURVE",
"465 622 OFFCURVE",
"458 572 CURVE SMOOTH",
"454 541 OFFCURVE",
"442 515 OFFCURVE",
"416 495 CURVE SMOOTH",
"401 484 OFFCURVE",
"383 480 OFFCURVE",
"364 480 CURVE SMOOTH",
"348 479 OFFCURVE",
"333 479 OFFCURVE",
"317 479 CURVE SMOOTH",
"297 479 OFFCURVE",
"277 479 OFFCURVE",
"257 480 CURVE SMOOTH",
"252 480 OFFCURVE",
"248 480 OFFCURVE",
"244 481 CURVE SMOOTH",
"232 483 OFFCURVE",
"225 490 OFFCURVE",
"223 502 CURVE SMOOTH",
"222 507 OFFCURVE",
"221 513 OFFCURVE",
"221 518 CURVE SMOOTH",
"221 539 OFFCURVE",
"221 561 OFFCURVE",
"221 582 CURVE SMOOTH",
"221 603 OFFCURVE",
"221 624 OFFCURVE",
"221 645 CURVE SMOOTH",
"221 651 OFFCURVE",
"222 656 OFFCURVE",
"223 662 CURVE SMOOTH",
"225 673 OFFCURVE",
"232 680 OFFCURVE",
"243 682 CURVE SMOOTH",
"248 683 OFFCURVE",
"254 683 OFFCURVE",
"260 683 CURVE SMOOTH",
"264 684 OFFCURVE",
"267 684 OFFCURVE",
"271 684 CURVE SMOOTH",
"289 684 OFFCURVE",
"308 683 OFFCURVE",
"326 683 CURVE SMOOTH"
);
},
{
closed = 1;
nodes = (
"123 536 OFFCURVE",
"123 648 OFFCURVE",
"123 760 CURVE SMOOTH",
"123 783 OFFCURVE",
"125 786 OFFCURVE",
"149 786 CURVE SMOOTH",
"226 786 OFFCURVE",
"304 783 OFFCURVE",
"381 783 CURVE SMOOTH",
"426 783 OFFCURVE",
"464 766 OFFCURVE",
"497 736 CURVE SMOOTH",
"539 697 OFFCURVE",
"561 648 OFFCURVE",
"562 591 CURVE SMOOTH",
"563 537 OFFCURVE",
"547 487 OFFCURVE",
"512 445 CURVE SMOOTH",
"483 410 OFFCURVE",
"446 388 OFFCURVE",
"400 382 CURVE SMOOTH",
"394 381 OFFCURVE",
"388 381 OFFCURVE",
"381 381 CURVE SMOOTH",
"318 381 OFFCURVE",
"253 384 OFFCURVE",
"190 384 CURVE SMOOTH",
"187 384 OFFCURVE",
"184 384 OFFCURVE",
"181 384 CURVE SMOOTH",
"157 384 OFFCURVE",
"155 381 OFFCURVE",
"155 358 CURVE SMOOTH",
"155 337 OFFCURVE",
"155 316 OFFCURVE",
"155 295 CURVE SMOOTH",
"155 227 OFFCURVE",
"155 159 OFFCURVE",
"155 93 CURVE SMOOTH",
"155 89 OFFCURVE",
"155 84 OFFCURVE",
"155 80 CURVE SMOOTH",
"154 67 OFFCURVE",
"149 60 OFFCURVE",
"139 59 CURVE SMOOTH",
"129 59 OFFCURVE",
"123 67 OFFCURVE",
"123 80 CURVE SMOOTH",
"123 85 OFFCURVE",
"123 89 OFFCURVE",
"123 94 CURVE",
"123 204 OFFCURVE",
"123 314 OFFCURVE",
"123 424 CURVE SMOOTH"
);
},
{
closed = 1;
nodes = (
"152 583 OFFCURVE",
"152 583 OFFCURVE",
"152 583 CURVE",
"152 533 OFFCURVE",
"152 483 OFFCURVE",
"152 433 CURVE SMOOTH",
"152 418 OFFCURVE",
"157 413 OFFCURVE",
"171 413 CURVE SMOOTH",
"237 413 OFFCURVE",
"307 413 OFFCURVE",
"373 413 CURVE SMOOTH",
"405 413 OFFCURVE",
"435 422 OFFCURVE",
"460 442 CURVE SMOOTH",
"512 484 OFFCURVE",
"533 539 OFFCURVE",
"528 604 CURVE SMOOTH",
"522 678 OFFCURVE",
"459 754 OFFCURVE",
"365 752 CURVE SMOOTH",
"304 750 OFFCURVE",
"240 751 OFFCURVE",
"179 751 CURVE SMOOTH",
"175 751 OFFCURVE",
"172 751 OFFCURVE",
"168 751 CURVE SMOOTH",
"157 750 OFFCURVE",
"153 746 OFFCURVE",
"152 735 CURVE SMOOTH",
"152 731 OFFCURVE",
"152 727 OFFCURVE",
"152 723 CURVE SMOOTH",
"152 677 OFFCURVE",
"152 630 OFFCURVE",
"152 583 CURVE"
);
}
);
width = 676;
}
);
leftKerningGroup = "30";
rightKerningGroup = "30";
unicode = 0050;
},
{
glyphname = "Q";
lastChange = "2013-07-19 15:23:08 -0500";
layers = (
{
layerId = "28EF9373-0834-4819-8430-40544DAC9A78";
name = "Light";
paths = (
{
closed = 1;
nodes = (
"120 474 OFFCURVE",
"121 524 OFFCURVE",
"120 573 CURVE SMOOTH",
"118 672 OFFCURVE",
"191 764 OFFCURVE",
"291 780 CURVE SMOOTH",
"418 802 OFFCURVE",
"522 710 OFFCURVE",
"534 595 CURVE SMOOTH",
"535 586 OFFCURVE",
"535 576 OFFCURVE",
"535 567 CURVE SMOOTH",
"535 472 OFFCURVE",
"535 378 OFFCURVE",
"535 284 CURVE SMOOTH",
"535 231 OFFCURVE",
"520 185 OFFCURVE",
"488 144 CURVE SMOOTH",
"479 132 OFFCURVE",
"481 125 OFFCURVE",
"495 119 CURVE SMOOTH",
"517 109 OFFCURVE",
"541 106 OFFCURVE",
"565 102 CURVE SMOOTH",
"570 102 OFFCURVE",
"576 99 OFFCURVE",
"579 96 CURVE SMOOTH",
"589 88 OFFCURVE",
"585 74 OFFCURVE",
"573 71 CURVE SMOOTH",
"566 70 OFFCURVE",
"559 70 OFFCURVE",
"551 71 CURVE SMOOTH",
"519 75 OFFCURVE",
"488 81 OFFCURVE",
"460 99 CURVE SMOOTH",
"452 104 OFFCURVE",
"445 103 OFFCURVE",
"437 98 CURVE SMOOTH",
"401 76 OFFCURVE",
"364 66 OFFCURVE",
"324 66 CURVE SMOOTH",
"219 68 OFFCURVE",
"131 150 OFFCURVE",
"121 256 CURVE SMOOTH",
"120 269 OFFCURVE",
"121 281 OFFCURVE",
"121 294 CURVE SMOOTH",
"120 337 OFFCURVE",
"121 381 OFFCURVE",
"121 425 CURVE",
"120 425 OFFCURVE",
"120 425 OFFCURVE",
"120 425 CURVE"
);
},
{
closed = 1;
nodes = (
"503 474 OFFCURVE",
"503 522 OFFCURVE",
"503 571 CURVE SMOOTH",
"503 677 OFFCURVE",
"411 760 OFFCURVE",
"310 749 CURVE SMOOTH",
"257 744 OFFCURVE",
"216 718 OFFCURVE",
"185 675 CURVE SMOOTH",
"162 643 OFFCURVE",
"152 606 OFFCURVE",
"152 567 CURVE SMOOTH",
"151 476 OFFCURVE",
"151 386 OFFCURVE",
"152 296 CURVE SMOOTH",
"152 284 OFFCURVE",
"152 272 OFFCURVE",
"153 261 CURVE SMOOTH",
"161 173 OFFCURVE",
"237 101 OFFCURVE",
"323 99 CURVE SMOOTH",
"421 98 OFFCURVE",
"502 178 OFFCURVE",
"503 279 CURVE SMOOTH",
"503 328 OFFCURVE",
"503 376 OFFCURVE",
"503 425 CURVE SMOOTH"
);
},
{
closed = 1;
nodes = (
"400 818 OFFCURVE",
"460 790 OFFCURVE",
"509 734 CURVE SMOOTH",
"545 694 OFFCURVE",
"564 647 OFFCURVE",
"567 596 CURVE SMOOTH",
"568 571 OFFCURVE",
"568 547 OFFCURVE",
"568 521 CURVE SMOOTH",
"568 510 OFFCURVE",
"568 500 OFFCURVE",
"568 490 CURVE SMOOTH",
"568 475 OFFCURVE",
"568 460 OFFCURVE",
"568 445 CURVE SMOOTH",
"568 439 OFFCURVE",
"568 432 OFFCURVE",
"568 426 CURVE",
"568 426 OFFCURVE",
"568 425 OFFCURVE",
"568 425 CURVE SMOOTH",
"568 411 OFFCURVE",
"568 398 OFFCURVE",
"568 384 CURVE SMOOTH",
"568 352 OFFCURVE",
"568 319 OFFCURVE",
"568 286 CURVE SMOOTH",
"569 261 OFFCURVE",
"566 238 OFFCURVE",
"561 217 CURVE SMOOTH",
"559 211 OFFCURVE",
"559 204 OFFCURVE",
"559 196 CURVE SMOOTH",
"555 165 OFFCURVE",
"570 143 OFFCURVE",
"600 137 CURVE SMOOTH",
"603 136 OFFCURVE",
"605 136 OFFCURVE",
"606 135 CURVE",
"606 134 OFFCURVE",
"607 130 OFFCURVE",
"607 124 CURVE SMOOTH",
"606 105 OFFCURVE",
"606 86 OFFCURVE",
"606 67 CURVE SMOOTH",
"606 59 OFFCURVE",
"606 51 OFFCURVE",
"606 42 CURVE SMOOTH",
"606 41 OFFCURVE",
"606 39 OFFCURVE",
"606 38 CURVE SMOOTH",
"606 35 OFFCURVE",
"606 33 OFFCURVE",
"606 32 CURVE",
"606 32 OFFCURVE",
"605 32 OFFCURVE",
"605 32 CURVE SMOOTH",
"604 32 OFFCURVE",
"603 32 OFFCURVE",
"602 32 CURVE SMOOTH",
"578 33 OFFCURVE",
"553 36 OFFCURVE",
"525 40 CURVE SMOOTH",
"512 42 OFFCURVE",
"500 45 OFFCURVE",
"486 49 CURVE SMOOTH",
"478 51 LINE SMOOTH",
"469 54 OFFCURVE",
"460 55 OFFCURVE",
"452 55 CURVE SMOOTH",
"441 55 OFFCURVE",
"430 53 OFFCURVE",
"419 50 CURVE SMOOTH",
"415 49 OFFCURVE",
"411 47 OFFCURVE",
"407 46 CURVE SMOOTH",
"392 41 OFFCURVE",
"376 37 OFFCURVE",
"360 34 CURVE SMOOTH",
"348 33 OFFCURVE",
"336 32 OFFCURVE",
"324 32 CURVE SMOOTH",
"279 32 OFFCURVE",
"235 45 OFFCURVE",
"194 72 CURVE SMOOTH",
"159 96 OFFCURVE",
"132 128 OFFCURVE",
"112 167 CURVE SMOOTH",
"97 195 OFFCURVE",
"89 224 OFFCURVE",
"87 252 CURVE SMOOTH",
"86 266 OFFCURVE",
"86 281 OFFCURVE",
"86 298 CURVE SMOOTH",
"86 339 OFFCURVE",
"86 380 OFFCURVE",
"86 421 CURVE SMOOTH",
"86 472 OFFCURVE",
"86 522 OFFCURVE",
"86 573 CURVE SMOOTH",
"85 628 OFFCURVE",
"102 678 OFFCURVE",
"135 722 CURVE SMOOTH",
"177 776 OFFCURVE",
"230 808 OFFCURVE",
"294 816 CURVE SMOOTH",
"306 817 OFFCURVE",
"318 818 OFFCURVE",
"330 818 CURVE",
"330 818 LINE"
);
},
{
closed = 1;
nodes = (
"350 135 OFFCURVE",
"373 141 OFFCURVE",
"394 153 CURVE SMOOTH",
"442 180 OFFCURVE",
"467 225 OFFCURVE",
"467 282 CURVE SMOOTH",
"468 373 OFFCURVE",
"468 470 OFFCURVE",
"467 569 CURVE SMOOTH",
"467 608 OFFCURVE",
"453 645 OFFCURVE",
"426 673 CURVE SMOOTH",
"400 700 OFFCURVE",
"364 714 OFFCURVE",
"328 714 CURVE SMOOTH",
"324 714 OFFCURVE",
"320 714 OFFCURVE",
"317 714 CURVE SMOOTH",
"280 711 OFFCURVE",
"248 695 OFFCURVE",
"223 666 CURVE SMOOTH",
"199 639 OFFCURVE",
"187 605 OFFCURVE",
"187 564 CURVE SMOOTH",
"187 526 OFFCURVE",
"187 488 OFFCURVE",
"187 450 CURVE SMOOTH",
"187 426 LINE SMOOTH",
"187 413 OFFCURVE",
"187 399 OFFCURVE",
"187 386 CURVE SMOOTH",
"187 353 OFFCURVE",
"187 319 OFFCURVE",
"187 285 CURVE SMOOTH",
"187 259 OFFCURVE",
"192 236 OFFCURVE",
"202 215 CURVE SMOOTH",
"227 166 OFFCURVE",
"275 135 OFFCURVE",
"327 135 CURVE SMOOTH"
);
},
{
closed = 1;
nodes = (
"317 850 OFFCURVE",
"304 849 OFFCURVE",
"291 848 CURVE SMOOTH",
"217 838 OFFCURVE",
"156 801 OFFCURVE",
"111 741 CURVE SMOOTH",
"74 692 OFFCURVE",
"55 636 OFFCURVE",
"55 573 CURVE SMOOTH",
"55 481 OFFCURVE",
"55 389 OFFCURVE",
"55 298 CURVE SMOOTH",
"55 282 OFFCURVE",
"55 266 OFFCURVE",
"56 250 CURVE SMOOTH",
"58 216 OFFCURVE",
"68 183 OFFCURVE",
"83 152 CURVE SMOOTH",
"106 108 OFFCURVE",
"137 73 OFFCURVE",
"178 45 CURVE SMOOTH",
"223 15 OFFCURVE",
"272 0 OFFCURVE",
"324 0 CURVE SMOOTH",
"338 0 OFFCURVE",
"351 1 OFFCURVE",
"364 3 CURVE SMOOTH",
"386 6 OFFCURVE",
"406 13 OFFCURVE",
"428 19 CURVE SMOOTH",
"436 22 OFFCURVE",
"444 23 OFFCURVE",
"452 23 CURVE SMOOTH",
"458 23 OFFCURVE",
"464 22 OFFCURVE",
"470 21 CURVE SMOOTH",
"487 16 OFFCURVE",
"504 11 OFFCURVE",
"520 9 CURVE SMOOTH",
"547 5 OFFCURVE",
"573 2 OFFCURVE",
"600 0 CURVE SMOOTH",
"602 0 OFFCURVE",
"603 0 OFFCURVE",
"605 0 CURVE SMOOTH",
"627 0 OFFCURVE",
"637 12 OFFCURVE",
"637 37 CURVE SMOOTH",
"637 39 OFFCURVE",
"637 41 OFFCURVE",
"637 42 CURVE SMOOTH",
"637 69 OFFCURVE",
"637 96 OFFCURVE",
"637 123 CURVE SMOOTH",
"638 150 OFFCURVE",
"632 163 OFFCURVE",
"606 168 CURVE SMOOTH",
"592 171 OFFCURVE",
"588 179 OFFCURVE",
"589 193 CURVE SMOOTH",
"590 199 OFFCURVE",
"591 204 OFFCURVE",
"592 210 CURVE SMOOTH",
"598 235 OFFCURVE",
"600 260 OFFCURVE",
"600 286 CURVE SMOOTH",
"600 332 OFFCURVE",
"600 378 OFFCURVE",
"600 425 CURVE",
"600 425 OFFCURVE",
"600 425 OFFCURVE",
"600 425 CURVE",
"600 447 OFFCURVE",
"600 468 OFFCURVE",
"600 490 CURVE SMOOTH",
"600 526 OFFCURVE",
"601 562 OFFCURVE",
"599 598 CURVE SMOOTH",
"595 658 OFFCURVE",
"572 711 OFFCURVE",
"533 755 CURVE SMOOTH",
"477 818 OFFCURVE",
"409 850 OFFCURVE",
"330 850 CURVE SMOOTH"
);
},
{
closed = 1;
nodes = (
"288 167 OFFCURVE",
"249 190 OFFCURVE",
"230 230 CURVE SMOOTH",
"222 247 OFFCURVE",
"218 266 OFFCURVE",
"218 285 CURVE SMOOTH",
"218 332 OFFCURVE",
"218 379 OFFCURVE",
"218 426 CURVE",
"218 472 OFFCURVE",
"218 518 OFFCURVE",
"218 564 CURVE SMOOTH",
"218 595 OFFCURVE",
"226 622 OFFCURVE",
"246 645 CURVE SMOOTH",
"266 667 OFFCURVE",
"290 680 OFFCURVE",
"319 682 CURVE SMOOTH",
"322 682 OFFCURVE",
"325 683 OFFCURVE",
"328 683 CURVE SMOOTH",
"386 683 OFFCURVE",
"436 634 OFFCURVE",
"437 568 CURVE SMOOTH",
"437 473 OFFCURVE",
"437 378 OFFCURVE",
"437 282 CURVE SMOOTH",
"436 238 OFFCURVE",
"417 203 OFFCURVE",
"378 181 CURVE SMOOTH",
"362 171 OFFCURVE",
"345 167 OFFCURVE",
"327 167 CURVE SMOOTH"
);
}
);
width = 693;
}
);
leftKerningGroup = "30";
rightKerningGroup = "30";
unicode = 0051;
},
{
glyphname = "R";
lastChange = "2013-07-19 15:23:11 -0500";
layers = (
{
layerId = "28EF9373-0834-4819-8430-40544DAC9A78";
name = "Light";
paths = (
{
closed = 1;
nodes = (
"154 190 OFFCURVE",
"154 137 OFFCURVE",
"154 85 CURVE SMOOTH",
"154 80 OFFCURVE",
"154 75 OFFCURVE",
"153 70 CURVE SMOOTH",
"151 62 OFFCURVE",
"144 57 OFFCURVE",
"138 57 CURVE SMOOTH",
"131 58 OFFCURVE",
"125 63 OFFCURVE",
"124 71 CURVE SMOOTH",
"123 77 OFFCURVE",
"123 83 OFFCURVE",
"123 90 CURVE SMOOTH",
"123 301 OFFCURVE",
"123 513 OFFCURVE",
"123 724 CURVE SMOOTH",
"123 738 OFFCURVE",
"123 751 OFFCURVE",
"123 764 CURVE SMOOTH",
"123 780 OFFCURVE",
"129 787 OFFCURVE",
"146 787 CURVE SMOOTH",
"226 787 OFFCURVE",
"307 788 OFFCURVE",
"388 786 CURVE SMOOTH",
"428 786 OFFCURVE",
"463 769 OFFCURVE",
"493 742 CURVE SMOOTH",
"533 707 OFFCURVE",
"553 662 OFFCURVE",
"554 609 CURVE SMOOTH",
"554 561 OFFCURVE",
"538 519 OFFCURVE",
"505 484 CURVE SMOOTH",
"496 474 OFFCURVE",
"484 465 OFFCURVE",
"473 456 CURVE SMOOTH",
"463 447 OFFCURVE",
"463 442 OFFCURVE",
"474 435 CURVE SMOOTH",
"534 396 OFFCURVE",
"560 339 OFFCURVE",
"560 269 CURVE SMOOTH",
"561 208 OFFCURVE",
"560 147 OFFCURVE",
"560 86 CURVE SMOOTH",
"560 81 OFFCURVE",
"560 75 OFFCURVE",
"558 70 CURVE SMOOTH",
"556 64 OFFCURVE",
"551 60 OFFCURVE",
"545 60 CURVE SMOOTH",
"538 60 OFFCURVE",
"533 64 OFFCURVE",
"531 70 CURVE SMOOTH",
"530 75 OFFCURVE",
"529 81 OFFCURVE",
"529 86 CURVE SMOOTH",
"529 143 OFFCURVE",
"529 199 OFFCURVE",
"529 256 CURVE SMOOTH",
"529 283 OFFCURVE",
"526 309 OFFCURVE",
"516 334 CURVE SMOOTH",
"495 390 OFFCURVE",
"448 424 OFFCURVE",
"388 424 CURVE SMOOTH",
"317 424 OFFCURVE",
"247 424 OFFCURVE",
"176 424 CURVE SMOOTH",
"175 424 OFFCURVE",
"173 424 OFFCURVE",
"172 424 CURVE SMOOTH",
"159 424 OFFCURVE",
"155 419 OFFCURVE",
"154 406 CURVE SMOOTH",
"154 402 OFFCURVE",
"154 399 OFFCURVE",
"154 395 CURVE SMOOTH",
"154 344 OFFCURVE",
"154 293 OFFCURVE",
"154 243 CURVE SMOOTH"
);
},
{
closed = 1;
nodes = (
"154 600 OFFCURVE",
"154 594 OFFCURVE",
"154 588 CURVE SMOOTH",
"154 551 OFFCURVE",
"154 515 OFFCURVE",
"154 479 CURVE SMOOTH",
"154 461 OFFCURVE",
"158 457 OFFCURVE",
"176 457 CURVE SMOOTH",
"178 457 OFFCURVE",
"180 457 OFFCURVE",
"182 457 CURVE SMOOTH",
"244 457 OFFCURVE",
"306 457 OFFCURVE",
"368 457 CURVE SMOOTH",
"417 457 OFFCURVE",
"457 476 OFFCURVE",
"488 514 CURVE SMOOTH",
"526 561 OFFCURVE",
"532 627 OFFCURVE",
"502 680 CURVE SMOOTH",
"473 730 OFFCURVE",
"428 754 OFFCURVE",
"371 755 CURVE SMOOTH",
"306 756 OFFCURVE",
"241 756 OFFCURVE",
"176 755 CURVE SMOOTH",
"158 755 OFFCURVE",
"154 752 OFFCURVE",
"154 734 CURVE SMOOTH",
"154 692 OFFCURVE",
"154 649 OFFCURVE",
"154 607 CURVE SMOOTH"
);
},
{
closed = 1;
nodes = (
"306 819 OFFCURVE",
"343 819 OFFCURVE",
"377 818 CURVE SMOOTH",
"427 818 OFFCURVE",
"473 801 OFFCURVE",
"512 766 CURVE SMOOTH",
"554 730 OFFCURVE",
"577 686 OFFCURVE",
"584 631 CURVE SMOOTH",
"590 581 OFFCURVE",
"580 535 OFFCURVE",
"552 490 CURVE SMOOTH",
"546 480 OFFCURVE",
"542 470 OFFCURVE",
"539 461 CURVE SMOOTH",
"535 442 OFFCURVE",
"539 424 OFFCURVE",
"551 406 CURVE SMOOTH",
"574 373 OFFCURVE",
"587 335 OFFCURVE",
"592 293 CURVE SMOOTH",
"593 282 OFFCURVE",
"593 271 OFFCURVE",
"593 260 CURVE SMOOTH",
"594 195 OFFCURVE",
"594 130 OFFCURVE",
"594 67 CURVE SMOOTH",
"593 45 LINE SMOOTH",
"593 40 OFFCURVE",
"593 37 OFFCURVE",
"593 35 CURVE",
"591 34 OFFCURVE",
"588 34 OFFCURVE",
"583 34 CURVE SMOOTH",
"573 34 OFFCURVE",
"564 34 OFFCURVE",
"554 34 CURVE SMOOTH",
"524 34 LINE",
"503 34 LINE",
"502 34 LINE",
"501 34 LINE SMOOTH",
"499 34 OFFCURVE",
"498 34 OFFCURVE",
"496 34 CURVE SMOOTH",
"495 34 OFFCURVE",
"494 34 OFFCURVE",
"493 35 CURVE",
"493 35 OFFCURVE",
"493 36 OFFCURVE",
"493 38 CURVE SMOOTH",
"493 40 OFFCURVE",
"493 42 OFFCURVE",
"493 45 CURVE SMOOTH",
"493 47 LINE",
"493 65 OFFCURVE",
"493 84 OFFCURVE",
"493 102 CURVE SMOOTH",
"493 150 OFFCURVE",
"493 200 OFFCURVE",
"492 249 CURVE SMOOTH",
"492 271 OFFCURVE",
"489 291 OFFCURVE",
"484 310 CURVE SMOOTH",
"470 358 OFFCURVE",
"434 385 OFFCURVE",
"383 386 CURVE SMOOTH",
"364 387 OFFCURVE",
"344 387 OFFCURVE",
"322 387 CURVE SMOOTH",
"298 387 OFFCURVE",
"273 386 OFFCURVE",
"252 386 CURVE SMOOTH",
"211 386 OFFCURVE",
"187 362 OFFCURVE",
"187 319 CURVE SMOOTH",
"187 268 OFFCURVE",
"187 217 OFFCURVE",
"187 165 CURVE SMOOTH",
"187 104 LINE",
"187 87 LINE SMOOTH",
"187 71 OFFCURVE",
"187 55 OFFCURVE",
"187 38 CURVE SMOOTH",
"187 36 OFFCURVE",
"187 34 OFFCURVE",
"187 32 CURVE",
"185 31 OFFCURVE",
"184 31 OFFCURVE",
"183 31 CURVE SMOOTH",
"168 31 OFFCURVE",
"153 31 OFFCURVE",
"137 31 CURVE SMOOTH",
"108 31 LINE",
"91 31 LINE SMOOTH",
"89 31 OFFCURVE",
"89 31 OFFCURVE",
"88 31 CURVE SMOOTH",
"88 31 OFFCURVE",
"87 31 OFFCURVE",
"87 32 CURVE",
"87 32 OFFCURVE",
"87 33 OFFCURVE",
"87 33 CURVE SMOOTH",
"86 35 OFFCURVE",
"86 38 OFFCURVE",
"86 41 CURVE SMOOTH",
"86 44 LINE",
"86 171 OFFCURVE",
"86 298 OFFCURVE",
"86 425 CURVE",
"86 492 LINE SMOOTH",
"86 597 OFFCURVE",
"86 702 OFFCURVE",
"87 807 CURVE SMOOTH",
"87 811 OFFCURVE",
"87 815 OFFCURVE",
"87 818 CURVE",
"89 818 OFFCURVE",
"92 819 OFFCURVE",
"94 819 CURVE SMOOTH",
"117 819 OFFCURVE",
"140 819 OFFCURVE",
"162 819 CURVE SMOOTH",
"196 819 OFFCURVE",
"229 819 OFFCURVE",
"262 819 CURVE SMOOTH"
);
},
{
closed = 1;
nodes = (
"328 492 OFFCURVE",
"344 492 OFFCURVE",
"358 492 CURVE SMOOTH",
"371 492 OFFCURVE",
"384 494 OFFCURVE",
"397 497 CURVE SMOOTH",
"449 509 OFFCURVE",
"487 560 OFFCURVE",
"483 612 CURVE SMOOTH",
"479 668 OFFCURVE",
"436 713 OFFCURVE",
"381 717 CURVE SMOOTH",
"367 718 OFFCURVE",
"348 718 OFFCURVE",
"333 718 CURVE SMOOTH",
"323 718 LINE",
"317 718 LINE SMOOTH",
"317 718 OFFCURVE",
"317 718 OFFCURVE",
"317 718 CURVE SMOOTH",
"315 718 OFFCURVE",
"313 718 OFFCURVE",
"312 718 CURVE",
"311 718 OFFCURVE",
"310 718 OFFCURVE",
"310 718 CURVE SMOOTH",
"256 718 LINE SMOOTH",
"255 718 OFFCURVE",
"254 718 OFFCURVE",
"254 718 CURVE SMOOTH",
"212 717 OFFCURVE",
"188 693 OFFCURVE",
"187 651 CURVE SMOOTH",
"187 651 OFFCURVE",
"187 650 OFFCURVE",
"187 649 CURVE SMOOTH",
"187 627 LINE SMOOTH",
"187 605 OFFCURVE",
"187 582 OFFCURVE",
"187 560 CURVE SMOOTH",
"187 554 OFFCURVE",
"188 547 OFFCURVE",
"189 539 CURVE SMOOTH",
"194 516 OFFCURVE",
"211 499 OFFCURVE",
"234 494 CURVE SMOOTH",
"242 493 OFFCURVE",
"249 492 OFFCURVE",
"255 492 CURVE SMOOTH",
"268 492 LINE SMOOTH",
"282 492 OFFCURVE",
"296 492 OFFCURVE",
"310 492 CURVE SMOOTH"
);
},
{
closed = 1;
nodes = (
"206 850 OFFCURVE",
"150 850 OFFCURVE",
"94 850 CURVE SMOOTH",
"88 850 OFFCURVE",
"83 849 OFFCURVE",
"77 848 CURVE SMOOTH",
"66 846 OFFCURVE",
"59 839 OFFCURVE",
"57 828 CURVE SMOOTH",
"56 821 OFFCURVE",
"55 814 OFFCURVE",
"55 807 CURVE SMOOTH",
"55 680 OFFCURVE",
"55 553 OFFCURVE",
"55 425 CURVE SMOOTH",
"55 298 OFFCURVE",
"55 171 OFFCURVE",
"55 44 CURVE SMOOTH",
"55 39 OFFCURVE",
"55 35 OFFCURVE",
"56 30 CURVE SMOOTH",
"57 11 OFFCURVE",
"66 2 OFFCURVE",
"85 0 CURVE SMOOTH",
"87 0 OFFCURVE",
"89 0 OFFCURVE",
"91 0 CURVE SMOOTH",
"106 0 OFFCURVE",
"122 0 OFFCURVE",
"137 0 CURVE SMOOTH",
"153 0 OFFCURVE",
"168 0 OFFCURVE",
"183 0 CURVE SMOOTH",
"188 0 OFFCURVE",
"193 1 OFFCURVE",
"198 2 CURVE SMOOTH",
"208 4 OFFCURVE",
"214 11 OFFCURVE",
"217 21 CURVE SMOOTH",
"218 27 OFFCURVE",
"218 32 OFFCURVE",
"218 38 CURVE SMOOTH",
"219 60 OFFCURVE",
"218 82 OFFCURVE",
"218 104 CURVE SMOOTH",
"219 176 OFFCURVE",
"218 248 OFFCURVE",
"219 319 CURVE SMOOTH",
"219 344 OFFCURVE",
"228 355 OFFCURVE",
"252 355 CURVE SMOOTH",
"276 355 OFFCURVE",
"299 355 OFFCURVE",
"322 355 CURVE SMOOTH",
"342 355 OFFCURVE",
"363 355 OFFCURVE",
"383 355 CURVE SMOOTH",
"420 354 OFFCURVE",
"444 337 OFFCURVE",
"454 302 CURVE SMOOTH",
"459 284 OFFCURVE",
"461 266 OFFCURVE",
"461 248 CURVE SMOOTH",
"462 181 OFFCURVE",
"461 114 OFFCURVE",
"461 47 CURVE SMOOTH",
"461 43 OFFCURVE",
"461 40 OFFCURVE",
"462 36 CURVE SMOOTH",
"462 14 OFFCURVE",
"472 4 OFFCURVE",
"494 3 CURVE SMOOTH",
"497 3 OFFCURVE",
"499 3 OFFCURVE",
"501 3 CURVE SMOOTH",
"501 3 OFFCURVE",
"502 3 OFFCURVE",
"503 3 CURVE SMOOTH",
"520 3 OFFCURVE",
"537 3 OFFCURVE",
"554 3 CURVE SMOOTH",
"564 3 OFFCURVE",
"573 3 OFFCURVE",
"583 3 CURVE SMOOTH",
"616 3 OFFCURVE",
"625 11 OFFCURVE",
"625 45 CURVE SMOOTH",
"625 116 OFFCURVE",
"625 188 OFFCURVE",
"625 260 CURVE SMOOTH",
"625 272 OFFCURVE",
"624 284 OFFCURVE",
"623 296 CURVE SMOOTH",
"618 343 OFFCURVE",
"603 385 OFFCURVE",
"577 423 CURVE SMOOTH",
"571 432 OFFCURVE",
"567 442 OFFCURVE",
"570 453 CURVE SMOOTH",
"572 460 OFFCURVE",
"575 467 OFFCURVE",
"579 473 CURVE SMOOTH",
"609 523 OFFCURVE",
"622 577 OFFCURVE",
"615 635 CURVE SMOOTH",
"607 697 OFFCURVE",
"580 749 OFFCURVE",
"533 790 CURVE SMOOTH",
"488 829 OFFCURVE",
"436 849 OFFCURVE",
"377 850 CURVE SMOOTH",
"339 850 OFFCURVE",
"300 850 OFFCURVE",
"262 850 CURVE SMOOTH"
);
},
{
closed = 1;
nodes = (
"292 523 OFFCURVE",
"273 523 OFFCURVE",
"255 523 CURVE SMOOTH",
"250 523 OFFCURVE",
"245 524 OFFCURVE",
"240 525 CURVE SMOOTH",
"229 527 OFFCURVE",
"222 534 OFFCURVE",
"220 545 CURVE SMOOTH",
"219 550 OFFCURVE",
"219 555 OFFCURVE",
"219 560 CURVE SMOOTH",
"218 590 OFFCURVE",
"219 619 OFFCURVE",
"219 649 CURVE SMOOTH",
"219 650 OFFCURVE",
"219 650 OFFCURVE",
"219 651 CURVE SMOOTH",
"219 676 OFFCURVE",
"229 686 OFFCURVE",
"254 687 CURVE SMOOTH",
"255 687 OFFCURVE",
"256 687 OFFCURVE",
"256 687 CURVE SMOOTH",
"274 687 OFFCURVE",
"292 687 OFFCURVE",
"310 687 CURVE",
"310 686 OFFCURVE",
"312 686 OFFCURVE",
"317 686 CURVE SMOOTH",
"321 686 OFFCURVE",
"326 686 OFFCURVE",
"333 686 CURVE SMOOTH",
"348 686 OFFCURVE",
"366 686 OFFCURVE",
"378 685 CURVE SMOOTH",
"419 682 OFFCURVE",
"449 650 OFFCURVE",
"452 609 CURVE SMOOTH",
"455 573 OFFCURVE",
"427 536 OFFCURVE",
"390 527 CURVE SMOOTH",
"379 525 OFFCURVE",
"368 523 OFFCURVE",
"358 523 CURVE SMOOTH",
"342 523 OFFCURVE",
"326 523 OFFCURVE",
"310 523 CURVE SMOOTH"
);
}
);
width = 679;
}
);
leftKerningGroup = "30";
rightKerningGroup = "30";
unicode = 0052;
},
{
glyphname = "S";
lastChange = "2013-07-19 15:23:15 -0500";
layers = (
{
layerId = "28EF9373-0834-4819-8430-40544DAC9A78";
name = "Light";
paths = (
{
closed = 1;
nodes = (
"334 433 OFFCURVE",
"310 433 OFFCURVE",
"287 436 CURVE SMOOTH",
"211 448 OFFCURVE",
"151 514 OFFCURVE",
"145 591 CURVE SMOOTH",
"139 667 OFFCURVE",
"171 725 OFFCURVE",
"238 763 CURVE SMOOTH",
"260 775 OFFCURVE",
"285 782 OFFCURVE",
"311 782 CURVE SMOOTH",
"339 782 OFFCURVE",
"367 783 OFFCURVE",
"395 782 CURVE SMOOTH",
"453 778 OFFCURVE",
"503 757 OFFCURVE",
"537 707 CURVE SMOOTH",
"541 702 OFFCURVE",
"544 695 OFFCURVE",
"547 689 CURVE SMOOTH",
"551 678 OFFCURVE",
"548 669 OFFCURVE",
"540 665 CURVE SMOOTH",
"532 660 OFFCURVE",
"523 664 OFFCURVE",
"517 674 CURVE SMOOTH",
"510 684 OFFCURVE",
"504 695 OFFCURVE",
"495 703 CURVE SMOOTH",
"470 731 OFFCURVE",
"438 743 OFFCURVE",
"402 747 CURVE SMOOTH",
"367 751 OFFCURVE",
"331 752 OFFCURVE",
"296 746 CURVE SMOOTH",
"235 737 OFFCURVE",
"187 686 OFFCURVE",
"179 625 CURVE SMOOTH",
"169 543 OFFCURVE",
"234 468 OFFCURVE",
"317 467 CURVE SMOOTH",
"344 467 OFFCURVE",
"372 467 OFFCURVE",
"399 467 CURVE SMOOTH",
"496 466 OFFCURVE",
"579 397 OFFCURVE",
"595 302 CURVE SMOOTH",
"606 239 OFFCURVE",
"591 182 OFFCURVE",
"548 134 CURVE SMOOTH",
"509 90 OFFCURVE",
"459 68 OFFCURVE",
"400 67 CURVE SMOOTH",
"367 66 OFFCURVE",
"334 66 OFFCURVE",
"301 69 CURVE SMOOTH",
"252 73 OFFCURVE",
"208 91 OFFCURVE",
"172 124 CURVE SMOOTH",
"156 139 OFFCURVE",
"144 158 OFFCURVE",
"136 178 CURVE SMOOTH",
"133 183 OFFCURVE",
"133 189 OFFCURVE",
"132 194 CURVE SMOOTH",
"132 201 OFFCURVE",
"135 206 OFFCURVE",
"141 207 CURVE SMOOTH",
"146 208 OFFCURVE",
"152 207 OFFCURVE",
"157 205 CURVE SMOOTH",
"160 204 OFFCURVE",
"162 199 OFFCURVE",
"164 196 CURVE SMOOTH",
"189 141 OFFCURVE",
"235 114 OFFCURVE",
"292 104 CURVE SMOOTH",
"312 101 OFFCURVE",
"333 101 OFFCURVE",
"354 101 CURVE SMOOTH",
"379 101 OFFCURVE",
"404 100 OFFCURVE",
"428 104 CURVE SMOOTH",
"500 115 OFFCURVE",
"557 178 OFFCURVE",
"564 250 CURVE SMOOTH",
"573 346 OFFCURVE",
"499 431 OFFCURVE",
"399 433 CURVE SMOOTH",
"385 433 OFFCURVE",
"371 433 OFFCURVE",
"358 433 CURVE",
"357 432 OFFCURVE",
"357 432 OFFCURVE",
"357 432 CURVE"
);
},
{
closed = 1;
nodes = (
"385 818 OFFCURVE",
"399 817 OFFCURVE",
"412 816 CURVE SMOOTH",
"488 807 OFFCURVE",
"542 774 OFFCURVE",
"577 712 CURVE SMOOTH",
"588 691 OFFCURVE",
"596 667 OFFCURVE",
"599 639 CURVE",
"598 639 OFFCURVE",
"598 639 OFFCURVE",
"597 639 CURVE SMOOTH",
"585 639 OFFCURVE",
"572 639 OFFCURVE",
"557 639 CURVE SMOOTH",
"545 639 OFFCURVE",
"532 639 OFFCURVE",
"520 639 CURVE SMOOTH",
"500 639 LINE",
"499 639 OFFCURVE",
"497 639 OFFCURVE",
"496 639 CURVE SMOOTH",
"495 639 OFFCURVE",
"494 640 OFFCURVE",
"493 640 CURVE",
"493 640 OFFCURVE",
"493 640 OFFCURVE",
"493 640 CURVE",
"493 640 OFFCURVE",
"493 640 OFFCURVE",
"493 640 CURVE SMOOTH",
"492 641 OFFCURVE",
"492 641 OFFCURVE",
"491 642 CURVE",
"476 684 OFFCURVE",
"442 708 OFFCURVE",
"394 711 CURVE SMOOTH",
"378 712 OFFCURVE",
"364 713 OFFCURVE",
"351 713 CURVE SMOOTH",
"336 713 OFFCURVE",
"323 712 OFFCURVE",
"310 711 CURVE SMOOTH",
"274 707 OFFCURVE",
"243 685 OFFCURVE",
"227 653 CURVE SMOOTH",
"212 620 OFFCURVE",
"214 583 OFFCURVE",
"233 552 CURVE SMOOTH",
"247 530 OFFCURVE",
"275 503 OFFCURVE",
"328 503 CURVE SMOOTH",
"334 503 OFFCURVE",
"339 503 OFFCURVE",
"345 503 CURVE SMOOTH",
"350 503 OFFCURVE",
"355 503 OFFCURVE",
"360 503 CURVE SMOOTH",
"365 503 OFFCURVE",
"370 503 OFFCURVE",
"375 503 CURVE SMOOTH",
"385 503 OFFCURVE",
"393 503 OFFCURVE",
"400 502 CURVE SMOOTH",
"447 501 OFFCURVE",
"487 490 OFFCURVE",
"521 468 CURVE SMOOTH",
"586 428 OFFCURVE",
"624 370 OFFCURVE",
"633 297 CURVE SMOOTH",
"644 216 OFFCURVE",
"617 145 OFFCURVE",
"554 89 CURVE SMOOTH",
"517 56 OFFCURVE",
"474 37 OFFCURVE",
"424 33 CURVE SMOOTH",
"418 33 OFFCURVE",
"411 33 OFFCURVE",
"403 33 CURVE SMOOTH",
"396 33 OFFCURVE",
"390 33 OFFCURVE",
"383 33 CURVE SMOOTH",
"376 33 OFFCURVE",
"370 33 OFFCURVE",
"363 33 CURVE SMOOTH",
"362 33 OFFCURVE",
"362 33 OFFCURVE",
"361 33 CURVE SMOOTH",
"348 33 OFFCURVE",
"336 32 OFFCURVE",
"324 32 CURVE SMOOTH",
"303 32 OFFCURVE",
"286 34 OFFCURVE",
"271 37 CURVE SMOOTH",
"217 49 OFFCURVE",
"174 73 OFFCURVE",
"140 109 CURVE SMOOTH",
"112 141 OFFCURVE",
"94 178 OFFCURVE",
"88 223 CURVE SMOOTH",
"87 227 OFFCURVE",
"87 231 OFFCURVE",
"87 234 CURVE",
"102 234 OFFCURVE",
"118 234 OFFCURVE",
"134 234 CURVE SMOOTH",
"152 234 OFFCURVE",
"172 234 OFFCURVE",
"192 234 CURVE",
"193 233 OFFCURVE",
"193 233 OFFCURVE",
"193 232 CURVE SMOOTH",
"193 231 OFFCURVE",
"194 229 OFFCURVE",
"194 228 CURVE SMOOTH",
"197 220 OFFCURVE",
"200 211 OFFCURVE",
"204 202 CURVE SMOOTH",
"222 169 OFFCURVE",
"254 148 OFFCURVE",
"298 140 CURVE SMOOTH",
"318 137 OFFCURVE",
"339 135 OFFCURVE",
"360 135 CURVE SMOOTH",
"379 135 OFFCURVE",
"398 136 OFFCURVE",
"417 139 CURVE SMOOTH",
"460 144 OFFCURVE",
"497 170 OFFCURVE",
"516 209 CURVE SMOOTH",
"536 248 OFFCURVE",
"534 293 OFFCURVE",
"512 331 CURVE SMOOTH",
"488 373 OFFCURVE",
"449 395 OFFCURVE",
"398 396 CURVE SMOOTH",
"392 397 OFFCURVE",
"384 397 OFFCURVE",
"376 397 CURVE SMOOTH",
"371 397 OFFCURVE",
"367 397 OFFCURVE",
"362 397 CURVE SMOOTH",
"358 397 OFFCURVE",
"353 397 OFFCURVE",
"349 397 CURVE SMOOTH",
"341 397 OFFCURVE",
"334 397 OFFCURVE",
"328 397 CURVE SMOOTH",
"287 398 OFFCURVE",
"256 405 OFFCURVE",
"228 419 CURVE SMOOTH",
"159 455 OFFCURVE",
"121 510 OFFCURVE",
"112 585 CURVE SMOOTH",
"105 646 OFFCURVE",
"122 700 OFFCURVE",
"164 747 CURVE SMOOTH",
"198 785 OFFCURVE",
"239 808 OFFCURVE",
"290 815 CURVE SMOOTH",
"299 817 OFFCURVE",
"305 817 OFFCURVE",
"311 817 CURVE SMOOTH",
"312 817 LINE",
"316 817 LINE SMOOTH",
"325 817 OFFCURVE",
"333 817 OFFCURVE",
"341 817 CURVE SMOOTH",
"349 818 OFFCURVE",
"357 818 OFFCURVE",
"365 818 CURVE SMOOTH"
);
},
{
closed = 1;
nodes = (
"349 850 OFFCURVE",
"333 850 OFFCURVE",
"316 850 CURVE SMOOTH",
"315 850 OFFCURVE",
"313 850 OFFCURVE",
"312 850 CURVE SMOOTH",
"312 850 OFFCURVE",
"311 850 OFFCURVE",
"311 850 CURVE SMOOTH",
"303 850 OFFCURVE",
"294 849 OFFCURVE",
"286 847 CURVE SMOOTH",
"227 839 OFFCURVE",
"179 812 OFFCURVE",
"139 768 CURVE SMOOTH",
"92 715 OFFCURVE",
"72 652 OFFCURVE",
"80 581 CURVE SMOOTH",
"90 494 OFFCURVE",
"136 431 OFFCURVE",
"214 390 CURVE SMOOTH",
"249 372 OFFCURVE",
"288 365 OFFCURVE",
"328 364 CURVE SMOOTH",
"335 364 OFFCURVE",
"342 364 OFFCURVE",
"349 364 CURVE SMOOTH",
"358 364 OFFCURVE",
"367 364 OFFCURVE",
"376 364 CURVE SMOOTH",
"383 364 OFFCURVE",
"390 364 OFFCURVE",
"397 364 CURVE SMOOTH",
"435 363 OFFCURVE",
"465 348 OFFCURVE",
"484 315 CURVE SMOOTH",
"519 255 OFFCURVE",
"482 179 OFFCURVE",
"413 171 CURVE SMOOTH",
"396 169 OFFCURVE",
"378 167 OFFCURVE",
"360 167 CURVE SMOOTH",
"341 167 OFFCURVE",
"322 169 OFFCURVE",
"303 172 CURVE SMOOTH",
"274 177 OFFCURVE",
"248 189 OFFCURVE",
"233 217 CURVE SMOOTH",
"229 225 OFFCURVE",
"226 234 OFFCURVE",
"224 243 CURVE SMOOTH",
"219 255 OFFCURVE",
"213 266 OFFCURVE",
"199 266 CURVE SMOOTH",
"177 266 OFFCURVE",
"156 267 OFFCURVE",
"134 267 CURVE SMOOTH",
"114 267 OFFCURVE",
"95 266 OFFCURVE",
"76 266 CURVE SMOOTH",
"63 266 OFFCURVE",
"55 255 OFFCURVE",
"55 242 CURVE SMOOTH",
"54 234 OFFCURVE",
"55 226 OFFCURVE",
"56 219 CURVE SMOOTH",
"63 169 OFFCURVE",
"82 125 OFFCURVE",
"116 87 CURVE SMOOTH",
"156 44 OFFCURVE",
"206 18 OFFCURVE",
"264 6 CURVE SMOOTH",
"284 1 OFFCURVE",
"304 0 OFFCURVE",
"324 0 CURVE SMOOTH",
"337 0 OFFCURVE",
"350 0 OFFCURVE",
"363 1 CURVE",
"376 1 OFFCURVE",
"390 0 OFFCURVE",
"403 0 CURVE SMOOTH",
"411 0 OFFCURVE",
"419 1 OFFCURVE",
"427 1 CURVE SMOOTH",
"483 6 OFFCURVE",
"534 27 OFFCURVE",
"576 65 CURVE SMOOTH",
"646 128 OFFCURVE",
"678 207 OFFCURVE",
"665 301 CURVE SMOOTH",
"655 386 OFFCURVE",
"611 451 OFFCURVE",
"539 496 CURVE SMOOTH",
"497 522 OFFCURVE",
"450 533 OFFCURVE",
"401 535 CURVE SMOOTH",
"392 535 OFFCURVE",
"383 535 OFFCURVE",
"375 535 CURVE SMOOTH",
"365 535 OFFCURVE",
"355 535 OFFCURVE",
"345 535 CURVE SMOOTH",
"340 535 OFFCURVE",
"334 535 OFFCURVE",
"328 535 CURVE SMOOTH",
"300 535 OFFCURVE",
"276 545 OFFCURVE",
"260 570 CURVE SMOOTH",
"232 614 OFFCURVE",
"260 673 OFFCURVE",
"313 679 CURVE SMOOTH",
"326 680 OFFCURVE",
"338 681 OFFCURVE",
"351 681 CURVE SMOOTH",
"365 681 OFFCURVE",
"378 680 OFFCURVE",
"392 679 CURVE SMOOTH",
"424 677 OFFCURVE",
"450 663 OFFCURVE",
"461 630 CURVE SMOOTH",
"462 629 OFFCURVE",
"463 627 OFFCURVE",
"463 626 CURVE SMOOTH",
"469 615 OFFCURVE",
"477 609 OFFCURVE",
"489 608 CURVE SMOOTH",
"492 607 OFFCURVE",
"496 606 OFFCURVE",
"499 606 CURVE SMOOTH",
"519 606 OFFCURVE",
"538 606 OFFCURVE",
"557 606 CURVE SMOOTH",
"571 606 OFFCURVE",
"584 606 OFFCURVE",
"598 607 CURVE SMOOTH",
"623 607 OFFCURVE",
"634 619 OFFCURVE",
"631 642 CURVE SMOOTH",
"628 672 OFFCURVE",
"620 701 OFFCURVE",
"605 728 CURVE SMOOTH",
"563 802 OFFCURVE",
"498 839 OFFCURVE",
"416 848 CURVE SMOOTH",
"399 850 OFFCURVE",
"382 850 OFFCURVE",
"365 850 CURVE SMOOTH"
);
}
);
width = 692;
}
);
leftKerningGroup = "30";
rightKerningGroup = "30";
unicode = 0053;
},
{
glyphname = "T";
lastChange = "2013-07-19 15:23:18 -0500";
layers = (
{
layerId = "28EF9373-0834-4819-8430-40544DAC9A78";
name = "Light";
paths = (
{
closed = 1;
nodes = (
"323 515 OFFCURVE",
"323 620 OFFCURVE",
"323 726 CURVE SMOOTH",
"323 750 OFFCURVE",
"321 752 OFFCURVE",
"297 752 CURVE SMOOTH",
"246 752 OFFCURVE",
"195 752 OFFCURVE",
"144 752 CURVE SMOOTH",
"138 752 OFFCURVE",
"133 753 OFFCURVE",
"128 754 CURVE SMOOTH",
"122 756 OFFCURVE",
"118 761 OFFCURVE",
"118 768 CURVE SMOOTH",
"119 775 OFFCURVE",
"122 780 OFFCURVE",
"129 782 CURVE SMOOTH",
"133 783 OFFCURVE",
"137 784 OFFCURVE",
"141 784 CURVE SMOOTH",
"274 784 OFFCURVE",
"407 784 OFFCURVE",
"540 784 CURVE SMOOTH",
"544 784 OFFCURVE",
"548 783 OFFCURVE",
"552 782 CURVE SMOOTH",
"559 780 OFFCURVE",
"562 775 OFFCURVE",
"562 768 CURVE SMOOTH",
"562 761 OFFCURVE",
"559 756 OFFCURVE",
"552 754 CURVE SMOOTH",
"547 753 OFFCURVE",
"542 752 OFFCURVE",
"537 752 CURVE SMOOTH",
"486 752 OFFCURVE",
"435 752 OFFCURVE",
"385 752 CURVE SMOOTH",
"380 752 OFFCURVE",
"376 752 OFFCURVE",
"372 752 CURVE SMOOTH",
"361 751 OFFCURVE",
"357 747 OFFCURVE",
"356 736 CURVE SMOOTH",
"356 731 OFFCURVE",
"356 726 OFFCURVE",
"356 721 CURVE SMOOTH",
"356 513 OFFCURVE",
"356 305 OFFCURVE",
"356 96 CURVE SMOOTH",
"356 89 OFFCURVE",
"356 81 OFFCURVE",
"354 74 CURVE SMOOTH",
"352 66 OFFCURVE",
"346 62 OFFCURVE",
"339 62 CURVE SMOOTH",
"332 62 OFFCURVE",
"326 67 OFFCURVE",
"324 75 CURVE SMOOTH",
"323 80 OFFCURVE",
"323 86 OFFCURVE",
"323 91 CURVE SMOOTH",
"323 197 OFFCURVE",
"323 303 OFFCURVE",
"323 409 CURVE SMOOTH"
);
},
{
closed = 1;
nodes = (
"96 818 LINE",
"98 818 LINE",
"147 818 LINE",
"277 818 LINE SMOOTH",
"378 818 OFFCURVE",
"478 818 OFFCURVE",
"579 818 CURVE SMOOTH",
"583 818 OFFCURVE",
"586 818 OFFCURVE",
"590 818 CURVE",
"590 816 OFFCURVE",
"590 814 OFFCURVE",
"590 813 CURVE SMOOTH",
"590 780 OFFCURVE",
"590 750 OFFCURVE",
"590 722 CURVE SMOOTH",
"590 721 OFFCURVE",
"590 719 OFFCURVE",
"590 717 CURVE",
"587 717 OFFCURVE",
"585 717 OFFCURVE",
"582 717 CURVE SMOOTH",
"558 717 OFFCURVE",
"534 717 OFFCURVE",
"511 717 CURVE SMOOTH",
"496 717 LINE",
"480 717 LINE",
"465 717 LINE",
"463 717 LINE",
"461 717 LINE SMOOTH",
"459 717 OFFCURVE",
"456 716 OFFCURVE",
"454 716 CURVE SMOOTH",
"413 715 OFFCURVE",
"390 692 OFFCURVE",
"389 652 CURVE SMOOTH",
"389 647 OFFCURVE",
"389 642 OFFCURVE",
"389 637 CURVE SMOOTH",
"389 632 LINE",
"389 530 LINE SMOOTH",
"389 368 OFFCURVE",
"389 206 OFFCURVE",
"389 43 CURVE SMOOTH",
"389 39 OFFCURVE",
"389 36 OFFCURVE",
"388 32 CURVE",
"386 32 OFFCURVE",
"384 32 OFFCURVE",
"382 32 CURVE SMOOTH",
"368 32 OFFCURVE",
"353 32 OFFCURVE",
"339 32 CURVE SMOOTH",
"324 32 OFFCURVE",
"309 32 OFFCURVE",
"294 32 CURVE SMOOTH",
"292 32 OFFCURVE",
"289 32 OFFCURVE",
"287 32 CURVE",
"287 35 OFFCURVE",
"287 38 OFFCURVE",
"287 42 CURVE SMOOTH",
"287 125 OFFCURVE",
"287 208 OFFCURVE",
"287 290 CURVE SMOOTH",
"287 343 LINE SMOOTH",
"287 344 OFFCURVE",
"287 344 OFFCURVE",
"287 345 CURVE",
"287 400 LINE SMOOTH",
"287 482 OFFCURVE",
"287 563 OFFCURVE",
"287 644 CURVE SMOOTH",
"287 653 OFFCURVE",
"286 661 OFFCURVE",
"284 670 CURVE SMOOTH",
"280 693 OFFCURVE",
"263 709 OFFCURVE",
"240 714 CURVE SMOOTH",
"232 716 OFFCURVE",
"224 716 OFFCURVE",
"216 716 CURVE SMOOTH",
"192 717 OFFCURVE",
"168 717 OFFCURVE",
"144 717 CURVE SMOOTH",
"128 717 OFFCURVE",
"112 717 OFFCURVE",
"96 717 CURVE SMOOTH",
"92 717 OFFCURVE",
"89 717 OFFCURVE",
"87 717 CURVE",
"87 719 OFFCURVE",
"87 722 OFFCURVE",
"87 726 CURVE SMOOTH",
"87 748 OFFCURVE",
"87 770 OFFCURVE",
"87 792 CURVE SMOOTH",
"87 810 LINE",
"87 811 LINE SMOOTH",
"87 813 OFFCURVE",
"87 815 OFFCURVE",
"87 816 CURVE SMOOTH",
"87 817 OFFCURVE",
"87 818 OFFCURVE",
"87 818 CURVE",
"88 818 OFFCURVE",
"88 818 OFFCURVE",
"89 818 CURVE SMOOTH",
"91 818 OFFCURVE",
"93 818 OFFCURVE",
"94 818 CURVE SMOOTH"
);
},
{
closed = 1;
nodes = (
"92 850 OFFCURVE",
"89 850 OFFCURVE",
"87 850 CURVE SMOOTH",
"66 848 OFFCURVE",
"57 839 OFFCURVE",
"56 819 CURVE SMOOTH",
"55 816 OFFCURVE",
"55 813 OFFCURVE",
"55 810 CURVE SMOOTH",
"55 782 OFFCURVE",
"55 754 OFFCURVE",
"55 726 CURVE SMOOTH",
"55 694 OFFCURVE",
"65 685 OFFCURVE",
"96 685 CURVE SMOOTH",
"136 685 OFFCURVE",
"176 685 OFFCURVE",
"216 685 CURVE SMOOTH",
"222 685 OFFCURVE",
"228 684 OFFCURVE",
"234 683 CURVE SMOOTH",
"244 681 OFFCURVE",
"251 674 OFFCURVE",
"253 664 CURVE SMOOTH",
"255 657 OFFCURVE",
"255 650 OFFCURVE",
"255 644 CURVE SMOOTH",
"255 544 OFFCURVE",
"255 443 OFFCURVE",
"255 343 CURVE",
"255 343 OFFCURVE",
"255 343 OFFCURVE",
"255 343 CURVE",
"255 243 OFFCURVE",
"255 143 OFFCURVE",
"255 42 CURVE SMOOTH",
"255 37 OFFCURVE",
"256 31 OFFCURVE",
"257 25 CURVE SMOOTH",
"259 11 OFFCURVE",
"266 4 OFFCURVE",
"281 1 CURVE SMOOTH",
"285 0 OFFCURVE",
"289 0 OFFCURVE",
"294 0 CURVE SMOOTH",
"309 0 OFFCURVE",
"324 0 OFFCURVE",
"339 0 CURVE SMOOTH",
"353 0 OFFCURVE",
"368 0 OFFCURVE",
"382 0 CURVE SMOOTH",
"388 0 OFFCURVE",
"393 1 OFFCURVE",
"399 2 CURVE SMOOTH",
"409 4 OFFCURVE",
"416 11 OFFCURVE",
"418 21 CURVE SMOOTH",
"420 29 OFFCURVE",
"420 36 OFFCURVE",
"420 43 CURVE SMOOTH",
"420 239 OFFCURVE",
"420 436 OFFCURVE",
"420 632 CURVE SMOOTH",
"420 638 OFFCURVE",
"420 645 OFFCURVE",
"421 651 CURVE SMOOTH",
"421 674 OFFCURVE",
"431 684 OFFCURVE",
"455 685 CURVE SMOOTH",
"457 685 OFFCURVE",
"459 685 OFFCURVE",
"461 685 CURVE SMOOTH",
"462 685 OFFCURVE",
"463 685 OFFCURVE",
"465 685 CURVE SMOOTH",
"470 685 OFFCURVE",
"475 685 OFFCURVE",
"480 685 CURVE SMOOTH",
"491 685 OFFCURVE",
"501 685 OFFCURVE",
"511 685 CURVE SMOOTH",
"534 685 OFFCURVE",
"558 685 OFFCURVE",
"582 685 CURVE SMOOTH",
"588 685 OFFCURVE",
"595 686 OFFCURVE",
"601 687 CURVE SMOOTH",
"611 689 OFFCURVE",
"618 696 OFFCURVE",
"620 706 CURVE SMOOTH",
"621 711 OFFCURVE",
"622 717 OFFCURVE",
"622 722 CURVE SMOOTH",
"622 752 OFFCURVE",
"622 783 OFFCURVE",
"622 813 CURVE SMOOTH",
"622 818 OFFCURVE",
"621 822 OFFCURVE",
"620 827 CURVE SMOOTH",
"618 839 OFFCURVE",
"611 846 OFFCURVE",
"599 848 CURVE SMOOTH",
"592 849 OFFCURVE",
"586 850 OFFCURVE",
"579 850 CURVE SMOOTH",
"478 850 OFFCURVE",
"378 850 OFFCURVE",
"277 850 CURVE SMOOTH",
"217 850 OFFCURVE",
"158 850 OFFCURVE",
"98 850 CURVE SMOOTH",
"97 850 OFFCURVE",
"96 850 OFFCURVE",
"94 850 CURVE SMOOTH"
);
}
);
width = 676;
}
);
leftKerningGroup = "30";
rightKerningGroup = "30";
unicode = 0054;
},
{
glyphname = "U";
lastChange = "2013-07-19 15:23:21 -0500";
layers = (
{
layerId = "28EF9373-0834-4819-8430-40544DAC9A78";
name = "Light";
paths = (
{
closed = 1;
nodes = (
"124 601 OFFCURVE",
"124 679 OFFCURVE",
"124 757 CURVE SMOOTH",
"124 762 OFFCURVE",
"124 766 OFFCURVE",
"124 771 CURVE SMOOTH",
"125 782 OFFCURVE",
"131 788 OFFCURVE",
"140 788 CURVE SMOOTH",
"148 788 OFFCURVE",
"154 781 OFFCURVE",
"155 771 CURVE SMOOTH",
"155 766 OFFCURVE",
"155 761 OFFCURVE",
"155 755 CURVE SMOOTH",
"155 607 OFFCURVE",
"155 459 OFFCURVE",
"155 311 CURVE SMOOTH",
"155 280 OFFCURVE",
"158 250 OFFCURVE",
"171 222 CURVE SMOOTH",
"204 150 OFFCURVE",
"259 107 OFFCURVE",
"338 99 CURVE SMOOTH",
"454 88 OFFCURVE",
"548 175 OFFCURVE",
"557 283 CURVE SMOOTH",
"557 289 OFFCURVE",
"557 295 OFFCURVE",
"557 302 CURVE SMOOTH",
"557 453 OFFCURVE",
"557 603 OFFCURVE",
"557 754 CURVE SMOOTH",
"557 761 OFFCURVE",
"557 767 OFFCURVE",
"558 773 CURVE SMOOTH",
"560 783 OFFCURVE",
"567 788 OFFCURVE",
"575 788 CURVE SMOOTH",
"583 787 OFFCURVE",
"589 781 OFFCURVE",
"590 771 CURVE SMOOTH",
"590 767 OFFCURVE",
"590 763 OFFCURVE",
"590 759 CURVE SMOOTH",
"590 605 OFFCURVE",
"590 451 OFFCURVE",
"590 297 CURVE SMOOTH",
"590 180 OFFCURVE",
"500 79 OFFCURVE",
"384 67 CURVE SMOOTH",
"319 60 OFFCURVE",
"259 76 OFFCURVE",
"208 118 CURVE SMOOTH",
"154 164 OFFCURVE",
"124 223 OFFCURVE",
"124 295 CURVE SMOOTH",
"123 371 OFFCURVE",
"124 447 OFFCURVE",
"124 524 CURVE SMOOTH"
);
},
{
closed = 1;
nodes = (
"587 818 OFFCURVE",
"602 818 OFFCURVE",
"617 818 CURVE SMOOTH",
"619 818 OFFCURVE",
"621 818 OFFCURVE",
"623 818 CURVE",
"623 815 OFFCURVE",
"623 813 OFFCURVE",
"623 811 CURVE SMOOTH",
"623 741 LINE SMOOTH",
"623 598 OFFCURVE",
"623 451 OFFCURVE",
"623 306 CURVE SMOOTH",
"623 262 OFFCURVE",
"614 221 OFFCURVE",
"596 184 CURVE SMOOTH",
"570 132 OFFCURVE",
"534 92 OFFCURVE",
"483 64 CURVE SMOOTH",
"443 43 OFFCURVE",
"400 32 OFFCURVE",
"355 32 CURVE SMOOTH",
"349 32 OFFCURVE",
"342 32 OFFCURVE",
"335 32 CURVE SMOOTH",
"275 37 OFFCURVE",
"222 59 OFFCURVE",
"176 99 CURVE SMOOTH",
"134 137 OFFCURVE",
"106 185 OFFCURVE",
"94 240 CURVE SMOOTH",
"90 258 OFFCURVE",
"87 277 OFFCURVE",
"87 297 CURVE SMOOTH",
"87 358 OFFCURVE",
"87 421 OFFCURVE",
"87 481 CURVE SMOOTH",
"87 504 OFFCURVE",
"87 527 OFFCURVE",
"87 549 CURVE",
"87 623 LINE",
"87 685 OFFCURVE",
"87 746 OFFCURVE",
"87 808 CURVE SMOOTH",
"87 812 OFFCURVE",
"87 816 OFFCURVE",
"87 818 CURVE",
"89 818 OFFCURVE",
"93 818 OFFCURVE",
"97 818 CURVE SMOOTH",
"108 818 OFFCURVE",
"118 818 OFFCURVE",
"128 818 CURVE SMOOTH",
"171 818 LINE",
"178 818 LINE",
"179 818 LINE",
"180 818 LINE SMOOTH",
"182 818 OFFCURVE",
"184 818 OFFCURVE",
"186 818 CURVE SMOOTH",
"186 818 OFFCURVE",
"187 818 OFFCURVE",
"187 818 CURVE",
"187 818 OFFCURVE",
"187 817 OFFCURVE",
"187 817 CURVE SMOOTH",
"188 814 OFFCURVE",
"188 812 OFFCURVE",
"188 808 CURVE SMOOTH",
"188 806 LINE",
"188 640 LINE SMOOTH",
"188 529 OFFCURVE",
"188 418 OFFCURVE",
"188 308 CURVE SMOOTH",
"188 265 OFFCURVE",
"200 228 OFFCURVE",
"225 198 CURVE SMOOTH",
"255 161 OFFCURVE",
"293 140 OFFCURVE",
"340 135 CURVE SMOOTH",
"345 135 OFFCURVE",
"350 135 OFFCURVE",
"355 135 CURVE SMOOTH",
"439 135 OFFCURVE",
"513 202 OFFCURVE",
"520 285 CURVE SMOOTH",
"520 292 OFFCURVE",
"521 301 OFFCURVE",
"521 310 CURVE SMOOTH",
"521 381 OFFCURVE",
"521 452 OFFCURVE",
"521 523 CURVE SMOOTH",
"521 618 OFFCURVE",
"521 712 OFFCURVE",
"521 807 CURVE SMOOTH",
"521 811 OFFCURVE",
"521 815 OFFCURVE",
"522 818 CURVE",
"524 818 OFFCURVE",
"525 818 OFFCURVE",
"527 818 CURVE SMOOTH",
"542 818 OFFCURVE",
"557 818 OFFCURVE",
"572 818 CURVE SMOOTH"
);
},
{
closed = 1;
nodes = (
"556 850 OFFCURVE",
"542 850 OFFCURVE",
"527 850 CURVE SMOOTH",
"522 850 OFFCURVE",
"516 849 OFFCURVE",
"511 848 CURVE SMOOTH",
"500 846 OFFCURVE",
"494 839 OFFCURVE",
"491 829 CURVE SMOOTH",
"490 822 OFFCURVE",
"490 814 OFFCURVE",
"490 807 CURVE SMOOTH",
"489 641 OFFCURVE",
"489 476 OFFCURVE",
"489 310 CURVE SMOOTH",
"489 303 OFFCURVE",
"489 295 OFFCURVE",
"488 288 CURVE SMOOTH",
"483 220 OFFCURVE",
"422 166 OFFCURVE",
"355 166 CURVE SMOOTH",
"352 166 OFFCURVE",
"347 166 OFFCURVE",
"343 167 CURVE SMOOTH",
"305 171 OFFCURVE",
"274 188 OFFCURVE",
"249 218 CURVE SMOOTH",
"228 244 OFFCURVE",
"219 274 OFFCURVE",
"219 308 CURVE SMOOTH",
"219 474 OFFCURVE",
"219 640 OFFCURVE",
"219 806 CURVE SMOOTH",
"219 810 OFFCURVE",
"219 815 OFFCURVE",
"219 819 CURVE SMOOTH",
"217 839 OFFCURVE",
"209 848 OFFCURVE",
"189 850 CURVE SMOOTH",
"186 850 OFFCURVE",
"183 850 OFFCURVE",
"180 850 CURVE SMOOTH",
"180 850 OFFCURVE",
"179 850 OFFCURVE",
"179 850 CURVE SMOOTH",
"179 850 OFFCURVE",
"178 850 OFFCURVE",
"178 850 CURVE SMOOTH",
"161 850 OFFCURVE",
"145 850 OFFCURVE",
"128 850 CURVE SMOOTH",
"118 850 OFFCURVE",
"108 850 OFFCURVE",
"97 850 CURVE SMOOTH",
"64 850 OFFCURVE",
"55 841 OFFCURVE",
"55 808 CURVE SMOOTH",
"55 722 OFFCURVE",
"55 636 OFFCURVE",
"55 549 CURVE SMOOTH",
"55 465 OFFCURVE",
"55 381 OFFCURVE",
"56 297 CURVE SMOOTH",
"56 275 OFFCURVE",
"58 254 OFFCURVE",
"63 233 CURVE SMOOTH",
"77 170 OFFCURVE",
"109 118 OFFCURVE",
"155 76 CURVE SMOOTH",
"206 31 OFFCURVE",
"266 6 OFFCURVE",
"333 1 CURVE SMOOTH",
"341 0 OFFCURVE",
"348 0 OFFCURVE",
"355 0 CURVE SMOOTH",
"405 0 OFFCURVE",
"453 12 OFFCURVE",
"498 37 CURVE SMOOTH",
"555 68 OFFCURVE",
"596 113 OFFCURVE",
"625 170 CURVE SMOOTH",
"646 213 OFFCURVE",
"655 259 OFFCURVE",
"655 306 CURVE SMOOTH",
"655 474 OFFCURVE",
"655 643 OFFCURVE",
"655 811 CURVE SMOOTH",
"655 817 OFFCURVE",
"654 822 OFFCURVE",
"653 828 CURVE SMOOTH",
"651 839 OFFCURVE",
"644 846 OFFCURVE",
"633 848 CURVE SMOOTH",
"628 849 OFFCURVE",
"622 850 OFFCURVE",
"617 850 CURVE SMOOTH",
"602 850 OFFCURVE",
"587 850 OFFCURVE",
"572 850 CURVE SMOOTH"
);
}
);
width = 710;
}
);
leftKerningGroup = "30";
rightKerningGroup = "30";
unicode = 0055;
},
{
glyphname = "V";
lastChange = "2013-07-19 15:23:25 -0500";
layers = (
{
layerId = "28EF9373-0834-4819-8430-40544DAC9A78";
name = "Light";
paths = (
{
closed = 1;
nodes = (
"390 65 OFFCURVE",
"380 64 OFFCURVE",
"365 64 CURVE SMOOTH",
"348 65 OFFCURVE",
"344 68 OFFCURVE",
"339 84 CURVE SMOOTH",
"328 123 OFFCURVE",
"316 161 OFFCURVE",
"305 200 CURVE SMOOTH",
"256 365 OFFCURVE",
"208 530 OFFCURVE",
"159 696 CURVE SMOOTH",
"154 714 OFFCURVE",
"149 732 OFFCURVE",
"144 750 CURVE SMOOTH",
"142 755 OFFCURVE",
"141 761 OFFCURVE",
"140 766 CURVE SMOOTH",
"140 774 OFFCURVE",
"144 779 OFFCURVE",
"150 782 CURVE SMOOTH",
"157 785 OFFCURVE",
"164 783 OFFCURVE",
"168 777 CURVE SMOOTH",
"171 771 OFFCURVE",
"174 765 OFFCURVE",
"176 758 CURVE SMOOTH",
"194 697 OFFCURVE",
"212 636 OFFCURVE",
"230 576 CURVE SMOOTH",
"267 449 OFFCURVE",
"304 323 OFFCURVE",
"341 196 CURVE SMOOTH",
"349 171 OFFCURVE",
"356 145 OFFCURVE",
"364 119 CURVE SMOOTH",
"369 101 OFFCURVE",
"373 98 OFFCURVE",
"391 98 CURVE SMOOTH",
"403 98 OFFCURVE",
"405 98 OFFCURVE",
"417 98 CURVE SMOOTH",
"436 98 OFFCURVE",
"439 104 OFFCURVE",
"445 122 CURVE SMOOTH",
"455 157 OFFCURVE",
"465 191 OFFCURVE",
"475 225 CURVE SMOOTH",
"518 373 OFFCURVE",
"562 521 OFFCURVE",
"605 669 CURVE SMOOTH",
"615 701 OFFCURVE",
"624 733 OFFCURVE",
"633 764 CURVE SMOOTH",
"635 769 OFFCURVE",
"636 774 OFFCURVE",
"639 778 CURVE SMOOTH",
"643 785 OFFCURVE",
"650 788 OFFCURVE",
"657 786 CURVE SMOOTH",
"664 784 OFFCURVE",
"668 778 OFFCURVE",
"668 770 CURVE SMOOTH",
"668 765 OFFCURVE",
"667 759 OFFCURVE",
"665 754 CURVE SMOOTH",
"623 610 OFFCURVE",
"580 465 OFFCURVE",
"538 321 CURVE SMOOTH",
"515 243 OFFCURVE",
"492 164 OFFCURVE",
"469 86 CURVE SMOOTH",
"465 71 OFFCURVE",
"461 66 OFFCURVE",
"445 66 CURVE SMOOTH",
"430 66 OFFCURVE",
"419 65 OFFCURVE",
"404 65 CURVE SMOOTH"
);
},
{
closed = 1;
nodes = (
"672 818 OFFCURVE",
"685 818 OFFCURVE",
"698 818 CURVE SMOOTH",
"704 818 OFFCURVE",
"711 818 OFFCURVE",
"717 818 CURVE",
"716 815 OFFCURVE",
"715 811 OFFCURVE",
"714 808 CURVE SMOOTH",
"674 663 OFFCURVE",
"630 509 OFFCURVE",
"576 321 CURVE SMOOTH",
"550 229 OFFCURVE",
"524 137 OFFCURVE",
"497 44 CURVE SMOOTH",
"496 40 OFFCURVE",
"495 37 OFFCURVE",
"493 33 CURVE SMOOTH",
"493 33 OFFCURVE",
"493 33 OFFCURVE",
"493 33 CURVE",
"492 33 OFFCURVE",
"490 32 OFFCURVE",
"486 32 CURVE SMOOTH",
"475 32 OFFCURVE",
"463 32 OFFCURVE",
"452 32 CURVE SMOOTH",
"444 32 OFFCURVE",
"436 32 OFFCURVE",
"428 32 CURVE SMOOTH",
"419 32 OFFCURVE",
"411 32 OFFCURVE",
"403 32 CURVE SMOOTH",
"402 32 OFFCURVE",
"402 32 OFFCURVE",
"401 32 CURVE",
"394 32 OFFCURVE",
"386 32 OFFCURVE",
"378 32 CURVE SMOOTH",
"370 32 OFFCURVE",
"362 32 OFFCURVE",
"354 32 CURVE SMOOTH",
"343 32 OFFCURVE",
"333 32 OFFCURVE",
"323 32 CURVE SMOOTH",
"317 32 OFFCURVE",
"315 32 OFFCURVE",
"314 33 CURVE",
"313 34 OFFCURVE",
"312 36 OFFCURVE",
"311 40 CURVE SMOOTH",
"297 86 OFFCURVE",
"284 133 OFFCURVE",
"271 178 CURVE SMOOTH",
"262 211 LINE SMOOTH",
"229 326 OFFCURVE",
"196 441 OFFCURVE",
"163 556 CURVE SMOOTH",
"141 636 LINE",
"132 666 LINE SMOOTH",
"118 716 OFFCURVE",
"104 766 OFFCURVE",
"89 816 CURVE SMOOTH",
"89 817 OFFCURVE",
"89 817 OFFCURVE",
"89 818 CURVE",
"104 818 OFFCURVE",
"119 818 OFFCURVE",
"134 818 CURVE SMOOTH",
"152 818 OFFCURVE",
"170 818 OFFCURVE",
"187 818 CURVE SMOOTH",
"189 818 OFFCURVE",
"191 818 OFFCURVE",
"194 817 CURVE SMOOTH",
"195 817 LINE SMOOTH",
"196 817 OFFCURVE",
"196 817 OFFCURVE",
"196 817 CURVE",
"197 817 OFFCURVE",
"197 816 OFFCURVE",
"198 814 CURVE SMOOTH",
"214 756 OFFCURVE",
"228 709 OFFCURVE",
"240 665 CURVE SMOOTH",
"254 615 OFFCURVE",
"268 566 OFFCURVE",
"282 516 CURVE SMOOTH",
"295 472 OFFCURVE",
"307 428 OFFCURVE",
"320 383 CURVE SMOOTH",
"331 342 OFFCURVE",
"343 300 OFFCURVE",
"356 257 CURVE SMOOTH",
"358 248 OFFCURVE",
"363 239 OFFCURVE",
"370 229 CURVE SMOOTH",
"378 218 OFFCURVE",
"390 211 OFFCURVE",
"403 211 CURVE SMOOTH",
"416 211 OFFCURVE",
"428 217 OFFCURVE",
"435 228 CURVE SMOOTH",
"442 237 OFFCURVE",
"447 246 OFFCURVE",
"450 255 CURVE SMOOTH",
"460 288 OFFCURVE",
"470 323 OFFCURVE",
"480 360 CURVE SMOOTH",
"498 421 OFFCURVE",
"515 483 OFFCURVE",
"532 544 CURVE SMOOTH",
"557 631 LINE SMOOTH",
"569 676 OFFCURVE",
"582 721 OFFCURVE",
"595 766 CURVE SMOOTH",
"606 805 LINE SMOOTH",
"606 807 OFFCURVE",
"607 809 OFFCURVE",
"607 811 CURVE SMOOTH",
"609 814 OFFCURVE",
"610 816 OFFCURVE",
"610 817 CURVE",
"611 817 OFFCURVE",
"613 818 OFFCURVE",
"615 818 CURVE SMOOTH",
"628 818 OFFCURVE",
"642 818 OFFCURVE",
"659 818 CURVE SMOOTH"
);
},
{
closed = 1;
nodes = (
"644 850 OFFCURVE",
"629 850 OFFCURVE",
"615 850 CURVE SMOOTH",
"594 849 OFFCURVE",
"584 841 OFFCURVE",
"577 821 CURVE SMOOTH",
"576 818 OFFCURVE",
"576 816 OFFCURVE",
"575 813 CURVE SMOOTH",
"559 756 OFFCURVE",
"542 698 OFFCURVE",
"526 640 CURVE SMOOTH",
"501 549 OFFCURVE",
"475 459 OFFCURVE",
"450 368 CURVE SMOOTH",
"440 334 OFFCURVE",
"430 299 OFFCURVE",
"419 264 CURVE SMOOTH",
"417 258 OFFCURVE",
"414 252 OFFCURVE",
"410 247 CURVE SMOOTH",
"408 244 OFFCURVE",
"405 243 OFFCURVE",
"403 243 CURVE SMOOTH",
"401 243 OFFCURVE",
"398 244 OFFCURVE",
"396 247 CURVE SMOOTH",
"392 253 OFFCURVE",
"388 259 OFFCURVE",
"386 266 CURVE SMOOTH",
"374 308 OFFCURVE",
"362 350 OFFCURVE",
"350 392 CURVE SMOOTH",
"324 486 OFFCURVE",
"297 580 OFFCURVE",
"271 674 CURVE SMOOTH",
"257 723 OFFCURVE",
"242 773 OFFCURVE",
"228 823 CURVE SMOOTH",
"224 838 OFFCURVE",
"215 847 OFFCURVE",
"199 849 CURVE SMOOTH",
"195 849 OFFCURVE",
"191 850 OFFCURVE",
"187 850 CURVE SMOOTH",
"170 850 OFFCURVE",
"152 850 OFFCURVE",
"134 850 CURVE SMOOTH",
"119 850 OFFCURVE",
"103 850 OFFCURVE",
"88 850 CURVE SMOOTH",
"83 850 OFFCURVE",
"78 849 OFFCURVE",
"73 848 CURVE SMOOTH",
"61 846 OFFCURVE",
"55 839 OFFCURVE",
"55 827 CURVE SMOOTH",
"56 820 OFFCURVE",
"57 814 OFFCURVE",
"59 807 CURVE SMOOTH",
"76 747 OFFCURVE",
"93 687 OFFCURVE",
"110 627 CURVE SMOOTH",
"150 486 OFFCURVE",
"191 344 OFFCURVE",
"231 202 CURVE SMOOTH",
"247 145 OFFCURVE",
"263 88 OFFCURVE",
"280 31 CURVE SMOOTH",
"287 8 OFFCURVE",
"298 0 OFFCURVE",
"323 0 CURVE SMOOTH",
"333 0 OFFCURVE",
"343 0 OFFCURVE",
"354 0 CURVE SMOOTH",
"370 0 OFFCURVE",
"387 0 OFFCURVE",
"403 0 CURVE",
"403 0 OFFCURVE",
"403 0 OFFCURVE",
"403 0 CURVE",
"419 0 OFFCURVE",
"436 0 OFFCURVE",
"452 0 CURVE SMOOTH",
"463 0 OFFCURVE",
"475 0 OFFCURVE",
"486 0 CURVE SMOOTH",
"502 0 OFFCURVE",
"516 5 OFFCURVE",
"522 21 CURVE SMOOTH",
"524 25 OFFCURVE",
"526 30 OFFCURVE",
"528 35 CURVE SMOOTH",
"554 127 OFFCURVE",
"580 220 OFFCURVE",
"607 312 CURVE SMOOTH",
"653 474 OFFCURVE",
"699 637 OFFCURVE",
"745 799 CURVE SMOOTH",
"748 808 OFFCURVE",
"750 818 OFFCURVE",
"751 827 CURVE SMOOTH",
"752 838 OFFCURVE",
"745 845 OFFCURVE",
"734 848 CURVE SMOOTH",
"731 849 OFFCURVE",
"727 850 OFFCURVE",
"724 850 CURVE SMOOTH",
"702 850 OFFCURVE",
"680 850 OFFCURVE",
"659 850 CURVE SMOOTH"
);
},
{
closed = 1;
nodes = (
"421 158 OFFCURVE",
"420 147 OFFCURVE",
"417 137 CURVE SMOOTH",
"416 133 OFFCURVE",
"411 128 OFFCURVE",
"408 128 CURVE SMOOTH",
"405 128 OFFCURVE",
"400 133 OFFCURVE",
"398 137 CURVE SMOOTH",
"395 147 OFFCURVE",
"393 157 OFFCURVE",
"392 167 CURVE SMOOTH",
"390 180 OFFCURVE",
"395 188 OFFCURVE",
"405 189 CURVE SMOOTH",
"417 189 OFFCURVE",
"423 182 OFFCURVE",
"422 164 CURVE"
);
}
);
width = 805;
}
);
leftKerningGroup = "30";
rightKerningGroup = "30";
unicode = 0056;
},
{
glyphname = "W";
lastChange = "2013-07-19 15:23:28 -0500";
layers = (
{
layerId = "28EF9373-0834-4819-8430-40544DAC9A78";
name = "Light";
paths = (
{
closed = 1;
nodes = (
"123 579 OFFCURVE",
"123 667 OFFCURVE",
"123 755 CURVE SMOOTH",
"123 760 OFFCURVE",
"123 765 OFFCURVE",
"123 770 CURVE SMOOTH",
"125 780 OFFCURVE",
"130 785 OFFCURVE",
"138 786 CURVE SMOOTH",
"147 786 OFFCURVE",
"153 780 OFFCURVE",
"154 770 CURVE SMOOTH",
"155 765 OFFCURVE",
"155 759 OFFCURVE",
"155 753 CURVE SMOOTH",
"155 584 OFFCURVE",
"155 415 OFFCURVE",
"155 245 CURVE SMOOTH",
"155 222 OFFCURVE",
"158 200 OFFCURVE",
"167 178 CURVE SMOOTH",
"202 96 OFFCURVE",
"308 70 OFFCURVE",
"376 128 CURVE SMOOTH",
"405 153 OFFCURVE",
"421 185 OFFCURVE",
"424 223 CURVE SMOOTH",
"425 236 OFFCURVE",
"425 248 OFFCURVE",
"425 261 CURVE SMOOTH",
"425 424 OFFCURVE",
"425 588 OFFCURVE",
"425 752 CURVE SMOOTH",
"425 758 OFFCURVE",
"425 763 OFFCURVE",
"426 769 CURVE SMOOTH",
"427 779 OFFCURVE",
"432 785 OFFCURVE",
"441 786 CURVE SMOOTH",
"450 786 OFFCURVE",
"456 779 OFFCURVE",
"457 769 CURVE SMOOTH",
"457 763 OFFCURVE",
"457 758 OFFCURVE",
"457 753 CURVE SMOOTH",
"457 584 OFFCURVE",
"457 415 OFFCURVE",
"457 247 CURVE SMOOTH",
"457 223 OFFCURVE",
"460 200 OFFCURVE",
"469 178 CURVE SMOOTH",
"504 96 OFFCURVE",
"612 70 OFFCURVE",
"679 129 CURVE SMOOTH",
"713 158 OFFCURVE",
"728 196 OFFCURVE",
"728 240 CURVE SMOOTH",
"728 300 OFFCURVE",
"728 359 OFFCURVE",
"728 418 CURVE SMOOTH",
"728 531 OFFCURVE",
"728 643 OFFCURVE",
"728 756 CURVE SMOOTH",
"728 761 OFFCURVE",
"728 767 OFFCURVE",
"729 772 CURVE SMOOTH",
"731 781 OFFCURVE",
"736 785 OFFCURVE",
"744 785 CURVE SMOOTH",
"751 786 OFFCURVE",
"757 781 OFFCURVE",
"759 772 CURVE SMOOTH",
"760 769 OFFCURVE",
"760 766 OFFCURVE",
"760 762 CURVE SMOOTH",
"760 582 OFFCURVE",
"761 402 OFFCURVE",
"759 222 CURVE SMOOTH",
"758 154 OFFCURVE",
"721 105 OFFCURVE",
"659 78 CURVE SMOOTH",
"585 44 OFFCURVE",
"500 70 OFFCURVE",
"453 138 CURVE SMOOTH",
"444 151 OFFCURVE",
"438 151 OFFCURVE",
"429 138 CURVE SMOOTH",
"372 55 OFFCURVE",
"260 38 OFFCURVE",
"184 102 CURVE SMOOTH",
"144 135 OFFCURVE",
"123 177 OFFCURVE",
"123 229 CURVE SMOOTH",
"123 316 OFFCURVE",
"123 404 OFFCURVE",
"123 491 CURVE SMOOTH"
);
},
{
closed = 1;
nodes = (
"756 818 OFFCURVE",
"771 818 OFFCURVE",
"786 818 CURVE SMOOTH",
"788 818 OFFCURVE",
"790 818 OFFCURVE",
"792 818 CURVE",
"793 815 OFFCURVE",
"793 811 OFFCURVE",
"793 807 CURVE SMOOTH",
"793 730 OFFCURVE",
"793 653 OFFCURVE",
"793 575 CURVE SMOOTH",
"793 518 LINE SMOOTH",
"793 517 OFFCURVE",
"793 517 OFFCURVE",
"793 516 CURVE",
"793 489 OFFCURVE",
"793 462 OFFCURVE",
"793 435 CURVE SMOOTH",
"793 371 OFFCURVE",
"792 304 OFFCURVE",
"793 238 CURVE SMOOTH",
"793 188 OFFCURVE",
"778 145 OFFCURVE",
"749 107 CURVE SMOOTH",
"713 63 OFFCURVE",
"669 39 OFFCURVE",
"613 33 CURVE SMOOTH",
"605 32 OFFCURVE",
"597 32 OFFCURVE",
"590 32 CURVE SMOOTH",
"561 32 OFFCURVE",
"532 38 OFFCURVE",
"506 50 CURVE SMOOTH",
"497 55 OFFCURVE",
"488 60 OFFCURVE",
"478 66 CURVE SMOOTH",
"466 73 OFFCURVE",
"453 77 OFFCURVE",
"440 77 CURVE SMOOTH",
"427 77 OFFCURVE",
"413 73 OFFCURVE",
"400 65 CURVE SMOOTH",
"373 48 OFFCURVE",
"347 37 OFFCURVE",
"320 34 CURVE SMOOTH",
"309 33 OFFCURVE",
"298 32 OFFCURVE",
"288 32 CURVE SMOOTH",
"238 32 OFFCURVE",
"196 48 OFFCURVE",
"157 81 CURVE SMOOTH",
"118 115 OFFCURVE",
"95 158 OFFCURVE",
"89 212 CURVE SMOOTH",
"87 221 OFFCURVE",
"87 231 OFFCURVE",
"87 243 CURVE",
"87 431 OFFCURVE",
"87 623 OFFCURVE",
"87 808 CURVE SMOOTH",
"87 812 OFFCURVE",
"87 816 OFFCURVE",
"87 818 CURVE",
"90 818 OFFCURVE",
"93 818 OFFCURVE",
"98 818 CURVE SMOOTH",
"109 818 OFFCURVE",
"119 818 OFFCURVE",
"130 818 CURVE SMOOTH",
"159 818 LINE",
"177 818 LINE",
"179 818 LINE",
"180 818 LINE SMOOTH",
"182 818 OFFCURVE",
"183 818 OFFCURVE",
"185 818 CURVE SMOOTH",
"186 818 OFFCURVE",
"187 818 OFFCURVE",
"188 818 CURVE",
"188 817 OFFCURVE",
"188 816 OFFCURVE",
"188 815 CURVE SMOOTH",
"188 813 OFFCURVE",
"188 811 OFFCURVE",
"188 808 CURVE SMOOTH",
"188 805 LINE",
"188 668 LINE SMOOTH",
"188 530 OFFCURVE",
"188 393 OFFCURVE",
"188 256 CURVE SMOOTH",
"188 235 OFFCURVE",
"190 211 OFFCURVE",
"203 188 CURVE SMOOTH",
"221 155 OFFCURVE",
"253 136 OFFCURVE",
"288 136 CURVE SMOOTH",
"294 136 OFFCURVE",
"300 136 OFFCURVE",
"306 137 CURVE SMOOTH",
"349 145 OFFCURVE",
"381 180 OFFCURVE",
"386 223 CURVE SMOOTH",
"388 233 OFFCURVE",
"388 243 OFFCURVE",
"388 253 CURVE SMOOTH",
"388 345 OFFCURVE",
"388 438 OFFCURVE",
"388 530 CURVE SMOOTH",
"388 622 OFFCURVE",
"389 714 OFFCURVE",
"389 806 CURVE SMOOTH",
"389 810 OFFCURVE",
"389 814 OFFCURVE",
"389 818 CURVE",
"391 818 OFFCURVE",
"393 818 OFFCURVE",
"394 818 CURVE SMOOTH",
"409 818 OFFCURVE",
"423 818 OFFCURVE",
"438 818 CURVE SMOOTH",
"454 818 OFFCURVE",
"470 818 OFFCURVE",
"485 818 CURVE SMOOTH",
"487 818 OFFCURVE",
"489 818 OFFCURVE",
"490 818 CURVE",
"490 818 OFFCURVE",
"490 818 OFFCURVE",
"490 818 CURVE",
"491 815 OFFCURVE",
"491 810 OFFCURVE",
"491 806 CURVE SMOOTH",
"491 760 OFFCURVE",
"491 714 OFFCURVE",
"491 668 CURVE SMOOTH",
"491 534 OFFCURVE",
"491 395 OFFCURVE",
"491 258 CURVE SMOOTH",
"491 236 OFFCURVE",
"494 218 OFFCURVE",
"499 203 CURVE SMOOTH",
"513 162 OFFCURVE",
"549 136 OFFCURVE",
"591 136 CURVE SMOOTH",
"616 136 OFFCURVE",
"639 145 OFFCURVE",
"657 162 CURVE SMOOTH",
"679 182 OFFCURVE",
"690 209 OFFCURVE",
"691 243 CURVE SMOOTH",
"691 257 OFFCURVE",
"691 271 OFFCURVE",
"691 285 CURVE SMOOTH",
"691 290 OFFCURVE",
"691 296 OFFCURVE",
"691 301 CURVE SMOOTH",
"691 399 LINE SMOOTH",
"691 535 OFFCURVE",
"691 671 OFFCURVE",
"691 806 CURVE SMOOTH",
"691 810 OFFCURVE",
"691 814 OFFCURVE",
"692 818 CURVE",
"694 818 OFFCURVE",
"696 818 OFFCURVE",
"698 818 CURVE SMOOTH",
"712 818 OFFCURVE",
"727 818 OFFCURVE",
"741 818 CURVE SMOOTH"
);
},
{
closed = 1;
nodes = (
"727 850 OFFCURVE",
"712 850 OFFCURVE",
"698 850 CURVE SMOOTH",
"692 850 OFFCURVE",
"687 849 OFFCURVE",
"681 848 CURVE SMOOTH",
"670 846 OFFCURVE",
"663 839 OFFCURVE",
"661 828 CURVE SMOOTH",
"660 821 OFFCURVE",
"660 814 OFFCURVE",
"660 806 CURVE SMOOTH",
"659 638 OFFCURVE",
"659 470 OFFCURVE",
"659 301 CURVE SMOOTH",
"659 282 OFFCURVE",
"660 263 OFFCURVE",
"659 244 CURVE SMOOTH",
"659 221 OFFCURVE",
"653 201 OFFCURVE",
"636 185 CURVE SMOOTH",
"624 173 OFFCURVE",
"607 168 OFFCURVE",
"591 168 CURVE SMOOTH",
"565 168 OFFCURVE",
"539 183 OFFCURVE",
"528 214 CURVE SMOOTH",
"523 228 OFFCURVE",
"522 243 OFFCURVE",
"522 258 CURVE SMOOTH",
"522 441 OFFCURVE",
"522 623 OFFCURVE",
"522 806 CURVE",
"522 812 OFFCURVE",
"522 817 OFFCURVE",
"521 823 CURVE SMOOTH",
"518 840 OFFCURVE",
"511 846 OFFCURVE",
"495 849 CURVE SMOOTH",
"492 850 OFFCURVE",
"489 850 OFFCURVE",
"486 850 CURVE SMOOTH",
"470 850 OFFCURVE",
"454 850 OFFCURVE",
"438 850 CURVE SMOOTH",
"423 850 OFFCURVE",
"409 850 OFFCURVE",
"394 850 CURVE SMOOTH",
"389 850 OFFCURVE",
"383 849 OFFCURVE",
"378 848 CURVE SMOOTH",
"369 846 OFFCURVE",
"362 839 OFFCURVE",
"360 828 CURVE SMOOTH",
"358 821 OFFCURVE",
"358 814 OFFCURVE",
"358 806 CURVE SMOOTH",
"358 622 OFFCURVE",
"358 438 OFFCURVE",
"358 253 CURVE SMOOTH",
"358 245 OFFCURVE",
"357 236 OFFCURVE",
"356 228 CURVE SMOOTH",
"352 198 OFFCURVE",
"329 174 OFFCURVE",
"300 169 CURVE SMOOTH",
"296 168 OFFCURVE",
"292 168 OFFCURVE",
"288 168 CURVE SMOOTH",
"264 168 OFFCURVE",
"243 181 OFFCURVE",
"231 204 CURVE SMOOTH",
"222 220 OFFCURVE",
"220 238 OFFCURVE",
"220 256 CURVE",
"220 439 OFFCURVE",
"220 622 OFFCURVE",
"220 805 CURVE",
"220 809 OFFCURVE",
"220 813 OFFCURVE",
"220 817 CURVE SMOOTH",
"219 839 OFFCURVE",
"209 849 OFFCURVE",
"186 850 CURVE SMOOTH",
"184 850 OFFCURVE",
"182 850 OFFCURVE",
"180 850 CURVE SMOOTH",
"179 850 OFFCURVE",
"178 850 OFFCURVE",
"177 850 CURVE SMOOTH",
"161 850 OFFCURVE",
"145 850 OFFCURVE",
"130 850 CURVE SMOOTH",
"119 850 OFFCURVE",
"109 850 OFFCURVE",
"98 850 CURVE SMOOTH",
"64 850 OFFCURVE",
"55 841 OFFCURVE",
"55 808 CURVE SMOOTH",
"55 619 OFFCURVE",
"55 431 OFFCURVE",
"55 243 CURVE SMOOTH",
"55 231 OFFCURVE",
"56 219 OFFCURVE",
"57 208 CURVE SMOOTH",
"65 147 OFFCURVE",
"91 97 OFFCURVE",
"137 57 CURVE SMOOTH",
"182 18 OFFCURVE",
"233 0 OFFCURVE",
"288 0 CURVE SMOOTH",
"300 0 OFFCURVE",
"312 1 OFFCURVE",
"324 2 CURVE SMOOTH",
"358 7 OFFCURVE",
"388 20 OFFCURVE",
"417 38 CURVE SMOOTH",
"425 43 OFFCURVE",
"433 45 OFFCURVE",
"440 45 CURVE SMOOTH",
"447 45 OFFCURVE",
"454 43 OFFCURVE",
"461 39 CURVE SMOOTH",
"472 32 OFFCURVE",
"483 26 OFFCURVE",
"494 21 CURVE SMOOTH",
"524 7 OFFCURVE",
"556 0 OFFCURVE",
"590 0 CURVE SMOOTH",
"599 0 OFFCURVE",
"608 0 OFFCURVE",
"617 1 CURVE SMOOTH",
"680 8 OFFCURVE",
"733 37 OFFCURVE",
"773 87 CURVE SMOOTH",
"808 131 OFFCURVE",
"825 182 OFFCURVE",
"824 238 CURVE SMOOTH",
"824 332 OFFCURVE",
"824 425 OFFCURVE",
"824 518 CURVE",
"824 518 OFFCURVE",
"824 518 OFFCURVE",
"824 518 CURVE",
"824 614 OFFCURVE",
"824 710 OFFCURVE",
"824 807 CURVE SMOOTH",
"824 812 OFFCURVE",
"824 818 OFFCURVE",
"823 823 CURVE SMOOTH",
"821 840 OFFCURVE",
"814 846 OFFCURVE",
"798 849 CURVE SMOOTH",
"794 850 OFFCURVE",
"790 850 OFFCURVE",
"786 850 CURVE SMOOTH",
"771 850 OFFCURVE",
"756 850 OFFCURVE",
"741 850 CURVE SMOOTH"
);
}
);
width = 880;
}
);
leftKerningGroup = "30";
rightKerningGroup = "30";
unicode = 0057;
},
{
glyphname = "X";
lastChange = "2013-07-19 15:23:32 -0500";
layers = (
{
layerId = "28EF9373-0834-4819-8430-40544DAC9A78";
name = "Light";
paths = (
{
closed = 1;
nodes = (
"153 818 OFFCURVE",
"168 818 OFFCURVE",
"184 818 CURVE SMOOTH",
"186 818 OFFCURVE",
"187 818 OFFCURVE",
"188 818 CURVE",
"188 817 OFFCURVE",
"188 816 OFFCURVE",
"188 814 CURVE SMOOTH",
"189 784 OFFCURVE",
"189 753 OFFCURVE",
"189 723 CURVE SMOOTH",
"189 705 OFFCURVE",
"189 687 OFFCURVE",
"189 668 CURVE SMOOTH",
"189 634 OFFCURVE",
"196 604 OFFCURVE",
"212 577 CURVE SMOOTH",
"243 526 OFFCURVE",
"297 494 OFFCURVE",
"356 494 CURVE SMOOTH",
"375 494 OFFCURVE",
"394 498 OFFCURVE",
"412 505 CURVE SMOOTH",
"470 527 OFFCURVE",
"507 571 OFFCURVE",
"519 632 CURVE SMOOTH",
"521 642 OFFCURVE",
"522 653 OFFCURVE",
"522 666 CURVE SMOOTH",
"522 697 OFFCURVE",
"522 729 OFFCURVE",
"522 759 CURVE",
"522 776 OFFCURVE",
"522 792 OFFCURVE",
"522 809 CURVE SMOOTH",
"522 813 OFFCURVE",
"523 816 OFFCURVE",
"523 818 CURVE",
"525 818 OFFCURVE",
"528 818 OFFCURVE",
"532 818 CURVE SMOOTH",
"543 818 OFFCURVE",
"553 818 OFFCURVE",
"564 818 CURVE SMOOTH",
"593 818 LINE",
"617 818 LINE SMOOTH",
"618 818 OFFCURVE",
"620 818 OFFCURVE",
"621 818 CURVE SMOOTH",
"623 818 OFFCURVE",
"624 818 OFFCURVE",
"625 818 CURVE",
"625 817 OFFCURVE",
"625 816 OFFCURVE",
"625 814 CURVE SMOOTH",
"625 810 LINE SMOOTH",
"626 771 OFFCURVE",
"626 731 OFFCURVE",
"625 692 CURVE SMOOTH",
"625 669 OFFCURVE",
"624 644 OFFCURVE",
"621 620 CURVE SMOOTH",
"615 574 OFFCURVE",
"597 532 OFFCURVE",
"565 491 CURVE SMOOTH",
"564 490 LINE SMOOTH",
"562 488 OFFCURVE",
"560 485 OFFCURVE",
"558 482 CURVE SMOOTH",
"538 455 OFFCURVE",
"539 426 OFFCURVE",
"560 400 CURVE SMOOTH",
"586 369 OFFCURVE",
"603 336 OFFCURVE",
"614 301 CURVE SMOOTH",
"621 276 OFFCURVE",
"625 250 OFFCURVE",
"625 224 CURVE SMOOTH",
"626 176 OFFCURVE",
"626 128 OFFCURVE",
"626 80 CURVE SMOOTH",
"626 66 OFFCURVE",
"626 51 OFFCURVE",
"625 37 CURVE SMOOTH",
"625 36 OFFCURVE",
"625 34 OFFCURVE",
"625 32 CURVE",
"623 32 OFFCURVE",
"621 32 OFFCURVE",
"619 32 CURVE SMOOTH",
"604 32 OFFCURVE",
"589 32 OFFCURVE",
"574 32 CURVE SMOOTH",
"549 32 LINE",
"529 32 LINE SMOOTH",
"529 32 OFFCURVE",
"529 32 OFFCURVE",
"529 32 CURVE SMOOTH",
"528 32 OFFCURVE",
"526 32 OFFCURVE",
"525 32 CURVE SMOOTH",
"524 32 OFFCURVE",
"523 32 OFFCURVE",
"523 32 CURVE",
"523 32 OFFCURVE",
"523 33 OFFCURVE",
"523 34 CURVE SMOOTH",
"522 39 OFFCURVE",
"522 44 OFFCURVE",
"522 50 CURVE SMOOTH",
"522 52 OFFCURVE",
"522 54 OFFCURVE",
"522 56 CURVE",
"522 74 OFFCURVE",
"522 92 OFFCURVE",
"522 109 CURVE SMOOTH",
"522 146 OFFCURVE",
"522 183 OFFCURVE",
"522 220 CURVE SMOOTH",
"522 269 OFFCURVE",
"504 311 OFFCURVE",
"469 345 CURVE SMOOTH",
"440 374 OFFCURVE",
"398 390 OFFCURVE",
"355 390 CURVE SMOOTH",
"331 390 OFFCURVE",
"307 385 OFFCURVE",
"286 375 CURVE SMOOTH",
"224 345 OFFCURVE",
"190 292 OFFCURVE",
"189 222 CURVE SMOOTH",
"188 180 OFFCURVE",
"188 139 OFFCURVE",
"188 98 CURVE SMOOTH",
"188 79 OFFCURVE",
"188 61 OFFCURVE",
"188 42 CURVE SMOOTH",
"188 37 OFFCURVE",
"188 34 OFFCURVE",
"188 32 CURVE",
"186 32 OFFCURVE",
"183 32 OFFCURVE",
"178 32 CURVE SMOOTH",
"166 32 OFFCURVE",
"154 32 OFFCURVE",
"142 32 CURVE SMOOTH",
"127 32 OFFCURVE",
"111 32 OFFCURVE",
"95 32 CURVE SMOOTH",
"93 32 OFFCURVE",
"90 32 OFFCURVE",
"87 32 CURVE",
"87 34 OFFCURVE",
"87 38 OFFCURVE",
"87 41 CURVE SMOOTH",
"87 66 OFFCURVE",
"87 91 OFFCURVE",
"87 117 CURVE SMOOTH",
"87 138 LINE SMOOTH",
"87 148 OFFCURVE",
"87 158 OFFCURVE",
"87 167 CURVE SMOOTH",
"87 188 OFFCURVE",
"87 209 OFFCURVE",
"87 229 CURVE SMOOTH",
"88 289 OFFCURVE",
"106 341 OFFCURVE",
"143 390 CURVE SMOOTH",
"145 392 LINE SMOOTH",
"150 398 OFFCURVE",
"155 405 OFFCURVE",
"160 413 CURVE SMOOTH",
"172 433 OFFCURVE",
"171 457 OFFCURVE",
"157 477 CURVE SMOOTH",
"153 483 OFFCURVE",
"149 489 OFFCURVE",
"145 495 CURVE SMOOTH",
"134 509 OFFCURVE",
"125 524 OFFCURVE",
"116 538 CURVE SMOOTH",
"99 569 OFFCURVE",
"90 600 OFFCURVE",
"89 631 CURVE SMOOTH",
"87 682 OFFCURVE",
"87 734 OFFCURVE",
"87 785 CURVE SMOOTH",
"87 795 OFFCURVE",
"87 805 OFFCURVE",
"87 816 CURVE",
"87 817 OFFCURVE",
"87 817 OFFCURVE",
"87 818 CURVE",
"88 818 OFFCURVE",
"89 818 OFFCURVE",
"91 818 CURVE SMOOTH",
"106 818 OFFCURVE",
"121 818 OFFCURVE",
"137 818 CURVE SMOOTH"
);
},
{
closed = 1;
nodes = (
"122 850 OFFCURVE",
"106 850 OFFCURVE",
"90 850 CURVE SMOOTH",
"66 850 OFFCURVE",
"55 839 OFFCURVE",
"55 816 CURVE SMOOTH",
"56 754 OFFCURVE",
"55 692 OFFCURVE",
"57 630 CURVE SMOOTH",
"58 592 OFFCURVE",
"70 556 OFFCURVE",
"89 523 CURVE SMOOTH",
"101 501 OFFCURVE",
"116 481 OFFCURVE",
"131 460 CURVE SMOOTH",
"137 450 OFFCURVE",
"139 439 OFFCURVE",
"132 429 CURVE SMOOTH",
"128 422 OFFCURVE",
"123 415 OFFCURVE",
"118 409 CURVE SMOOTH",
"78 356 OFFCURVE",
"56 297 OFFCURVE",
"55 230 CURVE SMOOTH",
"55 199 OFFCURVE",
"55 169 OFFCURVE",
"55 138 CURVE SMOOTH",
"55 106 OFFCURVE",
"55 73 OFFCURVE",
"55 41 CURVE SMOOTH",
"55 36 OFFCURVE",
"55 32 OFFCURVE",
"56 27 CURVE SMOOTH",
"59 10 OFFCURVE",
"65 3 OFFCURVE",
"82 1 CURVE SMOOTH",
"87 0 OFFCURVE",
"91 0 OFFCURVE",
"95 0 CURVE SMOOTH",
"111 0 OFFCURVE",
"126 0 OFFCURVE",
"142 0 CURVE SMOOTH",
"154 0 OFFCURVE",
"166 0 OFFCURVE",
"178 0 CURVE SMOOTH",
"211 0 OFFCURVE",
"220 9 OFFCURVE",
"220 42 CURVE SMOOTH",
"220 102 OFFCURVE",
"219 161 OFFCURVE",
"220 221 CURVE SMOOTH",
"221 278 OFFCURVE",
"248 321 OFFCURVE",
"300 347 CURVE SMOOTH",
"317 355 OFFCURVE",
"336 359 OFFCURVE",
"355 359 CURVE SMOOTH",
"389 359 OFFCURVE",
"423 346 OFFCURVE",
"448 322 CURVE SMOOTH",
"477 294 OFFCURVE",
"491 260 OFFCURVE",
"491 220 CURVE SMOOTH",
"491 165 OFFCURVE",
"491 111 OFFCURVE",
"491 56 CURVE SMOOTH",
"491 48 OFFCURVE",
"491 40 OFFCURVE",
"491 33 CURVE SMOOTH",
"492 11 OFFCURVE",
"502 1 OFFCURVE",
"524 0 CURVE SMOOTH",
"525 0 OFFCURVE",
"527 0 OFFCURVE",
"529 0 CURVE SMOOTH",
"544 0 OFFCURVE",
"559 0 OFFCURVE",
"574 0 CURVE SMOOTH",
"589 0 OFFCURVE",
"604 0 OFFCURVE",
"619 0 CURVE SMOOTH",
"624 0 OFFCURVE",
"629 1 OFFCURVE",
"634 2 CURVE SMOOTH",
"646 4 OFFCURVE",
"653 11 OFFCURVE",
"655 23 CURVE SMOOTH",
"656 28 OFFCURVE",
"657 32 OFFCURVE",
"657 37 CURVE SMOOTH",
"657 100 OFFCURVE",
"657 162 OFFCURVE",
"657 225 CURVE SMOOTH",
"657 253 OFFCURVE",
"652 282 OFFCURVE",
"644 310 CURVE SMOOTH",
"632 350 OFFCURVE",
"611 387 OFFCURVE",
"584 420 CURVE SMOOTH",
"572 435 OFFCURVE",
"572 448 OFFCURVE",
"583 464 CURVE SMOOTH",
"585 466 OFFCURVE",
"587 469 OFFCURVE",
"589 472 CURVE SMOOTH",
"623 514 OFFCURVE",
"646 562 OFFCURVE",
"653 616 CURVE SMOOTH",
"656 641 OFFCURVE",
"657 666 OFFCURVE",
"657 691 CURVE SMOOTH",
"658 732 OFFCURVE",
"657 773 OFFCURVE",
"657 814 CURVE SMOOTH",
"657 839 OFFCURVE",
"646 849 OFFCURVE",
"622 850 CURVE SMOOTH",
"620 850 OFFCURVE",
"618 850 OFFCURVE",
"617 850 CURVE SMOOTH",
"599 850 OFFCURVE",
"582 850 OFFCURVE",
"564 850 CURVE SMOOTH",
"553 850 OFFCURVE",
"543 850 OFFCURVE",
"532 850 CURVE SMOOTH",
"500 850 OFFCURVE",
"491 841 OFFCURVE",
"491 809 CURVE SMOOTH",
"491 761 OFFCURVE",
"491 714 OFFCURVE",
"491 667 CURVE SMOOTH",
"491 657 OFFCURVE",
"490 647 OFFCURVE",
"488 638 CURVE SMOOTH",
"478 587 OFFCURVE",
"449 552 OFFCURVE",
"401 534 CURVE SMOOTH",
"386 528 OFFCURVE",
"371 526 OFFCURVE",
"356 526 CURVE SMOOTH",
"309 526 OFFCURVE",
"264 551 OFFCURVE",
"240 593 CURVE SMOOTH",
"226 616 OFFCURVE",
"220 642 OFFCURVE",
"220 669 CURVE SMOOTH",
"220 717 OFFCURVE",
"220 766 OFFCURVE",
"220 814 CURVE SMOOTH",
"220 839 OFFCURVE",
"209 850 OFFCURVE",
"185 850 CURVE SMOOTH",
"169 850 OFFCURVE",
"153 850 OFFCURVE",
"137 850 CURVE SMOOTH"
);
},
{
closed = 1;
nodes = (
"124 189 OFFCURVE",
"123 212 OFFCURVE",
"124 234 CURVE SMOOTH",
"125 291 OFFCURVE",
"146 341 OFFCURVE",
"185 383 CURVE SMOOTH",
"203 403 OFFCURVE",
"224 419 OFFCURVE",
"248 432 CURVE SMOOTH",
"251 433 OFFCURVE",
"253 434 OFFCURVE",
"254 436 CURVE SMOOTH",
"259 441 OFFCURVE",
"259 445 OFFCURVE",
"254 449 CURVE SMOOTH",
"249 453 OFFCURVE",
"244 455 OFFCURVE",
"239 458 CURVE SMOOTH",
"172 499 OFFCURVE",
"133 559 OFFCURVE",
"124 638 CURVE SMOOTH",
"122 655 OFFCURVE",
"124 672 OFFCURVE",
"124 689 CURVE SMOOTH",
"124 710 OFFCURVE",
"124 732 OFFCURVE",
"124 753 CURVE SMOOTH",
"124 756 OFFCURVE",
"124 760 OFFCURVE",
"124 763 CURVE SMOOTH",
"124 775 OFFCURVE",
"130 782 OFFCURVE",
"139 782 CURVE SMOOTH",
"148 782 OFFCURVE",
"155 775 OFFCURVE",
"155 763 CURVE SMOOTH",
"155 731 OFFCURVE",
"155 699 OFFCURVE",
"155 666 CURVE SMOOTH",
"156 636 OFFCURVE",
"160 606 OFFCURVE",
"174 579 CURVE SMOOTH",
"204 515 OFFCURVE",
"254 475 OFFCURVE",
"325 462 CURVE SMOOTH",
"430 443 OFFCURVE",
"538 515 OFFCURVE",
"557 628 CURVE SMOOTH",
"558 637 OFFCURVE",
"559 646 OFFCURVE",
"559 655 CURVE SMOOTH",
"559 689 OFFCURVE",
"559 723 OFFCURVE",
"559 757 CURVE SMOOTH",
"559 762 OFFCURVE",
"560 767 OFFCURVE",
"562 772 CURVE SMOOTH",
"565 779 OFFCURVE",
"570 783 OFFCURVE",
"577 782 CURVE SMOOTH",
"585 782 OFFCURVE",
"589 777 OFFCURVE",
"591 770 CURVE SMOOTH",
"592 766 OFFCURVE",
"592 762 OFFCURVE",
"592 758 CURVE SMOOTH",
"592 722 OFFCURVE",
"593 687 OFFCURVE",
"592 651 CURVE SMOOTH",
"590 594 OFFCURVE",
"569 544 OFFCURVE",
"530 502 CURVE SMOOTH",
"512 482 OFFCURVE",
"491 466 OFFCURVE",
"467 453 CURVE SMOOTH",
"465 452 OFFCURVE",
"464 451 OFFCURVE",
"462 449 CURVE SMOOTH",
"457 445 OFFCURVE",
"456 441 OFFCURVE",
"462 436 CURVE SMOOTH",
"464 434 OFFCURVE",
"466 433 OFFCURVE",
"468 431 CURVE SMOOTH",
"542 389 OFFCURVE",
"584 326 OFFCURVE",
"592 242 CURVE SMOOTH",
"594 223 OFFCURVE",
"592 204 OFFCURVE",
"592 184 CURVE SMOOTH",
"592 154 OFFCURVE",
"592 124 OFFCURVE",
"592 95 CURVE SMOOTH",
"592 90 OFFCURVE",
"592 85 OFFCURVE",
"591 81 CURVE SMOOTH",
"589 73 OFFCURVE",
"584 69 OFFCURVE",
"577 69 CURVE SMOOTH",
"569 68 OFFCURVE",
"564 73 OFFCURVE",
"562 79 CURVE SMOOTH",
"560 85 OFFCURVE",
"559 91 OFFCURVE",
"559 96 CURVE SMOOTH",
"559 139 OFFCURVE",
"559 182 OFFCURVE",
"559 226 CURVE SMOOTH",
"559 325 OFFCURVE",
"484 411 OFFCURVE",
"386 424 CURVE SMOOTH",
"270 439 OFFCURVE",
"165 355 OFFCURVE",
"157 239 CURVE SMOOTH",
"154 199 OFFCURVE",
"156 158 OFFCURVE",
"155 118 CURVE SMOOTH",
"155 109 OFFCURVE",
"155 99 OFFCURVE",
"155 90 CURVE SMOOTH",
"155 76 OFFCURVE",
"149 68 OFFCURVE",
"139 69 CURVE SMOOTH",
"130 69 OFFCURVE",
"124 76 OFFCURVE",
"124 90 CURVE SMOOTH",
"123 102 OFFCURVE",
"124 115 OFFCURVE",
"124 128 CURVE SMOOTH",
"124 141 OFFCURVE",
"124 154 OFFCURVE",
"124 167 CURVE",
"124 167 OFFCURVE",
"124 167 OFFCURVE",
"124 167 CURVE"
);
}
);
width = 712;
}
);
leftKerningGroup = "30";
rightKerningGroup = "30";
unicode = 0058;
},
{
glyphname = "Y";
lastChange = "2013-07-19 15:23:35 -0500";
layers = (
{
layerId = "28EF9373-0834-4819-8430-40544DAC9A78";
name = "Light";
paths = (
{
closed = 1;
nodes = (
"149 818 OFFCURVE",
"167 818 OFFCURVE",
"185 818 CURVE SMOOTH",
"186 818 OFFCURVE",
"187 818 OFFCURVE",
"188 818 CURVE",
"189 815 OFFCURVE",
"189 812 OFFCURVE",
"189 809 CURVE SMOOTH",
"189 789 OFFCURVE",
"189 768 OFFCURVE",
"189 748 CURVE SMOOTH",
"189 720 OFFCURVE",
"189 691 OFFCURVE",
"189 663 CURVE SMOOTH",
"190 624 OFFCURVE",
"201 589 OFFCURVE",
"224 559 CURVE SMOOTH",
"256 517 OFFCURVE",
"306 492 OFFCURVE",
"357 492 CURVE SMOOTH",
"381 492 OFFCURVE",
"404 498 OFFCURVE",
"426 508 CURVE SMOOTH",
"483 535 OFFCURVE",
"517 581 OFFCURVE",
"523 643 CURVE SMOOTH",
"525 660 OFFCURVE",
"525 677 OFFCURVE",
"525 694 CURVE SMOOTH",
"525 698 OFFCURVE",
"525 703 OFFCURVE",
"525 707 CURVE SMOOTH",
"525 725 OFFCURVE",
"525 743 OFFCURVE",
"525 762 CURVE SMOOTH",
"525 778 OFFCURVE",
"525 794 OFFCURVE",
"525 810 CURVE SMOOTH",
"525 813 OFFCURVE",
"525 815 OFFCURVE",
"525 818 CURVE",
"527 818 OFFCURVE",
"529 818 OFFCURVE",
"531 818 CURVE SMOOTH",
"546 818 OFFCURVE",
"561 818 OFFCURVE",
"576 818 CURVE SMOOTH",
"591 818 OFFCURVE",
"607 818 OFFCURVE",
"622 818 CURVE SMOOTH",
"624 818 OFFCURVE",
"626 818 OFFCURVE",
"628 818 CURVE",
"628 816 OFFCURVE",
"628 813 OFFCURVE",
"628 810 CURVE SMOOTH",
"629 799 OFFCURVE",
"629 787 OFFCURVE",
"629 775 CURVE SMOOTH",
"629 739 OFFCURVE",
"629 702 OFFCURVE",
"628 665 CURVE SMOOTH",
"628 604 OFFCURVE",
"612 551 OFFCURVE",
"579 504 CURVE SMOOTH",
"549 462 OFFCURVE",
"510 431 OFFCURVE",
"460 409 CURVE SMOOTH",
"459 409 OFFCURVE",
"458 408 OFFCURVE",
"457 408 CURVE SMOOTH",
"456 407 OFFCURVE",
"455 407 OFFCURVE",
"453 406 CURVE SMOOTH",
"424 395 OFFCURVE",
"408 370 OFFCURVE",
"408 338 CURVE SMOOTH",
"408 322 OFFCURVE",
"408 306 OFFCURVE",
"408 290 CURVE SMOOTH",
"408 208 LINE SMOOTH",
"408 153 OFFCURVE",
"408 98 OFFCURVE",
"408 43 CURVE SMOOTH",
"408 38 OFFCURVE",
"408 35 OFFCURVE",
"408 32 CURVE",
"405 32 OFFCURVE",
"401 32 OFFCURVE",
"396 32 CURVE SMOOTH",
"386 32 OFFCURVE",
"376 32 OFFCURVE",
"366 32 CURVE SMOOTH",
"342 32 LINE",
"318 32 LINE",
"317 32 LINE",
"316 32 LINE SMOOTH",
"314 32 OFFCURVE",
"312 32 OFFCURVE",
"310 32 CURVE SMOOTH",
"308 32 OFFCURVE",
"307 32 OFFCURVE",
"306 32 CURVE",
"306 33 OFFCURVE",
"306 34 OFFCURVE",
"306 36 CURVE SMOOTH",
"306 44 OFFCURVE",
"306 53 OFFCURVE",
"306 61 CURVE SMOOTH",
"306 71 LINE",
"306 158 LINE",
"306 186 LINE SMOOTH",
"306 187 OFFCURVE",
"306 187 OFFCURVE",
"306 188 CURVE",
"306 229 LINE SMOOTH",
"306 263 OFFCURVE",
"306 298 OFFCURVE",
"306 332 CURVE SMOOTH",
"306 372 OFFCURVE",
"291 394 OFFCURVE",
"255 409 CURVE SMOOTH",
"204 430 OFFCURVE",
"163 464 OFFCURVE",
"133 508 CURVE SMOOTH",
"106 548 OFFCURVE",
"91 590 OFFCURVE",
"88 634 CURVE SMOOTH",
"87 650 OFFCURVE",
"87 666 OFFCURVE",
"87 682 CURVE SMOOTH",
"87 712 OFFCURVE",
"87 742 OFFCURVE",
"87 771 CURVE SMOOTH",
"87 806 LINE",
"87 806 LINE SMOOTH",
"87 809 OFFCURVE",
"87 811 OFFCURVE",
"87 813 CURVE SMOOTH",
"87 815 OFFCURVE",
"87 817 OFFCURVE",
"87 818 CURVE",
"88 818 OFFCURVE",
"90 818 OFFCURVE",
"91 818 CURVE SMOOTH",
"104 818 OFFCURVE",
"118 818 OFFCURVE",
"131 818 CURVE SMOOTH"
);
},
{
closed = 1;
nodes = (
"117 850 OFFCURVE",
"104 850 OFFCURVE",
"91 850 CURVE SMOOTH",
"66 850 OFFCURVE",
"56 839 OFFCURVE",
"55 814 CURVE SMOOTH",
"55 811 OFFCURVE",
"55 808 OFFCURVE",
"55 806 CURVE SMOOTH",
"55 764 OFFCURVE",
"55 723 OFFCURVE",
"55 682 CURVE SMOOTH",
"55 665 OFFCURVE",
"55 648 OFFCURVE",
"56 632 CURVE SMOOTH",
"60 580 OFFCURVE",
"78 533 OFFCURVE",
"106 491 CURVE SMOOTH",
"141 440 OFFCURVE",
"186 403 OFFCURVE",
"242 380 CURVE SMOOTH",
"267 369 OFFCURVE",
"274 360 OFFCURVE",
"274 332 CURVE SMOOTH",
"274 284 OFFCURVE",
"274 235 OFFCURVE",
"274 186 CURVE",
"274 186 OFFCURVE",
"274 186 OFFCURVE",
"274 186 CURVE",
"274 148 OFFCURVE",
"274 109 OFFCURVE",
"274 71 CURVE SMOOTH",
"274 59 OFFCURVE",
"274 47 OFFCURVE",
"274 35 CURVE SMOOTH",
"275 11 OFFCURVE",
"285 1 OFFCURVE",
"309 0 CURVE SMOOTH",
"312 0 OFFCURVE",
"314 0 OFFCURVE",
"316 0 CURVE SMOOTH",
"317 0 OFFCURVE",
"317 0 OFFCURVE",
"318 0 CURVE SMOOTH",
"334 0 OFFCURVE",
"350 0 OFFCURVE",
"366 0 CURVE SMOOTH",
"376 0 OFFCURVE",
"386 0 OFFCURVE",
"396 0 CURVE SMOOTH",
"432 0 OFFCURVE",
"440 8 OFFCURVE",
"440 43 CURVE SMOOTH",
"440 125 OFFCURVE",
"440 208 OFFCURVE",
"440 290 CURVE SMOOTH",
"440 306 OFFCURVE",
"440 322 OFFCURVE",
"440 338 CURVE SMOOTH",
"440 356 OFFCURVE",
"448 370 OFFCURVE",
"465 377 CURVE SMOOTH",
"468 378 OFFCURVE",
"470 379 OFFCURVE",
"473 380 CURVE SMOOTH",
"526 404 OFFCURVE",
"571 438 OFFCURVE",
"604 486 CURVE SMOOTH",
"642 540 OFFCURVE",
"660 600 OFFCURVE",
"660 665 CURVE SMOOTH",
"660 714 OFFCURVE",
"660 762 OFFCURVE",
"660 810 CURVE SMOOTH",
"660 815 OFFCURVE",
"660 819 OFFCURVE",
"659 823 CURVE SMOOTH",
"657 840 OFFCURVE",
"650 846 OFFCURVE",
"634 849 CURVE SMOOTH",
"630 850 OFFCURVE",
"626 850 OFFCURVE",
"623 850 CURVE SMOOTH",
"607 850 OFFCURVE",
"591 850 OFFCURVE",
"576 850 CURVE SMOOTH",
"561 850 OFFCURVE",
"546 850 OFFCURVE",
"531 850 CURVE SMOOTH",
"525 850 OFFCURVE",
"520 849 OFFCURVE",
"515 848 CURVE SMOOTH",
"504 846 OFFCURVE",
"497 839 OFFCURVE",
"495 828 CURVE SMOOTH",
"494 822 OFFCURVE",
"493 816 OFFCURVE",
"493 810 CURVE SMOOTH",
"493 776 OFFCURVE",
"493 742 OFFCURVE",
"493 708 CURVE SMOOTH",
"493 687 OFFCURVE",
"494 666 OFFCURVE",
"491 646 CURVE SMOOTH",
"486 595 OFFCURVE",
"459 558 OFFCURVE",
"413 537 CURVE SMOOTH",
"395 528 OFFCURVE",
"376 524 OFFCURVE",
"357 524 CURVE SMOOTH",
"316 524 OFFCURVE",
"276 543 OFFCURVE",
"249 578 CURVE SMOOTH",
"230 603 OFFCURVE",
"221 632 OFFCURVE",
"221 663 CURVE SMOOTH",
"221 712 OFFCURVE",
"221 760 OFFCURVE",
"221 809 CURVE SMOOTH",
"221 816 OFFCURVE",
"220 823 OFFCURVE",
"219 829 CURVE SMOOTH",
"216 839 OFFCURVE",
"210 845 OFFCURVE",
"200 848 CURVE SMOOTH",
"195 849 OFFCURVE",
"190 850 OFFCURVE",
"185 850 CURVE SMOOTH",
"167 850 OFFCURVE",
"149 850 OFFCURVE",
"131 850 CURVE SMOOTH"
);
},
{
closed = 1;
nodes = (
"343 302 OFFCURVE",
"343 352 OFFCURVE",
"343 401 CURVE SMOOTH",
"343 421 OFFCURVE",
"339 424 OFFCURVE",
"320 427 CURVE SMOOTH",
"248 440 OFFCURVE",
"192 479 OFFCURVE",
"155 542 CURVE SMOOTH",
"133 578 OFFCURVE",
"123 617 OFFCURVE",
"124 659 CURVE SMOOTH",
"124 689 OFFCURVE",
"124 720 OFFCURVE",
"124 750 CURVE SMOOTH",
"124 762 OFFCURVE",
"129 767 OFFCURVE",
"139 767 CURVE SMOOTH",
"150 767 OFFCURVE",
"155 762 OFFCURVE",
"155 750 CURVE SMOOTH",
"156 721 OFFCURVE",
"155 692 OFFCURVE",
"156 663 CURVE SMOOTH",
"157 620 OFFCURVE",
"168 580 OFFCURVE",
"193 545 CURVE SMOOTH",
"261 445 OFFCURVE",
"401 427 OFFCURVE",
"491 507 CURVE SMOOTH",
"538 547 OFFCURVE",
"562 598 OFFCURVE",
"562 660 CURVE SMOOTH",
"562 690 OFFCURVE",
"562 720 OFFCURVE",
"562 750 CURVE SMOOTH",
"562 763 OFFCURVE",
"568 768 OFFCURVE",
"580 767 CURVE SMOOTH",
"589 767 OFFCURVE",
"594 762 OFFCURVE",
"595 754 CURVE SMOOTH",
"595 750 OFFCURVE",
"595 747 OFFCURVE",
"595 744 CURVE SMOOTH",
"595 716 OFFCURVE",
"595 688 OFFCURVE",
"595 660 CURVE SMOOTH",
"595 543 OFFCURVE",
"512 445 OFFCURVE",
"396 427 CURVE SMOOTH",
"380 424 OFFCURVE",
"376 420 OFFCURVE",
"376 403 CURVE SMOOTH",
"376 308 OFFCURVE",
"376 213 OFFCURVE",
"376 117 CURVE SMOOTH",
"376 112 OFFCURVE",
"376 107 OFFCURVE",
"376 102 CURVE SMOOTH",
"376 87 OFFCURVE",
"372 82 OFFCURVE",
"360 82 CURVE SMOOTH",
"348 82 OFFCURVE",
"343 87 OFFCURVE",
"343 102 CURVE SMOOTH",
"343 152 OFFCURVE",
"343 203 OFFCURVE",
"343 253 CURVE",
"343 253 OFFCURVE",
"343 253 OFFCURVE",
"343 253 CURVE"
);
}
);
width = 715;
}
);
leftKerningGroup = "30";
rightKerningGroup = "30";
unicode = 0059;
},
